<svg width="92" height="92" viewBox="0 0 92 92" fill="none" xmlns="http://www.w3.org/2000/svg">
<path fill-rule="evenodd" clip-rule="evenodd" d="M62.7861 32.545L54.4256 57.638C53.9234 59.1407 54.7361 60.7699 56.2426 61.272C57.7491 61.7742 59.3783 60.9615 59.8804 59.455L68.2409 34.362C68.7431 32.8594 67.9304 31.2302 66.4239 30.728C64.9174 30.2259 63.2883 31.0385 62.7861 32.545Z" fill="#BB1F1F"/>
<path fill-rule="evenodd" clip-rule="evenodd" d="M70.1041 39.6712L76.4329 46L70.1041 52.3289C68.9809 53.452 68.9809 55.2729 70.1041 56.396C71.2273 57.5192 73.0481 57.5192 74.1713 56.396L82.5318 48.0317C83.6549 46.9085 83.6549 45.0915 82.5318 43.9684L74.1713 35.604C73.0481 34.4809 71.2273 34.4809 70.1041 35.604C68.9809 36.7272 68.9809 38.548 70.1041 39.6712Z" fill="#BB1F1F"/>
<path fill-rule="evenodd" clip-rule="evenodd" d="M48.4956 35.604L40.1351 43.9684C39.0119 45.0915 39.0119 46.9085 40.1351 48.0317L48.4956 56.396C49.6188 57.5192 51.4396 57.5192 52.5628 56.396C53.6859 55.2729 53.6859 53.452 52.5628 52.3289L46.2339 46L52.5628 39.6712C53.6859 38.548 53.6859 36.7272 52.5628 35.604C51.4396 34.4809 49.6188 34.4809 48.4956 35.604Z" fill="#BB1F1F"/>
<path fill-rule="evenodd" clip-rule="evenodd" d="M64.2083 58.5887L63.5145 60.6664C62.3453 64.1777 58.5427 66.079 55.0313 64.9099C53.0917 64.262 51.6427 62.8169 50.9335 61.0574C49.0858 61.1685 47.1998 60.5169 45.7853 59.1062L37.4248 50.7419C34.8028 48.1237 34.8028 43.8764 37.4248 41.2582L45.7853 32.8939C48.4035 30.2757 52.6547 30.2757 55.2728 32.8939C56.4535 34.0745 57.1013 35.5849 57.2202 37.1297L59.1522 31.3337C59.9418 28.9647 61.9237 27.3317 64.2083 26.8755V15.3334C64.2083 12.5389 63.0967 9.85552 61.1225 7.87752C59.1445 5.90335 56.4612 4.79169 53.6667 4.79169C44.298 4.79169 28.5353 4.79169 19.1667 4.79169C16.3722 4.79169 13.6888 5.90335 11.7108 7.87752C9.73667 9.85552 8.625 12.5389 8.625 15.3334V76.6667C8.625 79.4612 9.73667 82.1445 11.7108 84.1225C13.6888 86.0967 16.3722 87.2084 19.1667 87.2084H53.6667C56.4612 87.2084 59.1445 86.0967 61.1225 84.1225C63.0967 82.1445 64.2083 79.4612 64.2083 76.6667V58.5887ZM28.75 77.625H44.0833C45.6703 77.625 46.9583 76.337 46.9583 74.75C46.9583 73.163 45.6703 71.875 44.0833 71.875H28.75C27.163 71.875 25.875 73.163 25.875 74.75C25.875 76.337 27.163 77.625 28.75 77.625ZM51.75 10.5417H21.0833L23.4715 16.5102C24.3455 18.6952 26.4577 20.125 28.8113 20.125H44.022C46.3757 20.125 48.4878 18.6952 49.3618 16.5102L51.75 10.5417Z" fill="#BB1F1F"/>
</svg>
