<svg width="92" height="92" viewBox="0 0 92 92" fill="none" xmlns="http://www.w3.org/2000/svg">
<path d="M64.3024 80.7509H57.5975L55.1581 73.4327H36.8557L34.4163 80.7509H27.7115C25.6903 80.7509 24.0454 82.3958 24.0454 84.417V88.083H67.9545V84.417C67.9684 82.3958 66.3236 80.7509 64.3024 80.7509Z" fill="#BB1F1F"/>
<path d="M80.7649 3.93091H11.2352C7.20669 3.93091 3.91699 7.20667 3.91699 11.2491V53.3182H88.0831V11.2491C88.0831 7.19273 84.8073 3.93091 80.7649 3.93091ZM72.4012 24.4079L64.1352 28.297V39.4345C64.1352 42.2503 62.337 44.7315 59.6606 45.6097C55.1303 47.1152 50.5721 47.8679 46 47.8679C41.4418 47.8679 36.8697 47.1152 32.3394 45.6097C29.677 44.7455 27.8788 42.2503 27.8788 39.4485V28.297L19.6128 24.4079C18.9437 24.1012 18.5394 23.4182 18.5673 22.6794C18.5952 21.9406 19.0552 21.2994 19.7382 21.0345L45.3588 11.3048C45.777 11.1515 46.237 11.1515 46.6552 11.3048L72.2758 21.0345C72.9588 21.2994 73.4328 21.9406 73.4467 22.6794C73.4746 23.4182 73.0703 24.1012 72.4012 24.4079Z" fill="#BB1F1F"/>
<path d="M25.0769 22.9303L30.4018 25.4394C30.4157 25.4394 30.4296 25.4533 30.4436 25.4533L45.9999 32.7854L61.5563 25.4533C61.5702 25.4533 61.5842 25.4394 61.5981 25.4394L66.923 22.9303L45.986 14.9709L25.0769 22.9303Z" fill="#BB1F1F"/>
<path d="M46.014 36.6467C45.7492 36.6467 45.4843 36.5909 45.2334 36.4655L31.5449 30.0255V39.4485C31.5449 40.6751 32.3395 41.7624 33.5104 42.1527C41.8043 44.8988 50.2237 44.8988 58.5316 42.1527C59.7025 41.7624 60.497 40.6751 60.497 39.4485V30.0255L46.8086 36.4655C46.5437 36.5909 46.2789 36.6467 46.014 36.6467Z" fill="#BB1F1F"/>
<path d="M3.91699 62.4764C3.91699 66.5049 7.20669 69.7946 11.2352 69.7946H80.7649C84.8073 69.7946 88.0831 66.5049 88.0831 62.4764V56.9843H3.91699V62.4764ZM47.84 60.6364C48.8437 60.6364 49.6661 61.4588 49.6661 62.4624C49.6661 63.4661 48.8437 64.2885 47.84 64.2885C46.8364 64.2885 46.014 63.4661 46.014 62.4624C46.014 61.4449 46.8224 60.6364 47.84 60.6364Z" fill="#BB1F1F"/>
</svg>
