<svg width="92" height="92" viewBox="0 0 92 92" fill="none" xmlns="http://www.w3.org/2000/svg">
<g clip-path="url(#clip0_1096_971)">
<path d="M76.6667 61.3333C72.4385 61.3333 69 57.8948 69 53.6667C69 49.4385 72.4385 46 76.6667 46C80.8948 46 84.3333 49.4385 84.3333 53.6667C84.3333 57.8948 80.8948 61.3333 76.6667 61.3333Z" fill="#BB1F1F"/>
<path d="M15.3334 61.3333C11.1052 61.3333 7.66675 57.8948 7.66675 53.6667C7.66675 49.4385 11.1052 46 15.3334 46C19.5616 46 23.0001 49.4385 23.0001 53.6667C23.0001 57.8948 19.5616 61.3333 15.3334 61.3333Z" fill="#BB1F1F"/>
<path d="M46 63.25C39.6597 63.25 34.5 58.0903 34.5 51.75C34.5 45.4097 39.6597 40.25 46 40.25C52.3403 40.25 57.5 45.4097 57.5 51.75C57.5 58.0903 52.3403 63.25 46 63.25Z" fill="#BB1F1F"/>
<path d="M64.2084 88.1667H27.7917C26.2047 88.1667 24.9167 86.8787 24.9167 85.2917V79.5417C24.9167 73.7265 29.6432 69 35.4584 69H56.5417C62.3569 69 67.0834 73.7265 67.0834 79.5417V85.2917C67.0834 86.8787 65.7954 88.1667 64.2084 88.1667Z" fill="#BB1F1F"/>
<path d="M81.4584 65.1666H71.875C70.6484 65.1666 69.4984 65.3583 68.425 65.7416C72.9369 69.6746 74.75 74.5698 74.75 80.5H89.125C90.6967 80.5 92 79.1966 92 77.625V75.7083C92 69.8816 87.285 65.1666 81.4584 65.1666Z" fill="#BB1F1F"/>
<path d="M20.125 65.1666H10.5417C4.715 65.1666 0 69.8816 0 75.7083V77.625C0 79.1966 1.30333 80.5 2.875 80.5H17.25C17.25 74.5698 19.0632 69.6746 23.575 65.7416C22.5017 65.3583 21.3517 65.1666 20.125 65.1666Z" fill="#BB1F1F"/>
<path d="M59.2901 34.5H32.7097C31.3259 34.5 30.1414 33.5148 29.8846 32.1578L26.8831 16.1843C26.4576 13.9188 28.7461 12.0865 30.8736 13.0256L37.3136 15.8853L43.5159 5.26312C44.5509 3.49595 47.4489 3.49595 48.4839 5.26312L54.6862 15.8853L61.1262 13.0256C63.2384 12.0903 65.5422 13.9111 65.1206 16.1843L62.119 32.1578C61.8622 33.5148 60.6739 34.5 59.2901 34.5Z" fill="#BB1F1F"/>
</g>
<defs>
<clipPath id="clip0_1096_971">
<rect width="92" height="92" fill="white"/>
</clipPath>
</defs>
</svg>
