<svg width="92" height="92" viewBox="0 0 92 92" fill="none" xmlns="http://www.w3.org/2000/svg">
<path d="M83.9141 27.1328C57.0635 27.1328 34.0689 27.1328 8.08594 27.1328C3.62717 27.1328 0 30.76 0 35.2188V56.7812C0 61.24 3.62717 64.8672 8.08594 64.8672H10.1561H81.8439H83.9141C88.3728 64.8672 92 61.24 92 56.7812V35.2188C92 30.76 88.3728 27.1328 83.9141 27.1328ZM86.3251 41.8149L80.9345 52.5962C79.9412 54.5772 77.1057 54.5772 76.1124 52.5962L73.1328 46.637L70.1532 52.5962C69.1382 54.6207 65.3466 54.5066 64.9135 51.7611L60.1667 42.265C59.8561 41.8837 59.6791 41.4047 59.6216 40.8933C59.5883 41.2049 59.5202 41.5181 59.3718 41.8149L53.9812 52.5962C52.9879 54.5772 50.1524 54.5772 49.1591 52.5962L46.1797 46.637L42.8407 52.5962C41.9247 54.4229 38.9347 54.4229 38.0186 52.5962C37.6055 51.7699 32.4873 41.7601 32.3878 40.9281C32.32 41.5089 32.1008 42.0383 31.7461 42.4413C31.2764 43.3805 26.8897 52.4767 26.1548 53.158C24.64 54.777 22.5989 54.0965 21.8466 52.5962L18.8672 46.637L15.8876 52.5962C14.8943 54.5772 12.0588 54.5772 11.0655 52.5962L5.67489 41.8149C4.08214 38.6296 8.8992 36.221 10.497 39.4039L13.4766 45.363L16.4561 39.4039C17.4274 37.4616 20.3097 37.4801 21.2782 39.4039L24.2578 45.363L27.2374 39.4039C28.4357 37.0072 32.2591 37.6749 32.3813 40.5265C32.4778 37.6668 36.2201 36.9536 37.4501 39.4039L40.4297 45.363L43.4093 39.4039C44.3253 37.5771 47.6747 37.5771 48.5907 39.4039L51.5703 45.363L54.5499 39.4039C55.7748 36.9635 59.4938 37.6548 59.6155 40.5017C59.7305 37.5276 63.5765 37.0316 64.7626 39.4039L67.7422 45.363L70.7218 39.4039C71.6378 37.5771 74.6278 37.5771 75.5439 39.4039L78.5234 45.363L81.503 39.4039C83.1008 36.221 87.9179 38.6296 86.3251 41.8149Z" fill="#BB1F1F"/>
<path d="M32.3584 21.7422H43.1249V11.3482C39.0415 12.4919 35.258 16.2272 32.3584 21.7422Z" fill="#BB1F1F"/>
<path d="M48.875 5.73293V5.88495C55.6719 7.09209 61.6456 12.8304 65.6138 21.7422H78.3472C71.3422 12.4734 60.5926 6.53991 48.875 5.73293Z" fill="#BB1F1F"/>
<path d="M13.6528 21.7422H26.3862C30.3544 12.8304 36.3281 7.09209 43.125 5.88477V5.73275C31.4074 6.53991 20.6578 12.4734 13.6528 21.7422Z" fill="#BB1F1F"/>
<path d="M48.875 11.3482V21.7422H59.6415C56.7419 16.2272 52.9584 12.4919 48.875 11.3482Z" fill="#BB1F1F"/>
<path d="M32.3584 70.2578C35.258 75.7728 39.0415 79.5081 43.1249 80.6518V70.2578H32.3584Z" fill="#BB1F1F"/>
<path d="M48.875 70.2578V80.6518C52.9584 79.5081 56.7419 75.7728 59.6415 70.2578H48.875Z" fill="#BB1F1F"/>
<path d="M65.6138 70.258C61.6456 79.1696 55.6719 84.9079 48.875 86.1152V86.2673C60.5926 85.4601 71.3422 79.5266 78.3472 70.258H65.6138Z" fill="#BB1F1F"/>
<path d="M26.3862 70.2578H13.6528C20.6576 79.5266 31.4072 85.4601 43.125 86.2671V86.115C36.3281 84.9079 30.3544 79.1696 26.3862 70.2578Z" fill="#BB1F1F"/>
</svg>
