<svg width="92" height="92" viewBox="0 0 92 92" fill="none" xmlns="http://www.w3.org/2000/svg">
<path d="M32.1479 70.2154C32.1039 70.6529 32.1417 71.1098 32.3012 71.5627C32.6907 72.6544 33.6045 73.5437 34.6871 73.879C35.6929 74.1969 36.6937 73.9853 36.9973 73.6551L39.0959 71.4032C39.7031 70.7541 39.8565 69.7165 39.4997 68.7096C38.6216 67.0271 37.445 66.4199 35.9383 66.1479L32.1479 70.2154Z" fill="#BB1F1F"/>
<path d="M29.3408 58.9557L25.6731 62.8892C24.9279 63.6998 24.7142 64.9459 25.1303 66.1398C25.5719 67.4013 26.6258 68.4276 27.8872 68.8109C29.0811 69.1687 30.2792 68.8906 31.0295 68.0923L34.4253 64.4501C35.1756 63.6415 35.3842 62.4016 34.9681 61.2076C34.5265 59.9401 33.4665 58.9178 32.2112 58.5365C31.2094 58.2166 30.0339 58.2043 29.3408 58.9557Z" fill="#BB1F1F"/>
<path d="M22.0698 52.4829L18.6832 56.119C17.937 56.9235 17.7284 58.1737 18.1404 59.3717C18.582 60.629 19.6359 61.6553 20.8973 62.0387C22.0892 62.4016 23.2995 62.1184 23.6767 61.7187L27.4365 57.684C28.1868 56.8734 28.3953 55.6273 27.9793 54.4354C27.5356 53.1699 26.4817 52.1477 25.2203 51.7684C24.0601 51.3902 22.7762 51.7265 22.0698 52.4829Z" fill="#BB1F1F"/>
<path d="M15.4447 45.3152L11.6911 49.3519C10.9408 50.1605 10.7322 51.4004 11.1483 52.5883C11.5858 53.8599 12.6458 54.8821 13.9072 55.2655C15.0992 55.6212 16.3074 55.3452 16.6805 54.9404L20.4444 50.9057V50.9016C21.1947 50.1032 21.4032 48.8612 20.9872 47.6693C20.5517 46.3977 19.4916 45.3755 18.2302 44.9962C17.2663 44.664 16.0999 44.6068 15.4447 45.3152Z" fill="#BB1F1F"/>
<path d="M64.176 21.2407C61.7482 22.5982 58.3739 22.8415 55.0874 23.0777C52.6014 23.2473 50.0366 23.4273 48.1936 24.1081L37.9458 27.8893C37.8763 27.9169 37.8057 27.9332 37.7321 27.9434C37.2374 28.0211 36.7794 28.0876 36.3685 28.1448C33.8733 28.4965 33.585 28.6038 33.2977 29.3429C33.0361 30.0257 33.3233 31.0101 34.0327 31.8463C34.6113 32.5332 36.8755 34.6778 41.5338 33.5749L47.3697 32.8041C50.6377 32.3829 53.2577 34.5133 55.3501 36.2326L71.0443 48.7876L71.0566 48.7814C74.159 47.4832 77.3913 45.7945 80.139 42.4845L64.176 21.2407Z" fill="#BB1F1F"/>
<path d="M42.5816 20.4782C41.6514 20.564 40.5852 20.6816 39.4669 20.7981C33.2814 21.4585 29.8519 21.7181 28.1069 21.3951L12.0488 42.2965C12.6397 42.8556 13.1293 43.4363 13.5239 44.0649C14.8661 42.6911 16.8942 42.2004 18.8691 42.7974C20.8072 43.3821 22.4254 44.9532 23.1021 46.9026C23.3894 47.7275 23.4793 48.5739 23.4057 49.3846C24.1979 49.2731 25.0351 49.3191 25.8591 49.5706C27.7921 50.1512 29.4164 51.7265 30.088 53.6759C30.3793 54.4967 30.4713 55.3411 30.4018 56.1517C31.194 56.0403 32.0312 56.0873 32.8551 56.3439C34.7841 56.9286 36.4012 58.4997 37.0779 60.4389C37.5032 61.6686 37.5195 62.9341 37.174 64.0688C37.3713 64.1066 37.5737 64.1547 37.7751 64.218C39.5057 64.7547 40.9757 66.1766 41.6084 67.9297C42.2115 69.6266 41.9499 71.4094 40.9593 72.6892L43.8083 74.9677C44.5054 75.5207 45.5215 75.5811 46.4701 75.1211C47.4985 74.6222 48.2754 73.6092 48.5043 72.4755C48.6004 72.0023 48.5687 71.5433 48.4604 71.118L44.8468 68.2272C44.3613 67.8377 44.2754 67.1191 44.6547 66.6203C45.038 66.1255 45.7413 66.0335 46.2299 66.423L50.5743 69.9047C51.0057 70.2502 52.2416 70.3422 53.3752 69.8086C54.5671 69.2392 55.4677 68.0657 55.7171 66.7562C55.9563 65.5183 55.573 64.3182 54.7205 63.6313L50.7911 60.4869C50.3014 60.0975 50.2155 59.3768 50.5989 58.8841C50.9781 58.3832 51.6855 58.2912 52.17 58.6868L57.8822 63.2551C58.7409 63.9379 59.9747 64.032 61.1145 63.5004C62.2962 62.9351 63.1967 61.7637 63.4523 60.4399C63.6915 59.202 63.3082 58.006 62.4464 57.3129L56.7322 52.7507C56.2426 52.3572 56.1567 51.6386 56.54 51.1356C56.9234 50.6429 57.6267 50.5571 58.1173 50.9455C58.1173 50.9455 66.7939 57.8833 66.8001 57.8833C67.2315 58.2227 68.4612 58.3188 69.5897 57.7791C70.7837 57.2219 71.6781 56.0505 71.9378 54.7308C72.1729 53.4908 71.7895 52.2867 70.9319 51.6059L53.9497 38.0154C52.0014 36.4177 49.9886 34.7627 47.6508 35.0765L41.9325 35.8227C38.0777 36.7489 34.4416 35.833 32.3389 33.3469C31.0714 31.8494 30.64 29.9971 31.2094 28.5077C32.0077 26.4418 33.537 26.2282 36.0608 25.8724C36.438 25.8244 36.8439 25.7651 37.2906 25.6946L47.4331 21.9532C48.0924 21.7079 48.8223 21.5382 49.5777 21.3879C46.97 20.379 45.0799 20.3187 42.5816 20.4782Z" fill="#BB1F1F"/>
<path d="M20.5405 16.517C18.6933 16.377 17.0067 17.7692 14.5789 20.931L8.36991 29.0188C6.12409 31.9362 5.2828 33.7507 5.46884 35.2881C5.61809 36.5516 6.4972 37.7915 7.36915 38.4907L10.3142 40.8428L26.3068 20.0273L24.2368 18.3703C22.8139 17.2356 21.6486 16.6029 20.5405 16.517Z" fill="#BB1F1F"/>
<path d="M71.8235 16.4956C70.7154 16.5651 69.5398 17.1846 68.1057 18.3029L66.0132 19.9262L81.784 40.9114L83.8223 39.3259C85.5857 37.9582 86.4852 36.7346 86.6498 35.4722C86.8532 33.9388 86.0385 32.1101 83.8285 29.1548L77.7207 20.9893C75.341 17.7949 73.6758 16.377 71.8235 16.4956Z" fill="#BB1F1F"/>
</svg>
