<svg width="92" height="92" viewBox="0 0 92 92" fill="none" xmlns="http://www.w3.org/2000/svg">
<path d="M76.863 66.1451H89.3038C90.7929 66.1451 92 64.9384 92 63.4498C92 61.9613 90.7929 60.7545 89.3038 60.7545H76.863C75.3739 60.7545 74.1667 61.9613 74.1667 63.4498C74.1667 64.9384 75.3741 66.1451 76.863 66.1451Z" fill="#BB1F1F"/>
<path d="M89.3037 71.8367H71.8383C70.3492 71.8367 69.1421 73.0435 69.1421 74.532C69.1421 76.0205 70.3492 77.2273 71.8383 77.2273H89.3037C90.7928 77.2273 92 76.0205 92 74.532C92 73.0435 90.7928 71.8367 89.3037 71.8367Z" fill="#BB1F1F"/>
<path d="M89.3037 82.9191H65.0822C63.5931 82.9191 62.386 84.1258 62.386 85.6144C62.386 87.1029 63.5931 88.3097 65.0822 88.3097H89.3037C90.7928 88.3097 91.9999 87.1029 91.9999 85.6144C91.9999 84.1258 90.7928 82.9191 89.3037 82.9191Z" fill="#BB1F1F"/>
<path d="M63.1604 27.7718L66.0142 24.9209C67.0673 23.8686 67.0679 22.1621 66.0155 21.1092C64.9628 20.0562 63.2558 20.0557 62.2025 21.1079L59.2358 24.0717C60.2306 24.89 61.1916 25.7606 62.1146 26.6827C62.4717 27.0396 62.8186 27.4038 63.1604 27.7718Z" fill="#BB1F1F"/>
<path d="M18.694 8.6521H23.554V16.5389C26.9625 15.5977 30.5203 15.1117 34.1529 15.1117C37.7854 15.1117 41.3431 15.5977 44.7516 16.5389V8.6521H49.5915C51.0805 8.6521 52.2877 7.44532 52.2877 5.95679C52.2877 4.46826 51.0805 3.26147 49.5915 3.26147H18.694C17.2049 3.26147 15.9978 4.46826 15.9978 5.95679C15.9978 7.44532 17.2049 8.6521 18.694 8.6521Z" fill="#BB1F1F"/>
<path d="M4.93013 28.0024C5.33946 27.5548 5.75885 27.1142 6.19081 26.6826C7.0384 25.8358 7.91941 25.0345 8.82773 24.2752L5.77771 21.2282C4.72456 20.176 3.01753 20.1763 1.96474 21.2295C0.912315 22.2825 0.912854 23.9889 1.966 25.0412L4.93013 28.0024Z" fill="#BB1F1F"/>
<path d="M34.1527 34.9226C23.28 34.9226 14.4343 43.7591 14.4343 54.6205C14.4343 65.4817 23.28 74.3182 34.1527 74.3182C45.0254 74.3182 53.8711 65.4817 53.8711 54.6205C53.8709 43.7589 45.0252 34.9226 34.1527 34.9226ZM43.2107 51.4745L33.0963 61.5792C32.5698 62.105 31.88 62.3681 31.1904 62.3681C30.5005 62.3681 29.8109 62.1052 29.2844 61.5792L25.0941 57.3929C24.041 56.3406 24.0404 54.634 25.0928 53.581C26.1456 52.528 27.8527 52.5277 28.9058 53.5797L31.1902 55.8621L39.3987 47.6612C40.452 46.6093 42.159 46.6097 43.2116 47.6625C44.2646 48.7156 44.2641 50.4221 43.2107 51.4745Z" fill="#BB1F1F"/>
<path d="M34.1527 20.5021C15.3207 20.5021 0 35.8075 0 54.6202C0 73.433 15.3207 88.7384 34.1527 88.7384C52.9845 88.7384 68.3051 73.433 68.3051 54.6202C68.3051 35.8075 52.9843 20.5021 34.1527 20.5021ZM34.1527 79.7087C20.3067 79.7087 9.04205 68.4542 9.04205 54.6204C9.04205 40.7866 20.3067 29.5319 34.1527 29.5319C47.9987 29.5319 59.2633 40.7866 59.2633 54.6204C59.2633 68.4542 47.9985 79.7087 34.1527 79.7087Z" fill="#BB1F1F"/>
</svg>
