<svg width="92" height="92" viewBox="0 0 92 92" fill="none" xmlns="http://www.w3.org/2000/svg">
<path d="M92 51.9057V15.7685C92 11.3013 88.3726 7.66675 83.9141 7.66675H8.08594C3.62744 7.66675 0 11.3013 0 15.7685V51.9057H92ZM41.8735 35.4181H16.082C14.5933 35.4181 13.3867 34.2092 13.3867 32.7175C13.3867 31.2259 14.5933 30.0169 16.082 30.0169H41.8735C43.3622 30.0169 44.5688 31.2259 44.5688 32.7175C44.5688 34.2092 43.3622 35.4181 41.8735 35.4181ZM41.8735 26.8029H16.082C14.5933 26.8029 13.3867 25.5933 13.3867 24.1024C13.3867 22.6107 14.5933 21.4018 16.082 21.4018H41.8735C43.3622 21.4018 44.5688 22.6107 44.5688 24.1024C44.5688 25.5933 43.3622 26.8029 41.8735 26.8029ZM41.8735 44.0332H16.082C14.5933 44.0332 13.3867 42.8243 13.3867 41.3327C13.3867 39.8417 14.5933 38.6321 16.082 38.6321H41.8735C43.3622 38.6321 44.5688 39.8417 44.5688 41.3327C44.5688 42.8243 43.3622 44.0332 41.8735 44.0332ZM58.7711 46.8787C57.2824 46.8787 56.0758 45.6698 56.0758 44.1781C56.0758 42.6872 57.2824 41.4775 58.7711 41.4775C60.2592 41.4775 61.4665 42.6872 61.4665 44.1781C61.4665 45.6698 60.2592 46.8787 58.7711 46.8787ZM66.2296 46.8787C64.7408 46.8787 63.5343 45.6698 63.5343 44.1781C63.5343 42.6872 64.7408 41.4775 66.2296 41.4775C67.7176 41.4775 68.9249 42.6872 68.9249 44.1781C68.9249 45.6698 67.7183 46.8787 66.2296 46.8787ZM78.2616 27.9809L72.167 38.7228C71.6876 39.5674 70.7934 40.0893 69.824 40.0893H57.361C56.6458 40.0893 55.9593 39.8037 55.4539 39.2967C54.9486 38.7896 54.665 38.1025 54.6657 37.3852L54.6776 26.6433V24.0327H53.2752C51.7872 24.0327 50.5799 22.8231 50.5799 21.3321C50.5799 19.8405 51.7872 18.6316 53.2752 18.6316H57.373C58.861 18.6316 60.0683 19.8405 60.0683 21.3321V23.9455H75.918C76.8782 23.9455 77.7654 24.4568 78.2476 25.2881C78.7305 26.1194 78.7354 27.1447 78.2616 27.9809Z" fill="white"/>
<path d="M0 57.3069V64.5577C0 69.0249 3.62744 72.6594 8.08594 72.6594H34.6306V82.2796H27.1841C25.6953 82.2796 24.4887 83.4885 24.4887 84.9802C24.4887 86.4718 25.6953 87.6807 27.1841 87.6807H64.8167C66.3047 87.6807 67.512 86.4718 67.512 84.9802C67.512 83.4885 66.3047 82.2796 64.8167 82.2796H57.3694V72.6594H83.9141C88.3726 72.6594 92 69.0249 92 64.5577V57.3069H0ZM44.8355 59.8288H47.1645C48.6525 59.8288 49.8598 61.0378 49.8598 62.5294C49.8598 64.0211 48.6525 65.23 47.1645 65.23H44.8355C43.3475 65.23 42.1402 64.0211 42.1402 62.5294C42.1402 61.0378 43.3475 59.8288 44.8355 59.8288Z" fill="white"/>
</svg>
