<svg width="92" height="92" viewBox="0 0 92 92" fill="none" xmlns="http://www.w3.org/2000/svg">
<path d="M80.7775 37.6564C74.9959 42.4222 58.899 55.7912 52.9009 60.7599L80.7057 83.7915C80.9063 83.3035 81.0089 82.7808 81.0076 82.2532V39.0078C81.0119 38.5472 80.934 38.0896 80.7775 37.6564Z" fill="#BB1F1F"/>
<path d="M20.1218 29.6053L12.6028 35.8306L20.1218 42.0557C20.1217 39.4802 20.122 32.0672 20.1218 29.6053Z" fill="#BB1F1F"/>
<path d="M11.05 38.2746C11.0088 38.5119 10.9896 38.7525 10.9925 38.9934V82.2532C10.9944 82.5633 11.033 82.8722 11.1075 83.1733C11.7566 82.6042 36.7455 61.9448 38.179 60.7311C36.5458 59.3713 11.9502 39.0194 11.05 38.2746Z" fill="#BB1F1F"/>
<path d="M44.3037 62.0826C44.6465 62.3749 45.0824 62.5354 45.5329 62.5354C45.9834 62.5354 46.4193 62.3749 46.7621 62.0826C47.8299 61.2058 68.187 44.3539 69.9519 42.8895V19.2684C69.9521 19.0909 69.9172 18.9151 69.8494 18.751C69.7815 18.587 69.682 18.4379 69.5565 18.3124C69.4309 18.1868 69.2819 18.0873 69.1178 18.0195C68.9538 17.9516 68.7779 17.9168 68.6004 17.917H24.3486C24.1711 17.9168 23.9953 17.9516 23.8312 18.0195C23.6672 18.0873 23.5181 18.1868 23.3926 18.3124C23.2671 18.4379 23.1675 18.587 23.0997 18.751C23.0318 18.9151 22.997 19.0909 22.9972 19.2684C22.9873 19.3592 23.0215 44.3497 22.9829 44.4277L44.3037 62.0826ZM60.2474 37.2397V41.0636C60.2497 42.3319 59.8308 43.565 59.0565 44.5695C58.2822 45.574 57.1964 46.2931 55.9693 46.6138C54.7423 46.9345 53.4434 46.8388 52.2766 46.3417C51.1099 45.8446 50.1411 44.9742 49.5224 43.867C44.739 50.0232 36.331 45.5424 36.4539 37.7999C36.2675 30.7034 43.7665 25.9637 48.775 30.8851C48.7332 30.3085 48.7622 29.7291 48.8611 29.1596C48.9615 28.8073 49.1921 28.5063 49.5062 28.3176C49.8202 28.129 50.1942 28.0667 50.5525 28.1435C50.9107 28.2203 51.2264 28.4303 51.4355 28.7311C51.6447 29.0319 51.7317 29.401 51.6789 29.7635C51.6502 30.051 51.5927 31.69 51.6646 41.0923C51.6789 41.8422 51.9877 42.5563 52.5244 43.0803C53.0611 43.6042 53.7825 43.8958 54.5325 43.892C55.2825 43.8882 56.0009 43.5894 56.5323 43.0601C57.0637 42.5308 57.3654 41.8136 57.3721 41.0636V37.2395C57.3678 34.1231 56.127 31.1358 53.922 28.9336C51.7171 26.7313 48.7283 25.4941 45.6119 25.4936C29.4003 26.3203 30.4217 49.2594 46.3885 49.5029C46.7662 49.5084 47.1265 49.6623 47.3916 49.9313C47.6568 50.2004 47.8054 50.563 47.8053 50.9407C47.8053 51.3184 47.6566 51.6809 47.3915 51.9499C47.1263 52.2189 46.7659 52.3728 46.3882 52.3782C44.3795 52.4088 42.3847 52.0401 40.5197 51.2933C38.6547 50.5466 36.9566 49.4368 35.5241 48.0283C34.0915 46.6199 32.9531 44.9408 32.1749 43.0888C31.3967 41.2367 30.9942 39.2484 30.9908 37.2395C31.7987 17.8362 59.4458 17.8561 60.2474 37.2397Z" fill="#BB1F1F"/>
<path d="M79.0667 35.3273L72.8271 28.5989C72.8322 29.6411 72.8271 40.5029 72.8271 40.5029C73.6438 39.8272 78.8741 35.489 79.0667 35.3273Z" fill="#BB1F1F"/>
<path d="M53.2316 8.5721C52.4173 7.70125 51.4363 7.00286 50.3469 6.51838C49.2575 6.03389 48.0819 5.77319 46.8898 5.75174C45.6978 5.73029 44.5135 5.94852 43.4074 6.3935C42.3013 6.83847 41.2958 7.50111 40.4507 8.3421L33.751 15.0416H59.2268L53.2316 8.5721Z" fill="#BB1F1F"/>
<path d="M40.4361 62.5999C39.3877 63.4323 12.7543 85.58 12.7317 85.56C13.3939 86.0085 14.175 86.2488 14.9748 86.25H77.0251C77.6083 86.2531 78.1843 86.1201 78.7072 85.8618C77.7294 85.0706 52.3367 64.0159 50.6293 62.6145C46.6675 66.3784 44.3721 66.3273 40.4361 62.5999ZM45.9999 80.0104H40.8244C40.4464 80.0053 40.0857 79.8516 39.8202 79.5825C39.5547 79.3135 39.4059 78.9507 39.4059 78.5727C39.4059 78.1947 39.5548 77.8319 39.8202 77.5629C40.0857 77.2938 40.4465 77.1401 40.8244 77.1351H45.9999C46.3775 77.1407 46.7378 77.2946 47.0028 77.5636C47.2679 77.8326 47.4165 78.1951 47.4165 78.5727C47.4165 78.9504 47.2679 79.3129 47.0028 79.5819C46.7378 79.8509 46.3775 80.0048 45.9999 80.0104ZM50.9024 79.9673C50.5359 79.9621 50.1862 79.813 49.9288 79.552C49.6715 79.291 49.5273 78.9392 49.5273 78.5727C49.5273 78.2062 49.6716 77.8544 49.9289 77.5934C50.1863 77.3325 50.536 77.1833 50.9025 77.1782C51.2693 77.1827 51.6196 77.3317 51.8774 77.5927C52.1352 77.8538 52.2798 78.2059 52.2798 78.5728C52.2798 78.9397 52.1352 79.2918 51.8774 79.5528C51.6195 79.8139 51.2693 79.9627 50.9024 79.9673ZM51.1899 73.4977H40.8244C40.4463 73.4928 40.0854 73.3391 39.8198 73.0701C39.5542 72.801 39.4053 72.4381 39.4053 72.06C39.4053 71.6819 39.5543 71.319 39.8199 71.0499C40.0855 70.7809 40.4464 70.6272 40.8244 70.6223H51.1899C51.5678 70.6275 51.9284 70.7813 52.1938 71.0503C52.4592 71.3194 52.608 71.6821 52.608 72.06C52.608 72.438 52.4592 72.8007 52.1938 73.0698C51.9284 73.3388 51.5678 73.4925 51.1899 73.4977Z" fill="#BB1F1F"/>
</svg>
