<svg width="40" height="40" viewBox="0 0 40 40" fill="none" xmlns="http://www.w3.org/2000/svg">
<rect width="40" height="40" rx="20" fill="white"/>
<g clip-path="url(#clip0_1229_3490)">
<path d="M30.3939 15.239V22.6359C30.3939 24.6296 28.7719 26.2515 26.7783 26.2515H11.0127V28.6609C11.0127 29.8792 12.0039 30.8703 13.2221 30.8703H29.7908C31.0091 30.8703 32.0002 29.8792 32.0002 28.6609V17.364C32.0002 16.3549 31.3198 15.5022 30.3939 15.239Z" fill="#BB1F1F"/>
<path d="M28.9875 22.6359V15.0547H8V22.6359C8 23.8561 8.98916 24.8453 10.2094 24.8453H26.7781C27.9983 24.8453 28.9875 23.8561 28.9875 22.6359ZM25.925 21.7328H22.9125C22.5242 21.7328 22.2094 21.418 22.2094 21.0297C22.2094 20.6414 22.5242 20.3266 22.9125 20.3266H25.925C26.3133 20.3266 26.6281 20.6414 26.6281 21.0297C26.6281 21.418 26.3134 21.7328 25.925 21.7328Z" fill="#BB1F1F"/>
<path d="M28.9875 11.339C28.9875 10.1188 27.9983 9.12964 26.7781 9.12964H10.2094C8.9892 9.12964 8 10.1188 8 11.339V13.6484H28.9875V11.339Z" fill="#BB1F1F"/>
</g>
<defs>
<clipPath id="clip0_1229_3490">
<rect width="24" height="24" fill="white" transform="translate(8 8)"/>
</clipPath>
</defs>
</svg>
