<svg width="40" height="40" viewBox="0 0 40 40" fill="none" xmlns="http://www.w3.org/2000/svg">
<rect width="40" height="40" rx="20" fill="white"/>
<path d="M28.6211 16.45C27.5711 11.83 23.5411 9.75 20.0011 9.75C20.0011 9.75 20.0011 9.75 19.9911 9.75C16.4611 9.75 12.4211 11.82 11.3711 16.44C10.2011 21.6 13.3611 25.97 16.2211 28.72C17.2811 29.74 18.6411 30.25 20.0011 30.25C21.3611 30.25 22.7211 29.74 23.7711 28.72C26.6311 25.97 29.7911 21.61 28.6211 16.45ZM20.0011 21.46C18.2611 21.46 16.8511 20.05 16.8511 18.31C16.8511 16.57 18.2611 15.16 20.0011 15.16C21.7411 15.16 23.1511 16.57 23.1511 18.31C23.1511 20.05 21.7411 21.46 20.0011 21.46Z" fill="#BB1F1F"/>
</svg>
