<svg width="40" height="40" viewBox="0 0 40 40" fill="none" xmlns="http://www.w3.org/2000/svg">
<rect width="40" height="40" rx="20" fill="white"/>
<path d="M19.79 22.21L16.52 25.48C16.16 25.16 15.81 24.83 15.47 24.49C14.44 23.45 13.51 22.36 12.68 21.22C11.86 20.08 11.2 18.94 10.72 17.81C10.24 16.67 10 15.58 10 14.54C10 13.86 10.12 13.21 10.36 12.61C10.6 12 10.98 11.44 11.51 10.94C12.15 10.31 12.85 10 13.59 10C13.87 10 14.15 10.06 14.4 10.18C14.66 10.3 14.89 10.48 15.07 10.74L17.39 14.01C17.57 14.26 17.7 14.49 17.79 14.71C17.88 14.92 17.93 15.13 17.93 15.32C17.93 15.56 17.86 15.8 17.72 16.03C17.59 16.26 17.4 16.5 17.16 16.74L16.4 17.53C16.29 17.64 16.24 17.77 16.24 17.93C16.24 18.01 16.25 18.08 16.27 18.16C16.3 18.24 16.33 18.3 16.35 18.36C16.53 18.69 16.84 19.12 17.28 19.64C17.73 20.16 18.21 20.69 18.73 21.22C19.09 21.57 19.44 21.91 19.79 22.21Z" fill="#BB1F1F"/>
<path d="M29.9696 26.3291C29.9696 26.6091 29.9196 26.8991 29.8196 27.1791C29.7896 27.2591 29.7596 27.3391 29.7196 27.4191C29.5496 27.7791 29.3296 28.1191 29.0396 28.4391C28.5496 28.9791 28.0096 29.3691 27.3996 29.6191C27.3896 29.6191 27.3796 29.6291 27.3696 29.6291C26.7796 29.8691 26.1396 29.9991 25.4496 29.9991C24.4296 29.9991 23.3396 29.7591 22.1896 29.2691C21.0396 28.7791 19.8896 28.1191 18.7496 27.2891C18.3596 26.9991 17.9696 26.7091 17.5996 26.3991L20.8696 23.1291C21.1496 23.3391 21.3996 23.4991 21.6096 23.6091C21.6596 23.6291 21.7196 23.6591 21.7896 23.6891C21.8696 23.7191 21.9496 23.7291 22.0396 23.7291C22.2096 23.7291 22.3396 23.6691 22.4496 23.5591L23.2096 22.8091C23.4596 22.5591 23.6996 22.3691 23.9296 22.2491C24.1596 22.1091 24.3896 22.0391 24.6396 22.0391C24.8296 22.0391 25.0296 22.0791 25.2496 22.1691C25.4696 22.2591 25.6996 22.3891 25.9496 22.5591L29.2596 24.9091C29.5196 25.0891 29.6996 25.2991 29.8096 25.5491C29.9096 25.7991 29.9696 26.0491 29.9696 26.3291Z" fill="#BB1F1F"/>
</svg>
