<svg width="40" height="40" viewBox="0 0 40 40" fill="none" xmlns="http://www.w3.org/2000/svg">
<rect width="40" height="40" rx="20" fill="white"/>
<path d="M23.3984 13.7893H26.8063C26.1899 13.1714 24.0746 11.0581 23.3984 10.3845V13.7893Z" fill="#BB1F1F"/>
<path d="M29.4139 18.7109H10.5859C10.2623 18.7109 10 18.9733 10 19.2969V25.7031C10 26.0267 10.2623 26.289 10.5859 26.289H29.4139C29.7375 26.289 29.9998 26.0267 29.9998 25.7031V19.2969C29.9998 18.9732 29.7375 18.7109 29.4139 18.7109ZM16.5624 20.8984H15.5859V24.6874C15.5859 25.011 15.3235 25.2734 15 25.2734C14.6764 25.2734 14.414 25.011 14.414 24.6874V20.8984H13.4375C13.1139 20.8984 12.8515 20.6361 12.8515 20.3125C12.8515 19.9889 13.1139 19.7266 13.4375 19.7266H16.5624C16.886 19.7266 17.1484 19.9889 17.1484 20.3125C17.1484 20.6361 16.886 20.8984 16.5624 20.8984ZM21.9247 25.236C21.6219 25.3497 21.2839 25.1964 21.1702 24.8934L20.9608 24.3359H19.0406L18.8292 24.8947C18.7406 25.1291 18.5177 25.2735 18.2811 25.2735C17.8745 25.2735 17.5874 24.8655 17.7332 24.4801C19.4396 19.9687 19.3654 20.1647 19.3701 20.1532C19.4762 19.8938 19.726 19.7265 20.0058 19.7265C20.3025 19.7265 20.5533 19.9141 20.6476 20.169L22.2672 24.4814C22.3809 24.7844 22.2276 25.1222 21.9247 25.236ZM26.5629 25.2734C26.38 25.2734 26.1999 25.1881 26.0856 25.028L24.9999 23.508L23.9142 25.028C23.7998 25.1881 23.6197 25.2734 23.4369 25.2734C22.9656 25.2734 22.6823 24.7365 22.9606 24.3469L24.2798 22.5L22.9606 20.6531C22.7725 20.3898 22.8335 20.0238 23.0968 19.8357C23.3601 19.6476 23.7261 19.7086 23.9142 19.9719L24.9999 21.4919L26.0856 19.9719C26.2736 19.7086 26.6397 19.6476 26.9029 19.8357C27.1663 20.0238 27.2273 20.3897 27.0392 20.6531L25.7199 22.5L27.0392 24.3469C27.3175 24.7366 27.034 25.2734 26.5629 25.2734Z" fill="#BB1F1F"/>
<path d="M12.8516 28.8281C12.8516 29.4743 13.3773 30 14.0234 30H25.9764C26.6226 30 27.1483 29.4743 27.1483 28.8281V27.4609H12.8516V28.8281Z" fill="#BB1F1F"/>
<path d="M27.1483 14.9611H22.8124C22.4888 14.9611 22.2265 14.6987 22.2265 14.3751V10.0002C21.3327 9.99974 19.1889 10.0002 14.0234 10.0002C13.3773 10.0002 12.8516 10.5649 12.8516 11.2111V17.5392H27.1483V14.9611ZM18.7499 16.2111H15.9375C15.6139 16.2111 15.3515 15.9487 15.3515 15.6251C15.3515 15.3015 15.6139 15.0392 15.9375 15.0392H18.7499C19.0735 15.0392 19.3359 15.3015 19.3359 15.6251C19.3359 15.9487 19.0735 16.2111 18.7499 16.2111ZM18.7499 13.7111H15.9375C15.6139 13.7111 15.3515 13.4487 15.3515 13.1251C15.3515 12.8016 15.6139 12.5392 15.9375 12.5392H18.7499C19.0735 12.5392 19.3359 12.8016 19.3359 13.1251C19.3359 13.4487 19.0735 13.7111 18.7499 13.7111Z" fill="#BB1F1F"/>
<path d="M19.4839 23.1641H20.5206L20.0041 21.7887L19.4839 23.1641Z" fill="#BB1F1F"/>
</svg>
