<svg width="92" height="92" viewBox="0 0 92 92" fill="none" xmlns="http://www.w3.org/2000/svg">
<path d="M46 14.375C46.3812 14.375 46.7469 14.2235 47.0165 13.954C47.2861 13.6844 47.4375 13.3187 47.4375 12.9375V7.1875C47.4375 6.80625 47.2861 6.44062 47.0165 6.17103C46.7469 5.90145 46.3812 5.75 46 5.75C45.6188 5.75 45.2531 5.90145 44.9835 6.17103C44.7139 6.44062 44.5625 6.80625 44.5625 7.1875V12.9375C44.5625 13.3187 44.7139 13.6844 44.9835 13.954C45.2531 14.2235 45.6188 14.375 46 14.375Z" fill="#BB1F1F"/>
<path d="M24.6544 22.3745C24.787 22.5118 24.9456 22.6213 25.121 22.6966C25.2964 22.772 25.485 22.8116 25.6759 22.8133C25.8667 22.815 26.056 22.7786 26.2327 22.7063C26.4093 22.634 26.5698 22.5273 26.7048 22.3923C26.8398 22.2574 26.9465 22.0968 27.0188 21.9202C27.0911 21.7435 27.1275 21.5542 27.1258 21.3634C27.1241 21.1725 27.0845 20.9839 27.0091 20.8085C26.9338 20.6331 26.8243 20.4745 26.687 20.3419L22.6209 16.2758C22.4883 16.1385 22.3297 16.029 22.1543 15.9536C21.9789 15.8783 21.7903 15.8386 21.5994 15.837C21.4085 15.8353 21.2192 15.8717 21.0426 15.944C20.8659 16.0162 20.7054 16.123 20.5704 16.2579C20.4355 16.3929 20.3287 16.5534 20.2565 16.7301C20.1842 16.9067 20.1478 17.096 20.1495 17.2869C20.1511 17.4778 20.1908 17.6664 20.2661 17.8418C20.3415 18.0172 20.451 18.1758 20.5883 18.3084L24.6544 22.3745Z" fill="#BB1F1F"/>
<path d="M17.25 40.25H11.5C11.1188 40.25 10.7531 40.4014 10.4835 40.671C10.214 40.9406 10.0625 41.3063 10.0625 41.6875C10.0625 42.0687 10.214 42.4344 10.4835 42.704C10.7531 42.9736 11.1188 43.125 11.5 43.125H17.25C17.6312 43.125 17.9969 42.9736 18.2665 42.704C18.536 42.4344 18.6875 42.0687 18.6875 41.6875C18.6875 41.3063 18.536 40.9406 18.2665 40.671C17.9969 40.4014 17.6312 40.25 17.25 40.25Z" fill="#BB1F1F"/>
<path d="M24.6544 61.0004L20.5883 65.0666C20.451 65.1992 20.3415 65.3578 20.2661 65.5332C20.1908 65.7085 20.1511 65.8972 20.1495 66.088C20.1478 66.2789 20.1842 66.4682 20.2565 66.6449C20.3287 66.8215 20.4355 66.982 20.5704 67.117C20.7054 67.252 20.8659 67.3587 21.0426 67.431C21.2192 67.5033 21.4085 67.5396 21.5994 67.538C21.7903 67.5363 21.9789 67.4967 22.1543 67.4213C22.3297 67.346 22.4883 67.2365 22.6209 67.0992L26.687 63.0331C26.9489 62.762 27.0937 62.3988 27.0905 62.0219C27.0872 61.645 26.936 61.2845 26.6695 61.018C26.403 60.7514 26.0424 60.6003 25.6655 60.597C25.2886 60.5937 24.9255 60.7386 24.6544 61.0004Z" fill="#BB1F1F"/>
<path d="M69.379 16.2758L65.3129 20.3419C65.1756 20.4745 65.0661 20.6331 64.9907 20.8085C64.9154 20.9839 64.8757 21.1725 64.8741 21.3634C64.8724 21.5542 64.9088 21.7435 64.9811 21.9202C65.0533 22.0968 65.1601 22.2574 65.2951 22.3923C65.43 22.5273 65.5905 22.634 65.7672 22.7063C65.9439 22.7786 66.1331 22.815 66.324 22.8133C66.5149 22.8116 66.7035 22.772 66.8789 22.6966C67.0543 22.6213 67.2129 22.5118 67.3455 22.3745L71.4116 18.3084C71.5489 18.1758 71.6584 18.0172 71.7338 17.8418C71.8091 17.6664 71.8488 17.4778 71.8504 17.2869C71.8521 17.096 71.8157 16.9067 71.7434 16.7301C71.6711 16.5534 71.5644 16.3929 71.4294 16.2579C71.2945 16.123 71.134 16.0162 70.9573 15.944C70.7806 15.8717 70.5913 15.8353 70.4005 15.837C70.2096 15.8386 70.021 15.8783 69.8456 15.9536C69.6702 16.029 69.5116 16.1385 69.379 16.2758Z" fill="#BB1F1F"/>
<path d="M67.3456 61.0004C67.0745 60.7386 66.7113 60.5937 66.3344 60.597C65.9575 60.6003 65.597 60.7514 65.3305 61.018C65.0639 61.2845 64.9128 61.645 64.9095 62.0219C64.9062 62.3988 65.0511 62.762 65.3129 63.0331L69.3791 67.0992C69.6502 67.361 70.0133 67.5059 70.3902 67.5027C70.7671 67.4994 71.1277 67.3482 71.3942 67.0817C71.6607 66.8152 71.8119 66.4546 71.8152 66.0777C71.8184 65.7008 71.6735 65.3377 71.4117 65.0666L67.3456 61.0004Z" fill="#BB1F1F"/>
<path d="M80.5 40.25H74.75C74.3688 40.25 74.0031 40.4014 73.7335 40.671C73.4639 40.9406 73.3125 41.3063 73.3125 41.6875C73.3125 42.0687 73.4639 42.4344 73.7335 42.704C74.0031 42.9736 74.3688 43.125 74.75 43.125H80.5C80.8812 43.125 81.2469 42.9736 81.5165 42.704C81.7861 42.4344 81.9375 42.0687 81.9375 41.6875C81.9375 41.3063 81.7861 40.9406 81.5165 40.671C81.2469 40.4014 80.8812 40.25 80.5 40.25Z" fill="#BB1F1F"/>
<path d="M34.5 77.625C34.5008 78.3873 34.8039 79.1181 35.3429 79.6571C35.8819 80.1961 36.6127 80.4992 37.375 80.5H40.25V83.375C40.2508 84.1373 40.5539 84.8681 41.0929 85.4071C41.6319 85.9461 42.3627 86.2492 43.125 86.25H48.875C49.6373 86.2492 50.3681 85.9461 50.9071 85.4071C51.4461 84.8681 51.7492 84.1373 51.75 83.375V80.5H54.625C55.3873 80.4992 56.1181 80.1961 56.6571 79.6571C57.1961 79.1181 57.4992 78.3873 57.5 77.625V74.75H34.5V77.625Z" fill="#BB1F1F"/>
<path d="M34.5 69H57.5V71.875H34.5V69Z" fill="#BB1F1F"/>
<path d="M62.2942 23.4743C59.7293 21.1618 56.7 19.4239 53.4091 18.377C50.1182 17.3302 46.6416 16.9985 43.2121 17.4042C38.0357 17.9954 33.184 20.2265 29.3659 23.7714C25.5478 27.3163 22.9633 31.9893 21.9902 37.1077C21.017 42.226 21.7061 47.5214 23.9568 52.2202C26.2075 56.9191 29.9019 60.775 34.5001 63.2247V66.125H44.5626V59.5327L40.6713 55.6413C40.4094 55.3702 40.2645 55.007 40.2678 54.6301C40.2711 54.2532 40.4223 53.8927 40.6888 53.6262C40.9553 53.3596 41.3159 53.2085 41.6928 53.2052C42.0697 53.2019 42.4328 53.3468 42.7039 53.6086L46.0001 56.9047L49.2963 53.6086C49.5674 53.3468 49.9305 53.2019 50.3074 53.2052C50.6843 53.2085 51.0449 53.3596 51.3114 53.6262C51.5779 53.8927 51.7291 54.2532 51.7324 54.6301C51.7356 55.007 51.5908 55.3702 51.3289 55.6413L47.4376 59.5327V66.125H57.5001V63.2254C60.9696 61.3775 63.9416 58.7192 66.1635 55.4765C68.3853 52.2338 69.7914 48.5025 70.2621 44.5999C70.7327 40.6973 70.2541 36.7387 68.8669 33.0607C67.4796 29.3827 65.2248 26.0941 62.2942 23.4743Z" fill="#BB1F1F"/>
</svg>
