<svg width="738" height="256" viewBox="0 0 738 256" fill="none" xmlns="http://www.w3.org/2000/svg">
<g style="mix-blend-mode:overlay">
<g opacity="0.82">
<path d="M575.973 96.9755L500.183 172.766C490.726 182.222 490.726 197.555 500.183 207.011L575.973 282.801C585.429 292.258 600.762 292.258 610.218 282.801L686.009 207.011C695.465 197.555 695.465 182.222 686.009 172.766L610.218 96.9755C600.762 87.5188 585.429 87.5188 575.973 96.9755Z" stroke="#5C0101" stroke-width="4" stroke-miterlimit="10"/>
<path d="M159.913 -62.8771L84.1229 12.913C74.6662 22.3697 74.6662 37.7021 84.1229 47.1587L159.913 122.949C169.37 132.406 184.702 132.406 194.159 122.949L269.949 47.1587C279.405 37.702 279.405 22.3697 269.949 12.913L194.159 -62.877C184.702 -72.3337 169.37 -72.3337 159.913 -62.8771Z" stroke="#5C0101" stroke-width="4" stroke-miterlimit="10"/>
</g>
<g opacity="0.66">
<path d="M725.842 220.394L650.052 296.184C640.595 305.64 640.595 320.973 650.052 330.429L725.842 406.22C735.298 415.676 750.631 415.676 760.087 406.22L835.877 330.43C845.334 320.973 845.334 305.64 835.877 296.184L760.087 220.394C750.631 210.937 735.298 210.937 725.842 220.394Z" stroke="#5C0101" stroke-width="4" stroke-miterlimit="10"/>
</g>
<g opacity="0.73">
<path d="M707.566 -82.8448L631.776 -7.05475C622.319 2.40195 622.319 17.7343 631.776 27.191L707.566 102.981C717.023 112.438 732.355 112.438 741.812 102.981L817.602 27.191C827.059 17.7343 827.059 2.40194 817.602 -7.05476L741.812 -82.8448C732.355 -92.3015 717.023 -92.3015 707.566 -82.8448Z" stroke="#5C0101" stroke-width="4" stroke-miterlimit="10"/>
</g>
<g opacity="0.79">
<path d="M554.964 213.579L479.174 289.369C469.717 298.825 469.717 314.158 479.174 323.614L554.964 399.404C564.42 408.861 579.753 408.861 589.209 399.404L664.999 323.614C674.456 314.158 674.456 298.825 664.999 289.369L589.209 213.579C579.753 204.122 564.42 204.122 554.964 213.579Z" stroke="#5C0101" stroke-width="2" stroke-miterlimit="10"/>
</g>
<g opacity="0.98">
<path d="M691.149 63.5817L615.359 139.372C605.902 148.828 605.902 164.161 615.359 173.617L691.149 249.408C700.605 258.864 715.938 258.864 725.394 249.408L801.185 173.617C810.641 164.161 810.641 148.828 801.185 139.372L725.394 63.5817C715.938 54.125 700.605 54.125 691.149 63.5817Z" stroke="#5C0101" stroke-width="2" stroke-miterlimit="10"/>
</g>
<g opacity="0.48">
<path d="M333.131 159.286L290.512 201.905C286.164 206.252 286.164 213.301 290.512 217.649L333.131 260.268C337.479 264.616 344.528 264.616 348.875 260.268L391.494 217.649C395.842 213.301 395.842 206.252 391.494 201.905L348.875 159.286C344.528 154.938 337.479 154.938 333.131 159.286Z" stroke="#5C0101" stroke-width="3" stroke-miterlimit="10"/>
</g>
<g opacity="0.71">
<path d="M523.735 34.2195L503.128 54.8269C498.477 59.4772 498.477 67.0169 503.128 71.6672L523.735 92.2746C528.385 96.9249 535.925 96.9249 540.575 92.2746L561.183 71.6672C565.833 67.0169 565.833 59.4772 561.183 54.8269L540.575 34.2196C535.925 29.5692 528.385 29.5692 523.735 34.2195Z" stroke="#5C0101" stroke-width="2" stroke-miterlimit="10"/>
<path d="M29.0275 221.42L8.42018 242.028C3.76986 246.678 3.76984 254.218 8.42017 258.868L29.0275 279.475C33.6779 284.126 41.2175 284.126 45.8679 279.475L66.4752 258.868C71.1256 254.218 71.1255 246.678 66.4752 242.028L45.8678 221.42C41.2175 216.77 33.6779 216.77 29.0275 221.42Z" stroke="#5C0101" stroke-width="2" stroke-miterlimit="10"/>
</g>
<g opacity="0.57">
<path d="M521.665 189.729L469.719 241.675C465.343 246.051 465.343 253.146 469.719 257.522L521.665 309.469C526.041 313.845 533.136 313.845 537.512 309.469L589.459 257.522C593.835 253.146 593.835 246.051 589.459 241.675L537.512 189.729C533.136 185.353 526.041 185.353 521.665 189.729Z" stroke="#5C0101" stroke-width="2" stroke-miterlimit="10"/>
</g>
</g>
</svg>
