<svg width="559" height="256" viewBox="0 0 559 256" fill="none" xmlns="http://www.w3.org/2000/svg">
<g style="mix-blend-mode:overlay">
<path opacity="0.6" d="M141.148 73.106L53.7495 160.504C42.8421 171.412 42.8421 189.096 53.7495 200.003L141.148 287.402C152.055 298.309 169.74 298.309 180.647 287.402L268.045 200.003C278.953 189.096 278.953 171.412 268.045 160.504L180.647 73.106C169.74 62.1987 152.055 62.1987 141.148 73.106Z" stroke="#5C0101" stroke-width="4" stroke-miterlimit="10"/>
<path opacity="0.26" d="M304.414 215.512L217.016 302.91C206.109 313.818 206.109 331.502 217.016 342.409L304.415 429.808C315.322 440.715 333.006 440.715 343.913 429.808L431.312 342.409C442.219 331.502 442.219 313.818 431.312 302.91L343.914 215.512C333.006 204.604 315.322 204.604 304.414 215.512Z" stroke="#5C0101" stroke-width="4" stroke-miterlimit="10"/>
<path opacity="0.59" d="M283.336 -134.195L195.938 -46.7964C185.031 -35.889 185.031 -18.2047 195.938 -7.29739L283.336 80.101C294.244 91.0084 311.928 91.0084 322.835 80.101L410.234 -7.29739C421.141 -18.2047 421.141 -35.889 410.234 -46.7964L322.835 -134.195C311.928 -145.102 294.244 -145.102 283.336 -134.195Z" stroke="#5C0101" stroke-width="4" stroke-miterlimit="10"/>
<path opacity="0.73" d="M107.337 207.653L19.9387 295.052C9.03136 305.959 9.03135 323.643 19.9387 334.551L107.337 421.949C118.244 432.857 135.929 432.857 146.836 421.949L234.234 334.551C245.142 323.643 245.142 305.959 234.235 295.052L146.836 207.653C135.929 196.746 118.244 196.746 107.337 207.653Z" stroke="#5C0101" stroke-width="2" stroke-miterlimit="10"/>
<path opacity="0.54" d="M264.403 34.6626L177.005 122.061C166.097 132.968 166.097 150.653 177.005 161.56L264.403 248.958C275.31 259.866 292.995 259.866 303.902 248.958L391.3 161.56C402.208 150.653 402.208 132.968 391.3 122.061L303.902 34.6626C292.995 23.7553 275.31 23.7553 264.403 34.6626Z" stroke="#5C0101" stroke-width="2" stroke-miterlimit="10"/>
<path opacity="0.5" d="M447.903 54.7748L432.424 70.2533C428.968 73.7095 428.968 79.313 432.424 82.7691L447.903 98.2477C451.359 101.704 456.962 101.704 460.419 98.2477L475.897 82.7691C479.353 79.313 479.353 73.7095 475.897 70.2533L460.418 54.7748C456.962 51.3186 451.359 51.3186 447.903 54.7748Z" stroke="#5C0101" stroke-width="2" stroke-miterlimit="10"/>
<path opacity="0.43" d="M71.3382 0.794364L47.5723 24.5602C42.2104 29.9221 42.2105 38.6155 47.5724 43.9774L71.3382 67.7432C76.7001 73.1051 85.3935 73.1051 90.7554 67.7432L114.521 43.9774C119.883 38.6155 119.883 29.9221 114.521 24.5602L90.7554 0.79437C85.3935 -4.56753 76.7001 -4.56753 71.3382 0.794364Z" stroke="#5C0101" stroke-width="2" stroke-miterlimit="10"/>
<path opacity="0.49" d="M68.9423 180.141L9.04328 240.04C3.9938 245.09 3.9938 253.277 9.04328 258.326L68.9423 318.225C73.9918 323.275 82.1786 323.274 87.2281 318.225L147.127 258.326C152.177 253.277 152.177 245.09 147.127 240.04L87.2281 180.141C82.1786 175.092 73.9918 175.092 68.9423 180.141Z" stroke="#5C0101" stroke-width="2" stroke-miterlimit="10"/>
</g>
</svg>
