<svg width="92" height="92" viewBox="0 0 92 92" fill="none" xmlns="http://www.w3.org/2000/svg">
<g clip-path="url(#clip0_1096_1465)">
<path fill-rule="evenodd" clip-rule="evenodd" d="M75.3345 71.2742L63.057 64.1864C60.6713 62.8091 57.5929 63.6296 56.2163 66.0176L55.7319 66.858C54.5051 68.986 52.6179 70.3421 50.212 70.835C47.8159 71.3259 45.5305 70.812 43.574 69.3443C39.5584 66.3317 35.7648 63.0053 32.2156 59.4561C28.6671 55.9077 25.3408 52.1146 22.329 48.0993C20.8612 46.1424 20.3456 43.8569 20.8365 41.4599C21.3292 39.0544 22.6884 37.17 24.815 35.9426L25.6547 35.4581C26.8192 34.7861 27.6345 33.711 27.9827 32.4135C28.3293 31.1217 28.1572 29.7764 27.4882 28.6178L20.3995 16.3403C19.1408 14.1601 16.5434 13.2949 14.2066 14.1918L14.0541 14.2503C11.6455 15.1743 5.00733 17.599 3.22339 19.3829C-2.05206 24.6586 0.205177 34.2025 2.55872 40.2757C6.68058 50.9122 14.4993 61.1497 22.5119 69.1612C30.5235 77.1719 40.7605 84.993 51.3958 89.1146C55.0859 90.5446 59.2383 91.6734 63.2218 91.6734C66.5557 91.6734 69.8742 90.8662 72.2904 88.45C73.991 86.7494 76.5133 79.9033 77.4376 77.5785L77.497 77.4288C78.4196 75.108 77.4908 72.5189 75.3345 71.2742ZM71.5528 23.1118C72.7136 23.5278 73.4877 24.6291 73.4877 25.8616V39.8414H74.0319C75.6439 39.8414 76.9529 41.1505 76.9529 42.7624C76.9529 44.3762 75.6457 45.6834 74.0319 45.6834H73.4877V48.9171C73.4877 50.5309 72.1788 51.8372 70.5667 51.8372C68.9538 51.8372 67.6466 50.5309 67.6466 48.9171V45.6834H56.6574C55.5275 45.6834 54.4985 45.0315 54.0162 44.0111C53.5339 42.9888 53.6838 41.7806 54.4011 40.9082L68.3105 24.0047C69.0932 23.0534 70.3918 22.696 71.5528 23.1118ZM67.6466 39.8416H62.8448L67.6466 34.0073V39.8416ZM47.8495 34.0744C48.386 32.1084 48.0709 30.6443 46.9074 29.7238C45.5545 28.6543 43.3018 28.4647 41.7775 29.2949C40.6803 29.8925 40.2162 30.9 40.3565 32.3769C40.5123 33.9829 39.3361 35.4107 37.73 35.564C36.1231 35.7198 34.698 34.5417 34.5429 32.9375C34.1735 29.0994 35.7916 25.9009 38.9821 24.1632C42.5791 22.2067 47.3293 22.608 50.5328 25.1441C53.5691 27.5458 54.6456 31.3632 53.4849 35.613C52.6944 38.5091 49.9592 40.6414 47.0666 42.901C45.8318 43.8637 44.5194 44.8878 43.3293 45.9961H51.8168C53.4299 45.9961 54.7371 47.3049 54.7371 48.9171C54.7371 50.5309 53.4299 51.8372 51.8168 51.8372H37.3831C36.3772 51.8372 35.4412 51.3204 34.9073 50.468C34.3726 49.6163 34.3165 48.5477 34.755 47.6426C36.7425 43.5479 40.4739 40.6353 43.4716 38.2956C45.297 36.8698 47.5695 35.0966 47.8495 34.0744ZM92 38.3689C92 48.5297 88.0422 58.0815 80.8576 65.267C80.2865 65.8363 79.5399 66.1231 78.7917 66.1231C78.0451 66.1231 77.296 65.8363 76.7267 65.267C75.5857 64.126 75.5857 62.2761 76.7267 61.1353C82.8074 55.0547 86.158 46.9684 86.158 38.3689C86.158 20.6127 71.7138 6.16854 53.9576 6.16854C45.3572 6.16854 37.2718 9.51845 31.1905 15.5991C30.0495 16.7401 28.2005 16.7401 27.0595 15.5991C25.9185 14.4581 25.9185 12.6091 27.0595 11.4681C34.245 4.28433 43.7968 0.326538 53.9576 0.326538C74.9336 0.326718 92 17.3922 92 38.3689Z" fill="#BB1F1F"/>
</g>
<defs>
<clipPath id="clip0_1096_1465">
<rect width="92" height="92" fill="white"/>
</clipPath>
</defs>
</svg>
