<svg width="92" height="92" viewBox="0 0 92 92" fill="none" xmlns="http://www.w3.org/2000/svg">
<g clip-path="url(#clip0_1096_1472)">
<path d="M77.625 26.0547C77.2829 26.0547 76.9417 26.0669 76.6019 26.0912C75.5776 22.825 73.6526 19.8783 71.0274 17.6117C67.4985 14.5648 62.9289 12.9571 58.2541 13.1299C53.6725 5.09594 45.107 0 35.9375 0C24.4192 0 14.2268 7.91649 11.167 19.0223C4.53783 21.9691 0.179688 28.589 0.179688 35.9375C0.179688 43.1024 4.27207 49.3289 10.2422 52.4033V45.6406C10.2422 41.182 13.8695 37.5547 18.3281 37.5547H73.6719C78.1306 37.5547 81.7578 41.182 81.7578 45.6406V53.8288C87.5754 52.0548 91.8203 46.6402 91.8203 40.25C91.8203 32.4226 85.4522 26.0547 77.625 26.0547Z" fill="#BB1F1F"/>
<path d="M73.6719 42.9453H18.3281C16.8396 42.9453 15.6328 44.1521 15.6328 45.6406V64.6774H76.3672V45.6406C76.3672 44.1521 75.1602 42.9453 73.6719 42.9453ZM38.7433 56.7812H24.4375C22.949 56.7812 21.7422 55.5745 21.7422 54.0859C21.7422 52.5974 22.949 51.3906 24.4375 51.3906H38.7433C40.2317 51.3906 41.4386 52.5974 41.4386 54.0859C41.4386 55.5745 40.2317 56.7812 38.7433 56.7812ZM56.0625 56.7554C54.574 56.7554 53.3672 55.5486 53.3672 54.0601C53.3672 52.5715 54.574 51.3647 56.0625 51.3647C57.5508 51.3647 58.7578 52.5715 58.7578 54.0601C58.7578 55.5486 57.5508 56.7554 56.0625 56.7554ZM67.5625 56.7554C66.074 56.7554 64.8672 55.5486 64.8672 54.0601C64.8672 52.5715 66.074 51.3647 67.5625 51.3647C69.0508 51.3647 70.2578 52.5715 70.2578 54.0601C70.2578 55.5486 69.0508 56.7554 67.5625 56.7554Z" fill="#BB1F1F"/>
<path d="M15.6328 89.3047C15.6328 90.7932 16.8396 92 18.3281 92H73.6719C75.1602 92 76.3672 90.7932 76.3672 89.3047V70.0681H15.6328V89.3047ZM67.5625 77.625C69.0508 77.625 70.2578 78.8318 70.2578 80.3203C70.2578 81.8088 69.0508 83.0156 67.5625 83.0156C66.074 83.0156 64.8672 81.8088 64.8672 80.3203C64.8672 78.8318 66.074 77.625 67.5625 77.625ZM56.0625 77.625C57.5508 77.625 58.7578 78.8318 58.7578 80.3203C58.7578 81.8088 57.5508 83.0156 56.0625 83.0156C54.574 83.0156 53.3672 81.8088 53.3672 80.3203C53.3672 78.8318 54.574 77.625 56.0625 77.625ZM24.4375 77.625H38.7433C40.2317 77.625 41.4386 78.8318 41.4386 80.3203C41.4386 81.8088 40.2317 83.0156 38.7433 83.0156H24.4375C22.949 83.0156 21.7422 81.8088 21.7422 80.3203C21.7422 78.8318 22.949 77.625 24.4375 77.625Z" fill="#BB1F1F"/>
</g>
<defs>
<clipPath id="clip0_1096_1472">
<rect width="92" height="92" fill="white"/>
</clipPath>
</defs>
</svg>
