<svg width="508" height="337" viewBox="0 0 508 337" fill="none" xmlns="http://www.w3.org/2000/svg">
<path fill-rule="evenodd" clip-rule="evenodd" d="M476.998 219.121C461.971 219.121 449.677 231.414 449.677 246.442C449.677 273.851 427.248 296.281 399.839 296.281H64.746C29.1333 296.281 0 267.147 0 231.535C0 195.922 29.1333 166.789 64.746 166.789H66.446C73.591 166.789 79.4369 160.943 79.4369 153.798C79.4369 146.653 73.591 140.807 66.446 140.807H59.301C41.9237 140.807 27.7139 126.597 27.7139 109.22C27.7139 91.8664 41.8916 77.6646 59.2369 77.6326H90.0541C105.074 77.6326 117.367 65.3393 117.367 50.3196C117.383 22.9024 139.804 0.473083 167.222 0.473083H421.915C457.528 0.473083 486.661 29.6144 486.661 65.219C486.661 100.832 457.528 129.965 421.915 129.965C414.77 129.965 408.924 135.811 408.924 142.956C408.924 150.101 414.77 155.947 421.915 155.947H476.998C518.329 155.947 518.329 219.121 476.998 219.121Z" fill="#BB1F1F" fill-opacity="0.1"/>
<path fill-rule="evenodd" clip-rule="evenodd" d="M474.031 214.55C487.287 214.55 498.105 203.74 498.105 190.485C498.105 177.229 487.295 166.42 474.031 166.42C460.768 166.42 449.966 177.229 449.966 190.485C449.966 203.74 460.776 214.55 474.031 214.55Z" fill="#BB1F1F"/>
<path fill-rule="evenodd" clip-rule="evenodd" d="M68.3947 180.373C77.0232 161.408 93.6869 175.433 98.7469 193.765C103.542 211.142 110.086 274.372 121.657 297.764L116.084 299.793C91.0726 273.506 57.3444 204.647 68.3867 180.373H68.3947Z" fill="#63A9BA"/>
<path fill-rule="evenodd" clip-rule="evenodd" d="M118.137 299.047C86.9348 254.621 78.9318 180.413 78.9077 180.164C78.8596 179.707 79.1884 179.29 79.6455 179.234C80.1026 179.186 80.5196 179.515 80.5757 179.972C80.6078 180.221 88.6108 254.517 119.749 298.454L118.137 299.039V299.047Z" fill="#80B9C9"/>
<path fill-rule="evenodd" clip-rule="evenodd" d="M59.3812 240.388C43.1426 239.369 46.687 256.009 57.4566 266.225C64.7459 273.137 87.8008 289.248 104.721 303.923L116.381 299.673C102.259 273.29 76.1651 241.43 59.3812 240.38V240.388Z" fill="#3A7F80"/>
<path fill-rule="evenodd" clip-rule="evenodd" d="M112.219 301.196C89.9898 271.093 55.5079 247.645 55.3715 247.557C55.0748 247.356 54.6658 247.428 54.4654 247.725C54.2649 248.022 54.3371 248.431 54.6338 248.639C54.7701 248.735 88.8912 271.935 110.952 301.661L112.219 301.204V301.196Z" fill="#51A5A5"/>
<path fill-rule="evenodd" clip-rule="evenodd" d="M37.7779 293.771H487.407C492.644 293.771 496.926 298.061 496.926 303.289C496.926 308.526 492.644 312.808 487.407 312.808H455.291C452.38 312.808 450.006 315.189 450.006 318.092C450.006 321.003 452.388 323.377 455.291 323.377H467.039C470.671 323.377 473.646 326.352 473.646 329.985C473.646 333.617 470.671 336.592 467.039 336.592H59.1968C55.5642 336.592 52.5891 333.617 52.5891 329.985C52.5891 326.352 55.5642 323.377 59.1968 323.377H68.4509C71.3618 323.377 73.7354 320.995 73.7354 318.092C73.7354 315.181 71.3538 312.808 68.4509 312.808H37.7779C32.5415 312.808 28.2593 308.526 28.2593 303.289C28.2593 298.053 32.5495 293.771 37.7779 293.771ZM42.7337 336.608C46.222 336.608 49.0768 333.754 49.0768 330.265V329.736C49.0768 326.248 46.222 323.385 42.7337 323.385C39.2454 323.385 36.3906 326.24 36.3906 329.736V330.265C36.3906 333.754 39.2454 336.608 42.7337 336.608Z" fill="#020516"/>
<path fill-rule="evenodd" clip-rule="evenodd" d="M290.379 21.7076H242.32C241.583 21.7076 240.989 22.325 240.989 23.0788V53.5914C240.989 54.3452 241.591 54.9707 242.32 54.9707H290.379C291.116 54.9707 291.71 54.3532 291.71 53.5914V23.0869C291.71 22.3331 291.108 21.7156 290.379 21.7156V21.7076Z" fill="#EC6D3B"/>
<path fill-rule="evenodd" clip-rule="evenodd" d="M290.379 21.7076H242.32C241.591 21.7076 240.989 22.325 240.989 23.0788V24.2496L263.146 45.3318C266.722 48.7399 265.664 49.0366 269.16 45.7167L291.718 24.2496V23.0788C291.718 22.325 291.116 21.7076 290.387 21.7076H290.379Z" fill="#EC6D3B"/>
<path fill-rule="evenodd" clip-rule="evenodd" d="M240.981 52.2763V53.5914C240.981 54.3452 241.583 54.9707 242.312 54.9707H290.371C291.108 54.9707 291.702 54.3532 291.702 53.5914V52.2763L268.968 32.4451C265.696 29.5903 266.682 29.8469 263.33 32.7739L240.973 52.2763H240.981Z" fill="#EC6D3B"/>
<path fill-rule="evenodd" clip-rule="evenodd" d="M241.013 53.8961C241.141 54.5136 241.679 54.9787 242.312 54.9787H290.371C291.004 54.9787 291.541 54.5136 291.678 53.8961L268.719 33.8725C265.76 31.2904 266.658 31.5229 263.627 34.1692L241.013 53.8961Z" fill="#F4A63D"/>
<path fill-rule="evenodd" clip-rule="evenodd" d="M275.447 39.7344L268.727 33.8725C265.768 31.2904 266.666 31.5229 263.635 34.1692L257.26 39.7344L263.146 45.3398C266.722 48.7479 265.664 49.0446 269.16 45.7247L275.455 39.7344H275.447Z" fill="#EC6D3B"/>
<path fill-rule="evenodd" clip-rule="evenodd" d="M290.379 21.7076H242.32C241.879 21.7076 241.486 21.9321 241.246 22.2769L263.635 43.5756C266.666 46.4624 265.776 46.7191 268.727 43.9044L291.461 22.2769C291.221 21.9321 290.828 21.7076 290.387 21.7076H290.379Z" fill="#F4A63D"/>
<path fill-rule="evenodd" clip-rule="evenodd" d="M290.338 14.4263C295.246 14.4263 299.224 18.4037 299.224 23.3114C299.224 28.2191 295.246 32.1965 290.338 32.1965C285.431 32.1965 281.453 28.2191 281.453 23.3114C281.453 18.4037 285.431 14.4263 290.338 14.4263Z" fill="#BB1F1F"/>
<path fill-rule="evenodd" clip-rule="evenodd" d="M291.806 28.2832H289.312V21.2665C288.406 22.1246 287.331 22.7581 286.096 23.167V20.8896C286.746 20.6811 287.452 20.2722 288.213 19.6787C288.983 19.0853 289.497 18.3877 289.785 17.6018H291.806V28.2832Z" fill="white"/>
<path fill-rule="evenodd" clip-rule="evenodd" d="M331.669 139.099C332.904 139.099 332.992 137.23 331.717 137.15C331.091 137.142 330.562 137.094 329.945 136.958C328.79 136.741 328.301 138.281 329.311 138.786C329.383 138.818 329.447 138.85 329.528 138.858C330.233 139.011 330.947 139.091 331.669 139.091V139.099ZM300.924 41.4345C299.689 41.4345 299.6 43.3029 300.884 43.3831H302.872C304.107 43.3831 304.195 41.5147 302.912 41.4345H300.924ZM308.718 41.4345C307.483 41.4345 307.395 43.3029 308.678 43.3831H310.667C311.902 43.3831 311.99 41.5147 310.707 41.4345H308.718ZM316.761 41.8274C316.601 41.7713 316.433 41.7793 316.256 41.8114C315.286 42.068 315.238 43.3751 316.2 43.6959C316.761 43.8643 317.283 44.0808 317.796 44.3615C318.782 44.9228 319.849 43.5596 318.854 42.7256C318.285 42.3567 317.419 42.0119 316.761 41.8274ZM323.024 47.3927C322.607 46.3502 320.939 46.7832 321.18 47.9861C321.196 48.0502 321.212 48.0984 321.236 48.1545C321.46 48.6918 321.629 49.229 321.741 49.8064C321.95 50.9291 323.594 50.8489 323.674 49.6781C323.674 49.5979 323.674 49.5338 323.658 49.4616C323.465 48.6837 323.345 48.1465 323.032 47.3927H323.024ZM323.818 55.4679C323.818 54.2329 321.95 54.1447 321.869 55.4278V57.4165C321.869 58.6515 323.738 58.7397 323.818 57.4646V55.4679ZM323.818 63.2624C323.818 62.0275 321.95 61.9393 321.869 63.2143V65.203C321.869 66.438 323.738 66.5262 323.818 65.2511V63.2624ZM323.818 71.0569C323.818 69.822 321.95 69.7338 321.869 71.0088V73.0056C321.869 74.2405 323.738 74.3287 323.818 73.0457V71.0569ZM323.818 78.8515C323.818 77.6166 321.95 77.5283 321.869 78.8114V80.8001C321.869 82.0351 323.738 82.1233 323.818 80.8402V78.8515ZM323.818 86.646C323.818 85.4111 321.95 85.3229 321.869 86.6059V88.5947C321.869 89.8296 323.738 89.9178 323.818 88.6428V86.646ZM323.818 94.4406C323.818 93.2056 321.95 93.1174 321.869 94.4005V96.3892C321.869 97.6241 323.738 97.7123 323.818 96.4293V94.4406ZM323.818 102.235C323.818 101 321.95 100.912 321.869 102.187V104.176C321.869 105.411 323.738 105.499 323.818 104.224V102.235ZM323.818 110.03C323.818 108.795 321.95 108.706 321.869 109.99V111.978C321.869 113.213 323.738 113.301 323.818 112.018V110.03ZM323.818 117.824C323.818 116.589 321.95 116.501 321.869 117.784V119.773C321.869 121.008 323.738 121.096 323.818 119.813V117.816V117.824ZM323.818 125.619C323.818 124.384 321.95 124.296 321.869 125.579V127.567C321.869 128.802 323.738 128.89 323.818 127.615V125.619ZM324.66 132.82C324.564 132.627 324.403 132.483 324.219 132.387C323.361 131.994 322.511 132.876 322.928 133.71C323.257 134.351 323.65 134.961 324.107 135.514C324.444 135.923 325.037 135.979 325.454 135.659C325.895 135.322 325.959 134.688 325.606 134.271C325.237 133.83 324.917 133.333 324.66 132.82Z" fill="white"/>
<path fill-rule="evenodd" clip-rule="evenodd" d="M72.5084 86.1569H113.991C117.904 86.1569 121.104 89.3565 121.104 93.2698V143.445C121.104 143.774 120.92 144.055 120.615 144.175C120.31 144.303 119.981 144.239 119.749 144.006L107.632 131.89H72.5084C68.5951 131.89 65.3955 128.69 65.3955 124.777V93.2778C65.3955 89.3645 68.5951 86.1649 72.5084 86.1649V86.1569Z" fill="#BB1F1F"/>
<path fill-rule="evenodd" clip-rule="evenodd" d="M93.2456 92.7485C97.5198 92.7485 101.577 94.4325 104.601 97.4477C107.624 100.471 109.3 104.529 109.3 108.795C109.3 113.061 107.616 117.127 104.601 120.142C101.577 123.165 97.5198 124.841 93.2456 124.841C88.9715 124.841 84.9138 123.157 81.8986 120.142C78.8754 117.118 77.1995 113.061 77.1995 108.795C77.1995 104.529 78.8835 100.463 81.8986 97.4477C84.9218 94.4245 88.9795 92.7485 93.2456 92.7485ZM107.56 109.661H101.008C100.968 111.401 100.792 113.149 100.463 114.865C102.107 115.25 103.783 115.819 105.274 116.621C106.637 114.536 107.415 112.147 107.568 109.661H107.56ZM99.3 109.661H94.1037V114.071C95.6674 114.111 97.2391 114.256 98.7868 114.52C99.0915 112.925 99.2519 111.289 99.3 109.661ZM92.3956 109.661H87.1992C87.2393 111.289 87.3997 112.925 87.7044 114.52C89.2521 114.256 90.8239 114.111 92.3876 114.071V109.661H92.3956ZM85.4912 109.661H78.9396C79.0839 112.147 79.8698 114.536 81.2331 116.621C82.7246 115.819 84.3926 115.25 86.0365 114.865C85.7077 113.157 85.5313 111.401 85.4912 109.661ZM78.9396 107.945H85.4912C85.5233 106.469 85.6596 104.986 85.9002 103.526C84.168 103.109 82.3958 102.492 80.8562 101.594C79.7255 103.534 79.0759 105.707 78.9396 107.945ZM87.5761 103.879C87.3596 105.226 87.2393 106.589 87.2073 107.945H92.4036V104.352C90.7918 104.312 89.1719 104.16 87.5761 103.879ZM98.9392 103.879C97.3514 104.16 95.7315 104.312 94.1197 104.352V107.945H99.3161C99.276 106.581 99.1637 105.218 98.9472 103.879H98.9392ZM101.024 107.945H107.576C107.439 105.699 106.79 103.534 105.659 101.594C104.119 102.492 102.339 103.109 100.615 103.526C100.856 104.986 100.984 106.469 101.024 107.945ZM94.1197 94.617V102.636C95.6273 102.596 97.1349 102.452 98.6184 102.195C98.3217 100.904 97.9207 99.6129 97.3754 98.41C96.766 97.0708 95.6433 95.1703 94.1197 94.617ZM94.1197 115.779V122.98C95.6433 122.427 96.766 120.527 97.3754 119.187C97.8165 118.225 98.1533 117.207 98.4259 116.188C97.0066 115.948 95.5631 115.819 94.1197 115.779ZM92.4036 122.98V115.779C90.9602 115.819 89.5168 115.948 88.0974 116.188C88.362 117.215 88.7068 118.233 89.1479 119.187C89.7573 120.527 90.88 122.427 92.4036 122.98ZM92.4036 102.636V94.617C90.88 95.1703 89.7573 97.0708 89.1479 98.41C88.6026 99.6129 88.2016 100.904 87.9049 102.195C89.3885 102.46 90.896 102.596 92.4036 102.636ZM81.8104 100.158C83.1656 100.928 84.7214 101.465 86.2289 101.834C86.5497 100.423 86.9908 99.0114 87.5922 97.6963C88.0092 96.7821 88.5304 95.8519 89.18 95.05C86.9025 95.7236 84.8176 96.9666 83.1256 98.6586C82.6524 99.1317 82.2194 99.6289 81.8184 100.158H81.8104ZM100.286 101.834C101.794 101.465 103.35 100.928 104.705 100.158C104.304 99.6289 103.871 99.1237 103.398 98.6586C101.706 96.9666 99.6208 95.7236 97.3434 95.05C97.9929 95.8599 98.5142 96.7821 98.9311 97.6963C99.5326 99.0114 99.9736 100.423 100.286 101.834ZM104.248 118.001C102.949 117.327 101.513 116.854 100.094 116.525C99.7972 117.68 99.4123 118.811 98.9231 119.893C98.5061 120.807 97.9849 121.737 97.3353 122.539C99.6128 121.866 101.698 120.623 103.39 118.931C103.686 118.634 103.975 118.321 104.24 118.001H104.248ZM86.4134 116.525C85.002 116.854 83.5586 117.335 82.2595 118.001C82.5321 118.321 82.8128 118.634 83.1095 118.931C84.8015 120.623 86.8865 121.866 89.1639 122.539C88.5144 121.729 87.9931 120.799 87.5761 119.893C87.087 118.811 86.7021 117.672 86.4054 116.525H86.4134Z" fill="white"/>
<path fill-rule="evenodd" clip-rule="evenodd" d="M480.03 247.268C478.779 246.017 477.055 245.247 475.154 245.247C473.254 245.247 471.529 246.017 470.278 247.268C469.035 248.519 468.258 250.243 468.258 252.144C468.258 254.044 469.027 255.768 470.278 257.019C471.529 258.27 473.254 259.04 475.154 259.04C477.055 259.04 478.779 258.27 480.03 257.019C481.273 255.768 482.05 254.044 482.05 252.144C482.05 250.243 481.281 248.519 480.03 247.268ZM478.538 240.436C479.492 240.708 480.398 241.101 481.24 241.59C482.107 242.088 482.9 242.689 483.614 243.379C483.75 243.515 483.959 243.531 484.119 243.443L487.327 241.59H487.343C487.527 241.478 487.736 241.462 487.928 241.518C488.129 241.566 488.305 241.695 488.41 241.887L488.426 241.911L490.679 245.817C490.783 246.009 490.807 246.225 490.751 246.418C490.695 246.61 490.575 246.787 490.382 246.899L490.358 246.915L487.183 248.751C487.014 248.848 486.942 249.04 486.982 249.217C487.102 249.69 487.191 250.179 487.247 250.676C487.303 251.165 487.335 251.654 487.335 252.16C487.335 252.665 487.303 253.162 487.247 253.643C487.183 254.14 487.094 254.629 486.982 255.103C486.934 255.303 487.03 255.496 487.207 255.584L490.382 257.42C490.567 257.532 490.695 257.709 490.751 257.901C490.807 258.102 490.783 258.318 490.679 258.503L488.41 262.432C488.297 262.616 488.121 262.745 487.928 262.801C487.728 262.857 487.511 262.833 487.327 262.721L487.303 262.705L484.119 260.868C483.951 260.772 483.75 260.804 483.614 260.932C482.9 261.622 482.107 262.224 481.24 262.721C480.398 263.21 479.484 263.603 478.522 263.875C478.338 263.932 478.217 264.1 478.217 264.284V267.981C478.217 268.198 478.129 268.398 477.985 268.543C477.84 268.687 477.64 268.775 477.423 268.775H472.893C472.676 268.775 472.476 268.687 472.331 268.543C472.187 268.398 472.099 268.198 472.099 267.981V264.284C472.099 264.084 471.962 263.916 471.77 263.875C470.816 263.603 469.91 263.21 469.068 262.721C468.201 262.224 467.408 261.622 466.694 260.932C466.55 260.796 466.325 260.78 466.165 260.884L462.981 262.721C462.797 262.833 462.572 262.849 462.38 262.801C462.179 262.745 462.003 262.624 461.898 262.432L461.882 262.408L459.629 258.503C459.517 258.318 459.501 258.102 459.549 257.901C459.597 257.701 459.725 257.524 459.918 257.42L463.117 255.576C463.286 255.479 463.358 255.287 463.318 255.111C463.198 254.637 463.109 254.148 463.053 253.651C462.997 253.17 462.965 252.673 462.965 252.168C462.965 251.662 462.997 251.165 463.053 250.684C463.117 250.187 463.206 249.698 463.318 249.225C463.366 249.032 463.27 248.832 463.093 248.743L459.918 246.907C459.733 246.803 459.605 246.626 459.549 246.426C459.493 246.225 459.517 246.009 459.629 245.825V245.8L461.898 241.895C462.011 241.711 462.187 241.582 462.38 241.526C462.572 241.47 462.797 241.494 462.981 241.598L466.189 243.451C466.357 243.547 466.574 243.515 466.702 243.379C467.416 242.697 468.201 242.096 469.068 241.598C469.91 241.109 470.824 240.716 471.786 240.444C471.97 240.388 472.091 240.219 472.091 240.035V236.338C472.091 236.121 472.179 235.921 472.323 235.777C472.468 235.632 472.668 235.544 472.885 235.544H477.415C477.632 235.544 477.832 235.632 477.977 235.777C478.121 235.921 478.209 236.121 478.209 236.338V240.035C478.209 240.235 478.346 240.404 478.538 240.444V240.436Z" fill="#BB1F1F"/>
<path fill-rule="evenodd" clip-rule="evenodd" d="M471.024 211.8C484.28 211.8 495.097 200.99 495.097 187.734C495.097 174.479 484.288 163.669 471.024 163.669C457.761 163.669 446.959 174.479 446.959 187.734C446.959 200.99 457.769 211.8 471.024 211.8Z" fill="white"/>
<path fill-rule="evenodd" clip-rule="evenodd" d="M471.024 193.997C472.099 193.997 473.117 194.422 473.871 195.176C474.633 195.93 475.05 196.956 475.05 198.023C475.05 199.089 474.625 200.116 473.871 200.87C473.117 201.631 472.099 202.048 471.024 202.048C469.95 202.048 468.931 201.623 468.177 200.87C467.424 200.108 466.999 199.089 466.999 198.023C466.999 196.956 467.424 195.93 468.177 195.176C468.931 194.422 469.958 193.997 471.024 193.997ZM455.644 183.645C454.97 184.358 453.847 184.398 453.126 183.733C452.404 183.067 452.364 181.937 453.037 181.215C455.339 178.745 458.137 176.772 461.233 175.433C464.328 174.086 467.656 173.404 471.024 173.404C474.392 173.404 477.72 174.094 480.815 175.433C483.911 176.78 486.701 178.753 489.011 181.215C489.685 181.937 489.644 183.059 488.923 183.733C488.201 184.398 487.078 184.358 486.405 183.645C484.432 181.536 482.05 179.844 479.404 178.697C476.758 177.55 473.911 176.965 471.024 176.965C468.137 176.965 465.291 177.542 462.644 178.697C459.998 179.844 457.616 181.536 455.644 183.645ZM460.327 188.015C461.698 186.548 463.358 185.377 465.194 184.575C467.039 183.773 469.019 183.372 471.024 183.372C473.029 183.372 475.01 183.773 476.854 184.575C478.698 185.377 480.358 186.548 481.722 188.015C482.395 188.729 483.518 188.777 484.24 188.103C484.961 187.43 485.001 186.307 484.328 185.585C482.628 183.765 480.559 182.305 478.265 181.311C475.98 180.317 473.518 179.804 471.024 179.804C468.53 179.804 466.068 180.309 463.783 181.311C461.489 182.305 459.429 183.765 457.72 185.585C457.047 186.307 457.087 187.43 457.809 188.103C458.53 188.769 459.653 188.729 460.327 188.015ZM465.691 193.027C465.026 193.749 463.895 193.789 463.174 193.115C462.452 192.45 462.412 191.319 463.085 190.597C464.104 189.507 465.339 188.641 466.702 188.047C468.073 187.454 469.541 187.149 471.024 187.149C472.508 187.149 473.983 187.454 475.346 188.047C476.718 188.641 477.953 189.507 478.963 190.597C479.629 191.319 479.589 192.442 478.875 193.115C478.153 193.789 477.03 193.741 476.357 193.027C475.675 192.297 474.849 191.712 473.927 191.311C473.005 190.91 472.019 190.709 471.016 190.709C470.014 190.709 469.027 190.91 468.105 191.311C467.183 191.712 466.365 192.297 465.675 193.027H465.691Z" fill="#BB1F1F"/>
<path fill-rule="evenodd" clip-rule="evenodd" d="M88.6829 27.4733C87.5282 26.3186 86.1409 25.3884 84.6012 24.7468C83.1177 24.1294 81.4978 23.7926 79.7978 23.7926C78.0977 23.7926 76.4779 24.1294 74.9944 24.7468C73.4547 25.3884 72.0674 26.3186 70.9126 27.4733C69.7579 28.6281 68.8197 30.0154 68.1862 31.555C67.5687 33.0385 67.2319 34.6584 67.2319 36.3584C67.2319 38.0585 67.5687 39.6783 68.1862 41.1619C68.8197 42.7015 69.7579 44.0888 70.9126 45.2436C72.0674 46.3983 73.4547 47.3365 74.9944 47.9701C76.4779 48.5875 78.0977 48.9243 79.7978 48.9243C81.4978 48.9243 83.1177 48.5875 84.6012 47.9701C86.1409 47.3285 87.5282 46.3983 88.6829 45.2436C89.8376 44.0888 90.7759 42.7015 91.4094 41.1619C92.0269 39.6783 92.3637 38.0585 92.3637 36.3584C92.3637 34.6584 92.0269 33.0385 91.4094 31.555C90.7759 30.0154 89.8376 28.6281 88.6829 27.4733ZM84.1601 25.8214C85.5474 26.3988 86.8064 27.2488 87.8569 28.2993C88.9074 29.3498 89.7575 30.6088 90.3348 31.9961C90.8881 33.3353 91.1929 34.8108 91.1929 36.3584C91.1929 37.9061 90.8881 39.3816 90.3348 40.7208C89.7575 42.1161 88.9074 43.3671 87.8569 44.4176C86.8064 45.4681 85.5474 46.3181 84.1601 46.8955C82.821 47.4488 81.3455 47.7616 79.7978 47.7616C78.2501 47.7616 76.7746 47.4568 75.4354 46.8955C74.0401 46.3181 72.7891 45.4681 71.7306 44.4176C70.6801 43.3671 69.8301 42.1081 69.2527 40.7208C68.6994 39.3816 68.3947 37.9061 68.3947 36.3584C68.3947 34.8108 68.6994 33.3353 69.2527 31.9961C69.8301 30.6088 70.6801 29.3498 71.7306 28.2993C72.7811 27.2488 74.0401 26.3988 75.4274 25.8214C76.7666 25.2681 78.2421 24.9633 79.7898 24.9633C81.3374 24.9633 82.8129 25.2681 84.1521 25.8214H84.1601ZM85.5474 16.5754C86.3333 16.8079 87.1112 17.0806 87.865 17.4014C88.6348 17.7301 89.3725 18.099 90.0862 18.508C90.808 18.925 91.5136 19.3901 92.1872 19.8953C92.8608 20.4005 93.5024 20.9458 94.1038 21.5312C94.3203 21.7397 94.5849 21.86 94.8576 21.892C95.1383 21.9241 95.4269 21.868 95.6755 21.7236C97.5199 20.6571 99.4605 19.6066 101.273 18.492C101.361 18.4438 101.449 18.4198 101.545 18.4118C101.65 18.3957 101.754 18.4118 101.85 18.4358C101.954 18.4679 102.051 18.508 102.131 18.5721C102.211 18.6363 102.283 18.7085 102.331 18.8047C103.679 20.8415 105.026 23.4718 106.277 25.6289C106.333 25.7171 106.365 25.8214 106.373 25.9176C106.389 26.0219 106.373 26.1341 106.349 26.2384C106.325 26.3426 106.277 26.4388 106.213 26.519C106.148 26.5992 106.076 26.6714 105.98 26.7195C104.32 27.8181 102.179 28.9167 100.423 29.9271C100.166 30.0715 99.9738 30.296 99.8695 30.5526C99.8294 30.6408 99.8054 30.729 99.7893 30.8253L99.677 30.8654L99.8054 31.3866C99.9016 31.7956 99.9898 32.2046 100.07 32.6055C100.142 32.9984 100.206 33.4154 100.254 33.8485C100.303 34.2655 100.343 34.6905 100.367 35.0994C100.391 35.5004 100.407 35.9254 100.407 36.3665C100.407 36.8075 100.391 37.2245 100.367 37.6335C100.343 38.0424 100.303 38.4594 100.254 38.8844C100.198 39.3175 100.142 39.7264 100.07 40.1194C99.9978 40.5284 99.9096 40.9373 99.8054 41.3463C99.7332 41.651 99.7653 41.9477 99.8855 42.2124C100.006 42.477 100.214 42.6935 100.479 42.8298L105.403 45.6686L105.988 46.0054C106.084 46.0615 106.156 46.1257 106.221 46.2059C106.285 46.286 106.333 46.3823 106.357 46.4865C106.381 46.5908 106.397 46.703 106.381 46.8073C106.365 46.9035 106.333 47.0078 106.285 47.096L102.644 53.415L102.347 53.9202C102.291 54.0164 102.227 54.0886 102.147 54.1528C102.067 54.2169 101.971 54.265 101.866 54.2891C101.762 54.3212 101.658 54.3212 101.554 54.3131C101.457 54.2971 101.361 54.265 101.265 54.2169C99.5006 53.1103 97.5119 52.0518 95.6916 51.0013C95.435 50.8489 95.1463 50.8008 94.8816 50.8329C94.601 50.8649 94.3363 50.9932 94.1278 51.1857C93.5264 51.7711 92.8849 52.3164 92.2113 52.8216C91.5457 53.3268 90.84 53.7919 90.1183 54.2089C89.4046 54.6259 88.6508 54.9948 87.881 55.3235C87.1272 55.6443 86.3333 55.925 85.5234 56.1575C85.2347 56.2377 85.0022 56.4141 84.8338 56.6306C84.6654 56.8552 84.5691 57.1358 84.5691 57.4245V63.8478C84.5691 63.9521 84.5451 64.0563 84.505 64.1525C84.4649 64.2488 84.4007 64.337 84.3286 64.4091C84.2564 64.4813 84.1682 64.5455 84.0719 64.5856C83.9757 64.6257 83.8795 64.6417 83.7672 64.6417H75.8845C75.7802 64.6417 75.676 64.6176 75.5797 64.5856C75.4835 64.5455 75.3953 64.4813 75.3231 64.4091C75.251 64.329 75.1868 64.2407 75.1467 64.1445C75.1066 64.0563 75.0826 63.9521 75.0826 63.8398V57.4165C75.0826 57.1118 74.9783 56.8311 74.7939 56.5986C74.6094 56.366 74.3528 56.1976 74.0641 56.1335C73.2783 55.9089 72.5004 55.6283 71.7466 55.3075C70.9768 54.9787 70.239 54.6098 69.5253 54.1928C68.8036 53.7759 68.0979 53.3108 67.4324 52.8056C66.7588 52.3004 66.1172 51.7551 65.5158 51.1697C65.2913 50.9531 65.0106 50.8329 64.7219 50.8088C64.4252 50.7767 64.1285 50.8569 63.8799 51.0173L58.3788 54.1928C58.2906 54.249 58.1864 54.2811 58.0902 54.2891C57.9859 54.2971 57.8817 54.2891 57.7694 54.265C57.6651 54.241 57.5689 54.1929 57.4887 54.1287C57.4085 54.0645 57.3364 53.9924 57.2883 53.8961C55.9811 51.6187 54.658 49.3493 53.3429 47.0719C53.2867 46.9837 53.2547 46.8795 53.2466 46.7832C53.2306 46.679 53.2466 46.5747 53.2707 46.4705C53.3028 46.3662 53.3429 46.27 53.407 46.1898C53.4712 46.1096 53.5433 46.0375 53.6316 45.9893L59.1968 42.7737C59.4534 42.6294 59.6459 42.4048 59.7501 42.1482C59.7822 42.0841 59.8062 42.0119 59.8223 41.9397L59.9666 41.9076L59.8223 41.3142C59.718 40.9053 59.6298 40.4963 59.5576 40.0953C59.4855 39.7024 59.4213 39.2854 59.3652 38.8524C59.3171 38.4274 59.277 38.0104 59.2529 37.6014C59.2289 37.2004 59.2128 36.7754 59.2128 36.3344C59.2128 35.8933 59.2289 35.4763 59.2529 35.0754C59.277 34.6664 59.3171 34.2414 59.3652 33.8244C59.4213 33.3914 59.4855 32.9744 59.5576 32.5815C59.6298 32.1725 59.718 31.7715 59.8223 31.3626C59.8944 31.0578 59.8624 30.7531 59.7421 30.4965C59.6218 30.2319 59.4133 30.0154 59.1487 29.879L53.6396 26.6955C53.5514 26.6473 53.4712 26.5752 53.407 26.495C53.3429 26.4148 53.3028 26.3186 53.2707 26.2143C53.2466 26.1101 53.2386 26.0058 53.2466 25.9016C53.2627 25.7973 53.2947 25.7011 53.3429 25.6129C54.6901 23.6081 56.0373 20.9378 57.2883 18.7887C57.3444 18.6924 57.4085 18.6203 57.4887 18.5561C57.5689 18.492 57.6651 18.4438 57.7694 18.4198C57.8736 18.3957 57.9859 18.3877 58.0902 18.3957C58.1864 18.4037 58.2826 18.4438 58.3788 18.492L63.9441 21.7076C64.2007 21.86 64.4974 21.9161 64.7781 21.876C65.0587 21.8359 65.3234 21.7076 65.5319 21.5071C66.1333 20.9217 66.7748 20.3764 67.4404 19.8793C68.106 19.3821 68.7956 18.917 69.5253 18.5C70.2471 18.083 70.9928 17.7141 71.7627 17.3853C72.5245 17.0646 73.3103 16.7839 74.1203 16.5513C74.409 16.4711 74.6415 16.3027 74.8099 16.0782C74.9783 15.8537 75.0745 15.573 75.0745 15.2843V8.86907C75.0745 8.76482 75.0986 8.66057 75.1387 8.56434C75.1788 8.46811 75.2429 8.3799 75.3151 8.30773C75.3873 8.23556 75.4755 8.17141 75.5717 8.13131C75.668 8.09122 75.7642 8.07518 75.8765 8.07518H83.7592C83.8715 8.07518 83.9677 8.09122 84.0639 8.13131C84.1601 8.17141 84.2484 8.23556 84.3205 8.30773C84.4649 8.45208 84.5531 8.65255 84.5531 8.86907V15.2923C84.5531 15.5971 84.6573 15.8858 84.8338 16.1103C85.0182 16.3428 85.2748 16.5112 85.5635 16.5754H85.5474ZM88.322 16.3348C89.132 16.6796 89.9178 17.0726 90.6716 17.5056C91.4415 17.9547 92.1792 18.4438 92.8849 18.9731C93.5906 19.5024 94.2642 20.0797 94.9057 20.6972C94.9298 20.7213 94.9618 20.7373 94.9939 20.7373C95.026 20.7373 95.0661 20.7373 95.0901 20.7213C96.9586 19.6387 98.835 18.5641 100.703 17.4735C100.928 17.3532 101.169 17.2811 101.409 17.257C101.658 17.2249 101.906 17.249 102.147 17.3131C102.387 17.3773 102.628 17.4896 102.837 17.6499C103.037 17.8023 103.205 17.9948 103.342 18.2193C104.697 20.4165 105.988 22.7982 107.287 25.0435C107.415 25.2761 107.496 25.5167 107.528 25.7733C107.56 26.0299 107.544 26.2945 107.48 26.5351C107.415 26.7837 107.303 27.0162 107.143 27.2247C106.99 27.4252 106.798 27.5936 106.573 27.7299C104.785 28.8366 102.845 29.887 101.008 30.9456C100.976 30.9616 100.96 30.9857 100.944 31.0177C100.928 31.0498 100.928 31.0819 100.944 31.114L101.072 31.6352C101.128 31.8918 101.177 32.1484 101.225 32.405C101.305 32.8461 101.369 33.2871 101.425 33.7202C101.473 34.1452 101.513 34.5862 101.545 35.0353C101.57 35.4924 101.586 35.9334 101.586 36.3665C101.586 36.7995 101.57 37.2405 101.545 37.6976C101.521 38.1467 101.481 38.5877 101.425 39.0208C101.369 39.4538 101.305 39.8868 101.225 40.3359C101.145 40.7769 101.048 41.21 100.944 41.627C100.936 41.659 100.944 41.6991 100.952 41.7312C100.968 41.7633 100.992 41.7954 101.024 41.8034C103.069 42.894 105.146 44.177 107.167 45.3478L107.095 45.436L107.159 45.5162C107.319 45.7247 107.431 45.9573 107.496 46.2059C107.56 46.4464 107.576 46.7111 107.544 46.9677C107.512 47.2163 107.431 47.4649 107.303 47.6894L103.069 55.0268L102.989 54.9787C102.949 55.0188 102.901 55.0509 102.861 55.091C102.652 55.2514 102.42 55.3636 102.171 55.4278C101.93 55.4919 101.666 55.508 101.409 55.4759C101.169 55.4438 100.928 55.3717 100.703 55.2434C98.8511 54.257 96.9425 53.0702 95.1142 52.0117C95.0901 51.9956 95.0581 51.9956 95.018 51.9956C94.9859 51.9956 94.9538 52.0117 94.9298 52.0357C94.2962 52.6532 93.6146 53.2225 92.909 53.7598C92.2033 54.2891 91.4655 54.7782 90.6957 55.2273C89.9339 55.6684 89.14 56.0613 88.3301 56.4061C87.5201 56.7509 86.6862 57.0476 85.8361 57.2882C85.8041 57.2962 85.772 57.3203 85.7559 57.3443C85.7319 57.3764 85.7239 57.4085 85.7239 57.4406V63.8638C85.7239 64.1285 85.6677 64.3771 85.5715 64.6096C85.4753 64.8502 85.3229 65.0667 85.1465 65.2431C84.9701 65.4195 84.7455 65.5719 84.513 65.6681C84.2804 65.7644 84.0318 65.8205 83.7672 65.8205H75.8845C75.6198 65.8205 75.3712 65.7644 75.1387 65.6681C74.8981 65.5719 74.6816 65.4195 74.5052 65.2431C74.3288 65.0667 74.1764 64.8502 74.0802 64.6096C73.9839 64.3771 73.9278 64.1285 73.9278 63.8638V57.4406C73.9278 57.4406 73.9198 57.3684 73.8957 57.3443C73.8797 57.3203 73.8476 57.2962 73.8075 57.2882H73.7835C72.9254 57.0316 72.0995 56.7349 71.3056 56.3981C70.4957 56.0533 69.7098 55.6603 68.956 55.2273C68.1862 54.7782 67.4484 54.2891 66.7427 53.7598C66.0371 53.2306 65.3635 52.6532 64.7219 52.0357C64.6979 52.0117 64.6658 51.9956 64.6337 51.9956C64.6016 51.9956 64.5615 51.9956 64.5295 52.0197L58.9642 55.2273C58.7317 55.3556 58.4911 55.4358 58.2425 55.4679C57.9859 55.5 57.7213 55.4839 57.4807 55.4198C57.2401 55.3556 56.9996 55.2433 56.7911 55.083C56.5986 54.9386 56.4302 54.7462 56.2939 54.5297C54.8344 52.1801 53.4551 49.6059 52.0598 47.1922L52.132 47.1441C52.116 47.0799 52.1079 47.0238 52.0999 46.9596C52.0678 46.703 52.0839 46.4464 52.148 46.1978C52.2122 45.9573 52.3244 45.7167 52.4848 45.5082C52.6372 45.3077 52.8296 45.1393 53.0542 45.003L58.6194 41.7873C58.6194 41.7873 58.6675 41.7473 58.6836 41.7152C58.6996 41.6831 58.6996 41.651 58.6916 41.6189L58.5472 41.0336H58.5553C58.5071 40.801 58.459 40.5685 58.4109 40.3359C58.3307 39.8948 58.2666 39.4538 58.2104 39.0208C58.1623 38.5958 58.1222 38.1547 58.0902 37.6976C58.0661 37.2405 58.0501 36.7995 58.0501 36.3665C58.0501 35.9334 58.0661 35.4924 58.0902 35.0353C58.1142 34.5862 58.1543 34.1452 58.2104 33.7121C58.2666 33.2871 58.3307 32.8461 58.4109 32.397C58.4911 31.956 58.5873 31.5229 58.6916 31.1059C58.6996 31.0739 58.6916 31.0338 58.6836 31.0017C58.6675 30.9696 58.6435 30.9456 58.6114 30.9295L53.0542 27.7219C52.8216 27.5936 52.6292 27.4172 52.4848 27.2167C52.3244 27.0082 52.2122 26.7757 52.148 26.5271C52.0839 26.2865 52.0678 26.0219 52.0999 25.7652C52.132 25.5247 52.2122 25.2841 52.3325 25.0596C53.6556 22.6057 55.1712 20.1359 56.5746 17.7061L56.6547 17.7542C56.6948 17.7141 56.7429 17.682 56.783 17.6499C56.9915 17.4896 57.2241 17.3773 57.4727 17.3131C57.7213 17.249 57.9779 17.2249 58.2345 17.265C58.4831 17.2971 58.7317 17.3773 58.9562 17.5056L59.3652 17.7462L64.5295 20.7293C64.5615 20.7453 64.5936 20.7533 64.6257 20.7453C64.6578 20.7453 64.6898 20.7213 64.7139 20.7052L64.7299 20.6892C65.3635 20.0797 66.0371 19.5104 66.7427 18.9731C67.4484 18.4438 68.1862 17.9547 68.94 17.5136C69.7018 17.0726 70.4957 16.6796 71.3056 16.3348C72.1155 15.99 72.9495 15.6933 73.7995 15.4527C73.8316 15.4447 73.8637 15.4206 73.8797 15.3966C73.9038 15.3645 73.9118 15.3324 73.9118 15.3004V8.86907C73.9118 8.60444 73.9679 8.35585 74.0641 8.12329C74.1604 7.88272 74.3127 7.66621 74.4892 7.48979C74.6736 7.31337 74.8901 7.16101 75.1227 7.06478C75.3552 6.96855 75.6038 6.91241 75.8684 6.91241H83.7512C84.0158 6.91241 84.2644 6.96855 84.497 7.06478C84.7375 7.16101 84.954 7.31337 85.1385 7.48979C85.4913 7.84263 85.7158 8.33179 85.7158 8.87709V15.3004C85.7158 15.3004 85.7319 15.3725 85.7479 15.3966C85.764 15.4206 85.796 15.4447 85.8361 15.4527H85.8602C86.7182 15.7093 87.5442 16.006 88.3381 16.3428L88.322 16.3348Z" fill="#BB1F1F"/>
<path fill-rule="evenodd" clip-rule="evenodd" d="M302.375 93.4622C303.963 93.4622 305.262 92.1631 305.262 90.5753C305.262 88.9876 303.963 87.6885 302.375 87.6885C300.787 87.6885 299.488 88.9876 299.488 90.5753C299.488 92.1631 300.787 93.4622 302.375 93.4622Z" fill="#F99393"/>
<path fill-rule="evenodd" clip-rule="evenodd" d="M38.4193 208.135C37.1683 206.884 35.4442 206.114 33.5437 206.114C31.6432 206.114 29.919 206.884 28.6681 208.135C27.4171 209.386 26.6473 211.11 26.6473 213.01C26.6473 214.911 27.4171 216.635 28.6681 217.886C29.911 219.137 31.6351 219.907 33.5437 219.907C35.4522 219.907 37.1683 219.137 38.4193 217.886C39.6622 216.643 40.4401 214.911 40.4401 213.01C40.4401 211.11 39.6702 209.386 38.4193 208.135ZM36.9277 201.303C37.882 201.575 38.7881 201.968 39.6301 202.449C40.4962 202.947 41.2901 203.548 42.0038 204.238C42.1401 204.374 42.3486 204.39 42.509 204.302L45.7166 202.449H45.7327C45.9171 202.337 46.1256 202.321 46.318 202.369C46.5185 202.425 46.6949 202.546 46.7992 202.738L46.8152 202.762L49.0686 206.667C49.1728 206.852 49.1969 207.076 49.1488 207.269C49.0926 207.469 48.9724 207.646 48.7799 207.75L48.7558 207.766L45.5803 209.602C45.4119 209.699 45.3397 209.891 45.3798 210.067C45.5001 210.541 45.5883 211.03 45.6525 211.527C45.7086 212.008 45.7407 212.505 45.7407 213.01C45.7407 213.516 45.7086 214.013 45.6525 214.494C45.5883 214.991 45.5001 215.48 45.3798 215.953C45.3317 216.146 45.4279 216.346 45.6043 216.435L48.7799 218.271C48.9724 218.383 49.1007 218.56 49.1488 218.752C49.1969 218.953 49.1809 219.169 49.0686 219.354L46.7992 223.283C46.6949 223.475 46.5185 223.596 46.318 223.652C46.1176 223.708 45.9011 223.684 45.7166 223.572H45.6926L42.509 221.719C42.3406 221.623 42.1401 221.655 42.0038 221.783C41.2901 222.473 40.4962 223.074 39.6301 223.572C38.7881 224.061 37.874 224.454 36.9117 224.726C36.7272 224.782 36.607 224.951 36.607 225.135V228.832C36.607 229.049 36.5187 229.249 36.3744 229.393C36.2301 229.538 36.0296 229.626 35.8131 229.626H31.2823C31.0658 229.626 30.8653 229.538 30.721 229.393C30.5766 229.249 30.4884 229.057 30.4884 228.832V225.135C30.4884 224.935 30.3521 224.766 30.1596 224.726C29.2054 224.454 28.2992 224.061 27.4572 223.58C26.5992 223.082 25.7972 222.481 25.0835 221.791C24.9392 221.655 24.7147 221.639 24.5543 221.743L21.3707 223.58C21.1863 223.692 20.9698 223.708 20.7693 223.66C20.5688 223.604 20.3924 223.483 20.2881 223.291L20.2721 223.267L18.0187 219.362C17.9065 219.177 17.8904 218.961 17.9386 218.76C17.9947 218.56 18.115 218.383 18.3074 218.279L21.507 216.427C21.6754 216.33 21.7476 216.138 21.7075 215.962C21.5953 215.488 21.499 214.999 21.4429 214.502C21.3868 214.021 21.3547 213.524 21.3547 213.018C21.3547 212.513 21.3868 212.016 21.4429 211.535C21.499 211.038 21.5953 210.549 21.7075 210.084C21.7556 209.883 21.6594 209.691 21.483 209.602L18.3074 207.766C18.123 207.662 17.9947 207.477 17.9386 207.285C17.8824 207.084 17.9065 206.868 18.0187 206.683L18.0348 206.659L20.2881 202.754C20.4004 202.562 20.5768 202.441 20.7693 202.385C20.9698 202.329 21.1863 202.353 21.3707 202.465L24.5703 204.318C24.7387 204.414 24.9552 204.382 25.0835 204.246C25.7972 203.564 26.5831 202.963 27.4492 202.465C28.2912 201.976 29.2053 201.583 30.1676 201.311C30.3521 201.255 30.4724 201.086 30.4724 200.902V197.205C30.4724 196.988 30.5606 196.788 30.7049 196.644C30.8493 196.499 31.0497 196.411 31.2663 196.411H35.797C36.0135 196.411 36.214 196.499 36.3584 196.644C36.5027 196.788 36.5909 196.988 36.5909 197.205V200.902C36.5909 201.102 36.7272 201.271 36.9197 201.311L36.9277 201.303Z" fill="#BB1F1F"/>
<path d="M159.178 46.5746H162.506C163.308 46.5746 163.966 47.2242 163.966 48.0341V51.37C163.966 52.172 163.316 52.8295 162.506 52.8295H159.17C158.369 52.8295 157.711 52.18 157.711 51.37V48.0341C157.711 47.2322 158.369 46.5746 159.17 46.5746H159.178Z" fill="#BB1F1F"/>
<path d="M170.742 46.5746H174.078C174.88 46.5746 175.537 47.2242 175.537 48.0341V51.37C175.537 52.172 174.888 52.8295 174.078 52.8295H170.742C169.94 52.8295 169.282 52.18 169.282 51.37V48.0341C169.282 47.2322 169.932 46.5746 170.742 46.5746Z" fill="#F99393"/>
<path d="M182.305 46.5746H185.633C186.435 46.5746 187.093 47.2322 187.093 48.0341V51.37C187.093 52.172 186.443 52.8295 185.633 52.8295H182.297C181.495 52.8295 180.838 52.18 180.838 51.37V48.0341C180.838 47.2322 181.495 46.5746 182.297 46.5746H182.305Z" fill="#BB1F1F"/>
<path d="M193.869 46.5746H197.197C197.999 46.5746 198.656 47.2322 198.656 48.0341V51.37C198.656 52.172 198.007 52.8295 197.197 52.8295H193.861C193.059 52.8295 192.401 52.18 192.401 51.37V48.0341C192.401 47.2322 193.059 46.5746 193.861 46.5746H193.869Z" fill="#F99393"/>
<path d="M205.432 46.5746H208.76C209.562 46.5746 210.22 47.2322 210.22 48.0341V51.37C210.22 52.172 209.57 52.8295 208.76 52.8295H205.424C204.622 52.8295 203.965 52.18 203.965 51.37V48.0341C203.965 47.2322 204.622 46.5746 205.424 46.5746H205.432Z" fill="#BB1F1F"/>
<path d="M186.05 33.9687H182.722C181.916 33.9687 181.263 34.6221 181.263 35.4282V38.7561C181.263 39.5621 181.916 40.2155 182.722 40.2155H186.05C186.856 40.2155 187.51 39.5621 187.51 38.7561V35.4282C187.51 34.6221 186.856 33.9687 186.05 33.9687Z" fill="#F99393"/>
<path d="M197.614 33.9687H194.286C193.48 33.9687 192.826 34.6221 192.826 35.4282V38.7561C192.826 39.5621 193.48 40.2155 194.286 40.2155H197.614C198.42 40.2155 199.073 39.5621 199.073 38.7561V35.4282C199.073 34.6221 198.42 33.9687 197.614 33.9687Z" fill="#BB1F1F"/>
<path d="M205.849 33.9687H209.185C209.987 33.9687 210.645 34.6263 210.645 35.4282V38.7641C210.645 39.566 209.995 40.2236 209.185 40.2236H205.849C205.047 40.2236 204.39 39.574 204.39 38.7641V35.4282C204.39 34.6263 205.039 33.9687 205.849 33.9687Z" fill="#F99393"/>
<path fill-rule="evenodd" clip-rule="evenodd" d="M453.109 42.8378C453.109 42.4128 453.454 42.068 453.879 42.068C454.304 42.068 454.649 42.4128 454.649 42.8378V46.3021C454.649 46.7271 454.304 47.0719 453.879 47.0719C453.454 47.0719 453.109 46.7271 453.109 46.3021V42.8378ZM447.865 45.6525C447.56 45.3478 447.56 44.8666 447.865 44.5619C448.17 44.2572 448.651 44.2572 448.956 44.5619L451.401 47.0077C451.698 47.3125 451.698 47.7936 451.401 48.0983C451.105 48.4031 450.616 48.4031 450.311 48.0983L447.865 45.6525ZM446.141 51.3461C445.716 51.3461 445.371 51.0012 445.371 50.5762C445.371 50.1512 445.716 49.8064 446.141 49.8064H449.605C450.03 49.8064 450.375 50.1512 450.375 50.5762C450.375 51.0012 450.03 51.3461 449.605 51.3461H446.141ZM448.948 56.5905C448.651 56.8953 448.162 56.8953 447.857 56.5905C447.552 56.2858 447.552 55.8047 447.857 55.4999L450.303 53.0541C450.599 52.7574 451.089 52.7574 451.393 53.0541C451.69 53.3588 451.69 53.84 451.393 54.1447L448.948 56.5905ZM454.641 58.3146C454.641 58.7396 454.296 59.0845 453.871 59.0845C453.446 59.0845 453.101 58.7396 453.101 58.3146V54.8504C453.101 54.4254 453.446 54.0806 453.871 54.0806C454.296 54.0806 454.641 54.4254 454.641 54.8504V58.3146ZM459.886 55.4999C460.182 55.8047 460.182 56.2858 459.886 56.5905C459.589 56.8953 459.1 56.8953 458.795 56.5905L456.349 54.1447C456.052 53.848 456.052 53.3588 456.349 53.0541C456.646 52.7574 457.135 52.7574 457.44 53.0541L459.886 55.4999ZM461.61 49.8064C462.035 49.8064 462.379 50.1512 462.379 50.5762C462.379 51.0012 462.035 51.3461 461.61 51.3461H458.145C457.72 51.3461 457.376 51.0012 457.376 50.5762C457.376 50.1512 457.72 49.8064 458.145 49.8064H461.61ZM458.795 44.5619C459.092 44.2572 459.581 44.2572 459.886 44.5619C460.19 44.8666 460.182 45.3478 459.886 45.6525L457.44 48.0983C457.143 48.4031 456.654 48.4031 456.349 48.0983C456.044 47.7936 456.052 47.3125 456.349 47.0077L458.795 44.5619Z" fill="#BB1F1F"/>
<path fill-rule="evenodd" clip-rule="evenodd" d="M29.6625 253.186C29.6625 252.761 30.0073 252.416 30.4323 252.416C30.8573 252.416 31.2021 252.761 31.2021 253.186V256.65C31.2021 257.075 30.8573 257.42 30.4323 257.42C30.0073 257.42 29.6625 257.075 29.6625 256.65V253.186ZM24.418 256.001C24.1213 255.696 24.1213 255.215 24.418 254.91C24.7227 254.605 25.2039 254.605 25.5086 254.91L27.9544 257.356C28.2511 257.661 28.2511 258.142 27.9544 258.447C27.6497 258.751 27.1685 258.751 26.8638 258.447L24.418 256.001ZM22.6939 261.694C22.2689 261.694 21.9241 261.349 21.9241 260.924C21.9241 260.499 22.2689 260.155 22.6939 260.155H26.1581C26.5832 260.155 26.928 260.499 26.928 260.924C26.928 261.349 26.5832 261.694 26.1581 261.694H22.6939ZM25.5086 266.939C25.2039 267.243 24.7227 267.243 24.418 266.939C24.1213 266.634 24.1213 266.153 24.418 265.848L26.8638 263.402C27.1685 263.106 27.6497 263.106 27.9544 263.402C28.2511 263.707 28.2511 264.188 27.9544 264.493L25.5086 266.939ZM31.2102 268.663C31.2102 269.088 30.8653 269.433 30.4403 269.433C30.0153 269.433 29.6705 269.088 29.6705 268.663V265.199C29.6705 264.774 30.0153 264.429 30.4403 264.429C30.8653 264.429 31.2102 264.774 31.2102 265.199V268.663ZM36.4546 265.848C36.7513 266.153 36.7513 266.634 36.4546 266.939C36.1499 267.243 35.6688 267.243 35.364 266.939L32.9182 264.493C32.6215 264.196 32.6215 263.707 32.9182 263.402C33.2229 263.106 33.7041 263.106 34.0088 263.402L36.4546 265.848ZM38.1787 260.155C38.6037 260.155 38.9486 260.499 38.9486 260.924C38.9486 261.349 38.6037 261.694 38.1787 261.694H34.7145C34.2895 261.694 33.9447 261.349 33.9447 260.924C33.9447 260.499 34.2895 260.155 34.7145 260.155H38.1787ZM35.364 254.91C35.6688 254.605 36.1499 254.605 36.4546 254.91C36.7513 255.215 36.7513 255.696 36.4546 256.001L34.0088 258.447C33.7041 258.751 33.2229 258.751 32.9182 258.447C32.6215 258.142 32.6215 257.661 32.9182 257.356L35.364 254.91Z" fill="#BB1F1F"/>
<path fill-rule="evenodd" clip-rule="evenodd" d="M93.4059 149.828C94.9937 149.828 96.2928 148.529 96.2928 146.941C96.2928 145.354 94.9937 144.055 93.4059 144.055C91.8181 144.055 90.519 145.354 90.519 146.941C90.519 148.529 91.8181 149.828 93.4059 149.828Z" fill="#F99393"/>
<path fill-rule="evenodd" clip-rule="evenodd" d="M148.393 17.8504C149.981 17.8504 151.28 16.5513 151.28 14.9635C151.28 13.3757 149.981 12.0767 148.393 12.0767C146.805 12.0767 145.506 13.3757 145.506 14.9635C145.506 16.5513 146.805 17.8504 148.393 17.8504Z" fill="#F99393"/>
<path fill-rule="evenodd" clip-rule="evenodd" d="M335.373 20.6009C336.961 20.6009 338.26 19.3019 338.26 17.7141C338.26 16.1263 336.961 14.8272 335.373 14.8272C333.786 14.8272 332.487 16.1263 332.487 17.7141C332.487 19.3019 333.786 20.6009 335.373 20.6009Z" fill="#F99393"/>
<path fill-rule="evenodd" clip-rule="evenodd" d="M457.728 98.9633C459.316 98.9633 460.615 97.6642 460.615 96.0764C460.615 94.4887 459.316 93.1896 457.728 93.1896C456.141 93.1896 454.842 94.4887 454.842 96.0764C454.842 97.6642 456.141 98.9633 457.728 98.9633Z" fill="#F99393"/>
<path fill-rule="evenodd" clip-rule="evenodd" d="M434.361 180.076C435.949 180.076 437.248 178.777 437.248 177.189C437.248 175.602 435.949 174.302 434.361 174.302C432.773 174.302 431.474 175.602 431.474 177.189C431.474 178.777 432.773 180.076 434.361 180.076Z" fill="#F99393"/>
<path fill-rule="evenodd" clip-rule="evenodd" d="M104.031 293.771H327.042V165.586L215.537 100.343L104.031 165.586V293.771Z" fill="#DE9C00"/>
<path fill-rule="evenodd" clip-rule="evenodd" d="M142.322 258.262H288.751C292.48 258.262 295.535 255.207 295.535 251.478V123.189L255.496 81.0006H142.322C138.594 81.0006 135.538 84.0479 135.538 87.7847V251.486C135.538 255.215 138.594 258.27 142.322 258.27V258.262Z" fill="white"/>
<path fill-rule="evenodd" clip-rule="evenodd" d="M142.322 262.063H288.751C292.48 262.063 295.535 259.008 295.535 255.279V183.396L236.306 225.232L215.537 239.906L194.767 225.232L135.538 183.396V255.279C135.538 259.008 138.594 262.063 142.322 262.063Z" fill="#E5E5E6"/>
<path fill-rule="evenodd" clip-rule="evenodd" d="M295.535 129.716V123.189L261.855 87.6965V122.932C261.855 126.661 264.91 129.716 268.639 129.716H295.535Z" fill="#F0F1F1"/>
<path fill-rule="evenodd" clip-rule="evenodd" d="M255.496 81.0006V116.405C255.496 120.134 258.551 123.189 262.28 123.189H295.535L255.496 81.0006Z" fill="#A3C1D5"/>
<path fill-rule="evenodd" clip-rule="evenodd" d="M104.031 165.586L194.767 229.674L104.031 293.771V165.586Z" fill="#FBC900"/>
<path fill-rule="evenodd" clip-rule="evenodd" d="M327.042 165.586L236.306 229.674L327.042 293.771V165.586Z" fill="#FBC900"/>
<path fill-rule="evenodd" clip-rule="evenodd" d="M327.042 293.771L236.306 229.682L215.537 244.349L194.767 229.674L104.031 293.771H327.042Z" fill="#F6AF00"/>
<path fill-rule="evenodd" clip-rule="evenodd" d="M147.19 136.709H283.883C284.605 136.709 285.19 137.295 285.19 138.016C285.19 138.738 284.605 139.323 283.883 139.323H147.19C146.468 139.323 145.883 138.738 145.883 138.016C145.883 137.295 146.468 136.709 147.19 136.709Z" fill="#DBDCDC"/>
<path fill-rule="evenodd" clip-rule="evenodd" d="M147.19 147.88H283.883C284.605 147.88 285.19 148.465 285.19 149.187C285.19 149.908 284.605 150.494 283.883 150.494H147.19C146.468 150.494 145.883 149.908 145.883 149.187C145.883 148.465 146.468 147.88 147.19 147.88Z" fill="#DBDCDC"/>
<path fill-rule="evenodd" clip-rule="evenodd" d="M147.19 159.05H283.883C284.605 159.05 285.19 159.636 285.19 160.357C285.19 161.079 284.605 161.664 283.883 161.664H147.19C146.468 161.664 145.883 161.071 145.883 160.357C145.883 159.636 146.468 159.05 147.19 159.05Z" fill="#DBDCDC"/>
<path fill-rule="evenodd" clip-rule="evenodd" d="M147.19 170.221H283.883C284.605 170.221 285.19 170.806 285.19 171.528C285.19 172.25 284.605 172.835 283.883 172.835H147.19C146.468 172.835 145.883 172.25 145.883 171.528C145.883 170.806 146.468 170.221 147.19 170.221Z" fill="#DBDCDC"/>
<path fill-rule="evenodd" clip-rule="evenodd" d="M147.19 181.391H283.883C284.605 181.391 285.19 181.977 285.19 182.698C285.19 183.42 284.605 184.006 283.883 184.006H147.19C146.468 184.006 145.883 183.42 145.883 182.698C145.883 181.977 146.468 181.391 147.19 181.391Z" fill="#DBDCDC"/>
<path d="M149.275 117.936H218.319C219.041 117.936 219.626 118.522 219.626 119.244C219.626 119.965 219.041 120.551 218.319 120.551H149.267C148.545 120.551 147.96 119.965 147.96 119.244C147.96 118.522 148.545 117.936 149.267 117.936H149.275Z" fill="#DBDCDC"/>
<path d="M225.641 117.936H235.055C235.777 117.936 236.362 118.522 236.362 119.244C236.362 119.965 235.777 120.551 235.055 120.551H225.641C224.919 120.551 224.333 119.965 224.333 119.244C224.333 118.522 224.919 117.936 225.641 117.936Z" fill="#DBDCDC"/>
<path fill-rule="evenodd" clip-rule="evenodd" d="M149.275 109.003H227.597C228.319 109.003 228.904 109.589 228.904 110.31C228.904 111.032 228.311 111.617 227.597 111.617H149.275C148.553 111.617 147.968 111.032 147.968 110.31C147.968 109.589 148.561 109.003 149.275 109.003Z" fill="#DBDCDC"/>
<path fill-rule="evenodd" clip-rule="evenodd" d="M150.069 93.7269H163.79C164.944 93.7269 165.891 94.6731 165.891 95.8279C165.891 96.9906 164.944 97.9289 163.79 97.9289H150.069C148.906 97.9289 147.96 96.9826 147.96 95.8279C147.96 94.6731 148.906 93.7269 150.069 93.7269Z" fill="#DBDCDC"/>
<path fill-rule="evenodd" clip-rule="evenodd" d="M171.825 93.7269H205.489C206.643 93.7269 207.59 94.6731 207.59 95.8279C207.59 96.9906 206.643 97.9289 205.489 97.9289H171.825C170.67 97.9289 169.716 96.9826 169.716 95.8279C169.716 94.6731 170.662 93.7269 171.825 93.7269Z" fill="#DBDCDC"/>
<path fill-rule="evenodd" clip-rule="evenodd" d="M435.796 196.852H317.507C314.219 196.852 311.525 199.795 311.525 203.388V287.123C311.525 290.715 314.219 293.658 317.507 293.658H435.796C439.092 293.658 441.779 290.715 441.779 287.123V203.388C441.779 199.795 439.084 196.852 435.796 196.852Z" fill="#915E40"/>
<path fill-rule="evenodd" clip-rule="evenodd" d="M426.35 203.58C421.458 203.58 417.489 207.918 417.489 213.259C417.489 218.6 421.458 222.938 426.35 222.938C431.241 222.938 435.211 218.608 435.211 213.259C435.211 207.91 431.241 203.58 426.35 203.58Z" fill="white"/>
<path fill-rule="evenodd" clip-rule="evenodd" d="M411.739 206.659H385.733C384.787 206.659 384.009 207.509 384.009 208.544C384.009 209.578 384.787 210.428 385.733 210.428H411.739C412.685 210.428 413.463 209.578 413.463 208.544C413.463 207.509 412.685 206.659 411.739 206.659Z" fill="white"/>
<path fill-rule="evenodd" clip-rule="evenodd" d="M406.078 215.208H392.67C391.724 215.208 390.946 216.058 390.946 217.092C390.946 218.127 391.724 218.977 392.67 218.977H406.078C407.024 218.977 407.802 218.127 407.802 217.092C407.802 216.058 407.024 215.208 406.078 215.208Z" fill="white"/>
<path fill-rule="evenodd" clip-rule="evenodd" d="M411.571 215.208H411.747C412.693 215.208 413.471 216.058 413.471 217.092C413.471 218.127 412.693 218.977 411.747 218.977H411.571C410.625 218.977 409.847 218.127 409.847 217.092C409.847 216.058 410.625 215.208 411.571 215.208Z" fill="white"/>
<path fill-rule="evenodd" clip-rule="evenodd" d="M345.822 281.598H319.817C318.87 281.598 318.093 282.448 318.093 283.482C318.093 284.517 318.87 285.367 319.817 285.367H345.822C346.769 285.367 347.547 284.517 347.547 283.482C347.547 282.448 346.769 281.598 345.822 281.598Z" fill="white"/>
<path fill-rule="evenodd" clip-rule="evenodd" d="M431.939 227.726H321.364C319.56 227.726 318.093 229.337 318.093 231.302V273.049C318.093 275.014 319.568 276.626 321.364 276.626H431.939C433.744 276.626 435.211 275.014 435.211 273.049V231.302C435.211 229.329 433.736 227.726 431.939 227.726Z" fill="#BE865E"/>
<path fill-rule="evenodd" clip-rule="evenodd" d="M329.335 261.847L329.736 263.859C329.736 263.859 329.399 269.385 329.399 270.042C329.399 270.7 330.057 273.787 330.057 273.787C330.057 273.787 328.221 279.336 322.543 278.526C316.866 277.716 310.996 268.326 310.996 268.326C310.996 268.326 314.957 264.333 316.729 256.554C318.501 248.776 329.335 261.847 329.335 261.847Z" fill="#F0F1F1"/>
<path fill-rule="evenodd" clip-rule="evenodd" d="M388.716 165.674L383.945 159.05L346.528 173.909L344.05 176.387L346.111 181.784C346.111 181.784 382.582 179.13 388.725 165.674H388.716Z" fill="#020516"/>
<path fill-rule="evenodd" clip-rule="evenodd" d="M415.7 170.91C415.7 170.91 422.845 168.882 422.845 175.409C422.845 184.767 415.316 197.053 399.382 197.053C387.89 197.053 358.998 197.991 348.284 197.991C348.284 197.991 346.063 197.991 345.02 201.126C343.978 204.262 330.706 270.018 330.706 270.018C330.706 270.018 332.014 273.314 329.792 273.113C328.678 273.017 326.488 271.004 323.706 269.898C322.575 269.449 317.531 268.374 314.155 267.837C312.519 267.572 310.923 268.19 311.02 267.62C311.044 267.492 310.675 267.187 310.851 266.418C310.907 266.177 311.533 265.207 311.589 264.918C314.083 252.376 326.825 189.098 327.659 186.475C328.573 183.605 331.58 180.862 339.287 179.427C346.993 177.991 372.983 173.027 378.075 171.456C383.167 169.884 383.953 161.793 383.953 159.05C383.953 156.308 397.433 152.627 415.709 170.91H415.7Z" fill="#020516"/>
<path fill-rule="evenodd" clip-rule="evenodd" d="M332.575 293.594C332.575 293.594 280.74 294.051 279.152 293.594C277.556 293.145 276.866 292.279 276.866 290.338V286.176C276.866 285.262 277.075 284.092 278.406 283.169C279.184 282.624 280.355 282.311 282.095 281.774C286.794 280.315 293.129 279.689 296.658 278.927C300.186 278.165 306.521 269.425 307.363 268.871C308.213 268.318 310.699 268.318 313.241 268.318C315.783 268.318 319.905 268.454 321.14 271.373C322.383 274.284 327.651 274.693 329.648 273.795C329.648 273.795 331.581 273.659 332.046 274.982C332.503 276.297 332.246 285.455 332.374 286.425C332.503 287.395 332.078 287.844 332.078 287.844C332.078 287.844 332.96 288.502 333.12 288.815C333.281 289.128 333.345 289.994 333.345 290.9C333.345 291.806 333.457 293.538 332.567 293.602L332.575 293.594Z" fill="#131E3A"/>
<path fill-rule="evenodd" clip-rule="evenodd" d="M278.567 283.29C279.344 282.784 280.467 282.271 282.087 281.774C286.786 280.315 293.121 279.689 296.65 278.927C297.411 278.767 298.301 278.23 299.232 277.484L306.28 277.211L306.505 279.424C306.505 279.424 308.63 279.809 307.812 281.229C306.994 282.648 300.435 284.589 294.621 284.589H280.451C279.216 284.589 278.631 284.116 278.551 283.282L278.567 283.29Z" fill="#131E3A"/>
<path fill-rule="evenodd" clip-rule="evenodd" d="M332.575 293.594C332.575 293.594 329.816 293.626 324.067 293.666C319.231 292.375 314.973 290.94 314.973 290.94C314.973 290.94 323.072 279.705 322.615 278.663C322.158 277.62 316.409 272.56 316.409 272.56C316.409 272.56 317.243 271.045 318.421 268.984C319.608 269.425 320.627 270.154 321.14 271.365C322.383 274.276 327.651 274.685 329.648 273.787C329.648 273.787 331.581 273.651 332.046 274.974C332.503 276.289 332.246 285.447 332.375 286.417C332.503 287.387 332.078 287.836 332.078 287.836C332.078 287.836 332.96 288.494 333.12 288.807C333.281 289.119 333.345 289.986 333.345 290.892C333.345 291.798 333.457 293.53 332.567 293.594H332.575Z" fill="#131E3A"/>
<path fill-rule="evenodd" clip-rule="evenodd" d="M295.936 279.072C296.184 279.023 296.425 278.975 296.649 278.927C300.178 278.165 306.513 269.425 307.355 268.871C308.205 268.318 310.691 268.318 313.233 268.318C315.141 268.318 317.932 268.398 319.728 269.657C320.041 269.898 321.292 271.085 318.036 273.186C314.38 275.543 309.416 278.598 307.523 279.216C305.631 279.841 301.18 279.272 295.928 279.072H295.936Z" fill="#010B1C"/>
<path fill-rule="evenodd" clip-rule="evenodd" d="M279.104 287.836C280.571 288.261 326.825 287.885 332.062 287.836C332.062 287.836 332.928 288.494 333.088 288.807C333.249 289.119 333.313 289.986 333.313 290.892C333.313 291.798 333.425 293.53 332.543 293.594C332.543 293.594 280.667 294.051 279.104 293.594C277.548 293.145 276.866 292.279 276.866 290.338V286.176C276.866 285.936 276.882 285.695 276.923 285.455C277.115 286.794 277.805 287.46 279.104 287.836Z" fill="#AFB5BA"/>
<path fill-rule="evenodd" clip-rule="evenodd" d="M279.104 287.836C280.419 288.221 317.435 287.957 329.071 287.86C329.071 288.759 328.982 289.825 328.301 289.881C328.301 289.881 286.634 290.242 276.866 289.994V286.168C276.866 285.928 276.882 285.687 276.923 285.447C277.115 286.786 277.805 287.452 279.104 287.828V287.836Z" fill="#F2F9FC"/>
<path fill-rule="evenodd" clip-rule="evenodd" d="M309.247 269.296C309.111 269.176 309.151 268.919 309.344 268.719C309.536 268.519 309.809 268.454 309.945 268.567L312.046 270.315L317.242 269.328C317.475 269.288 317.619 269.433 317.571 269.665C317.515 269.89 317.291 270.114 317.058 270.154L312.824 270.956L314.348 272.215C314.492 272.336 314.444 272.592 314.259 272.793C314.211 272.841 314.163 272.881 314.107 272.913C314.011 273.073 313.834 273.202 313.666 273.234L309.432 274.036L310.955 275.295C311.092 275.415 311.052 275.672 310.859 275.872C310.739 276 310.579 276.08 310.442 276.08L305.863 276.947L307.082 278.157V278.165V278.181V278.198V278.206V278.222V278.238V278.294V278.31C307.082 278.31 307.082 278.358 307.066 278.382V278.406V278.414V278.422C307.066 278.438 307.05 278.462 307.042 278.478V278.486V278.494L307.018 278.534H307.01L306.994 278.566V278.582V278.59L306.978 278.607V278.615V278.623V278.631V278.639V278.647V278.655H306.97L306.962 278.671H306.954H306.946H306.938L306.93 278.679H306.922L306.914 278.695H306.906L306.898 278.703H306.89H306.882H306.874H306.866L306.858 278.711H306.85H306.842H306.834H306.826H306.818H306.81H306.794L306.786 278.719H306.778H306.769H306.761H306.753H306.745H306.737H306.721H306.705H306.689L299.865 277.893H299.857C299.857 277.893 299.793 277.885 299.769 277.877H299.745V277.861H299.729V277.845C299.729 277.845 299.713 277.829 299.697 277.821C299.649 277.764 299.633 277.684 299.649 277.588V277.564C299.665 277.492 299.697 277.42 299.745 277.356V277.348L299.769 277.315V277.307L299.801 277.275C299.801 277.275 299.825 277.243 299.841 277.235C299.921 277.163 300.025 277.107 300.122 277.083H300.146L304.171 276.313L302.848 274.998C302.72 274.87 302.776 274.613 302.976 274.421C303.097 274.3 303.241 274.236 303.369 274.236L307.555 273.442L306.032 272.183C305.887 272.063 305.936 271.806 306.12 271.606C306.168 271.558 306.216 271.518 306.272 271.486C306.369 271.325 306.545 271.197 306.721 271.165L310.955 270.363L309.432 269.104L309.247 269.296ZM305.398 277.917L304.652 277.179L302.568 277.572L305.398 277.917ZM309.56 275.463L308.141 274.284L303.963 275.078L305.19 276.297L309.568 275.471L309.56 275.463ZM313.169 272.544L311.549 271.197L307.026 272.055L308.646 273.402L313.169 272.544Z" fill="white"/>
<path fill-rule="evenodd" clip-rule="evenodd" d="M341.155 240.163C341.284 239.77 341.885 236.33 341.885 236.33C341.885 236.33 341.003 233.243 340.947 231.639C340.891 230.035 340.041 226.972 340.041 226.972L333.577 226.643L327.836 232.024C327.836 232.024 327.828 235.199 327.306 236.635C326.785 238.07 336.985 240.484 336.985 240.484L341.155 240.155V240.163Z" fill="#F0F1F1"/>
<path fill-rule="evenodd" clip-rule="evenodd" d="M366.047 160.622C349.856 161.32 319.704 148.441 321.38 175.946C322.455 193.58 325.695 223.042 326.601 231.751C326.769 233.355 326.144 234.293 326.144 234.293C326.144 234.293 326.408 235.239 327.387 235.175C327.387 235.175 336.015 234.133 341.628 236.154C341.628 236.154 343.32 236.41 343.513 235.231C343.537 235.071 342.936 233.443 343.064 231.47C343.89 219.265 346.416 178.849 346.416 178.849C361.828 175.898 383.937 177.35 383.937 159.05L366.047 160.622Z" fill="#020E28"/>
<path fill-rule="evenodd" clip-rule="evenodd" d="M312.367 264.83C312.367 264.83 324.043 263.458 328.974 262.873C333.906 262.296 335.558 260.716 338.244 257.837C340.931 254.958 344.227 251.149 344.796 250.355C345.357 249.569 345.277 247.998 345.173 247.124C345.069 246.25 344.178 245.4 344.178 245.4C344.178 245.4 343.625 240.66 343.449 239.201C343.28 237.741 342.478 236.554 341.893 236.33C341.893 236.33 340.217 237.445 337.274 237.004C334.331 236.563 334.636 234.686 331.845 235.015C329.054 235.344 328.99 235.352 326.978 235.584C324.965 235.817 323.233 237.276 322.759 239.369C322.278 241.462 322.27 243.571 320.522 246.081C318.782 248.591 312.303 256.65 311.509 257.733C310.715 258.815 310.073 259.746 310.218 260.981C310.362 262.216 310.402 262.568 310.49 263.282C310.571 263.996 311.164 264.974 312.383 264.838L312.367 264.83Z" fill="#131E3A"/>
<path fill-rule="evenodd" clip-rule="evenodd" d="M312.367 264.83C312.367 264.83 324.043 263.458 328.974 262.873C330.394 262.705 331.54 262.456 332.527 262.119C332.142 259.794 331.669 257.011 331.669 257.011C331.669 257.011 331.564 256.089 331.388 254.629C331.22 253.17 331.035 252.256 325.398 252.921L318.141 253.795C318.141 253.795 317.13 253.916 315.959 254.052C314.813 254.188 313.866 254.742 313.417 255.287L313.393 255.311C312.455 256.506 311.741 257.412 311.509 257.725C310.715 258.807 310.073 259.738 310.218 260.973C310.362 262.207 310.402 262.56 310.49 263.274C310.571 263.988 311.164 264.966 312.383 264.83H312.367Z" fill="#131E3A"/>
<path fill-rule="evenodd" clip-rule="evenodd" d="M340.754 255.079C342.671 252.929 344.395 250.909 344.796 250.355C345.357 249.569 345.277 247.998 345.173 247.124C345.069 246.25 344.179 245.4 344.179 245.4C344.179 245.4 343.625 240.66 343.449 239.201C343.28 237.741 342.479 236.554 341.893 236.33C341.893 236.33 340.217 237.445 337.274 237.004C334.716 236.619 334.604 235.151 332.8 234.991L331.332 238.856C331.332 238.856 337.763 240.7 338.381 240.917C338.998 241.141 339.584 241.895 339.367 244.221C339.151 246.546 338.461 255.239 338.461 255.239C338.461 255.239 339.391 255.175 340.762 255.071L340.754 255.079Z" fill="#131E3A"/>
<path fill-rule="evenodd" clip-rule="evenodd" d="M334.524 235.745L334.459 235.696C333.834 235.231 333.208 234.862 331.853 235.023C329.063 235.352 328.998 235.36 326.986 235.592C324.973 235.825 323.241 237.284 322.768 239.377C322.623 240.011 322.519 240.644 322.399 241.294C322.399 241.294 322.222 244.718 321.637 245.608C321.052 246.498 318.309 251.261 317.411 252.416C316.513 253.571 318.149 253.795 318.149 253.795C318.149 253.795 320.875 253.475 324.051 253.098C327.226 252.721 328.181 252.416 329.111 251.382C330.041 250.355 332.711 246.258 333.585 244.966C334.451 243.683 334.692 241.254 335.205 238.856C335.638 236.819 334.804 235.953 334.548 235.737L334.524 235.745Z" fill="#010B1C"/>
<path fill-rule="evenodd" clip-rule="evenodd" d="M337.635 252.649C334.949 255.528 333.297 257.107 328.365 257.685C323.433 258.262 311.765 259.641 311.765 259.641C311.228 259.706 310.811 259.545 310.506 259.289C310.266 259.81 310.138 260.355 310.21 260.973C310.354 262.207 310.394 262.56 310.482 263.274C310.563 263.988 311.156 264.966 312.375 264.83C312.375 264.83 324.051 263.458 328.982 262.873C333.914 262.296 335.566 260.716 338.252 257.837C340.939 254.958 344.235 251.149 344.804 250.355C345.365 249.569 345.285 247.998 345.181 247.124C345.077 246.25 344.187 245.4 344.187 245.4C344.187 245.4 344.187 245.327 344.162 245.207C343.521 246.073 340.281 249.81 337.643 252.649H337.635Z" fill="#AFB5BA"/>
<path fill-rule="evenodd" clip-rule="evenodd" d="M337.635 252.649C334.949 255.528 333.297 257.107 328.365 257.685C323.433 258.262 311.765 259.641 311.765 259.641C311.228 259.706 310.811 259.545 310.506 259.289C310.266 259.81 310.138 260.355 310.21 260.973L310.346 262.167C332.631 259.393 333.433 259.746 337.21 255.72C338.918 253.9 341.059 251.542 342.847 249.289C343.794 248.094 343.353 246.234 341.917 247.893C340.65 249.345 339.062 251.125 337.643 252.649H337.635Z" fill="#F2F9FC"/>
<path fill-rule="evenodd" clip-rule="evenodd" d="M324.476 240.428C324.219 240.34 324.075 240.067 324.163 239.802C324.243 239.546 324.524 239.401 324.78 239.489L328.646 240.74L334.235 238.351C334.483 238.247 334.772 238.359 334.884 238.607C334.989 238.856 334.876 239.145 334.628 239.257L330.073 241.206L332.864 242.112C333.12 242.2 333.264 242.473 333.184 242.729C333.16 242.793 333.128 242.849 333.088 242.898C333.088 243.09 332.976 243.266 332.791 243.347L328.237 245.295L331.027 246.201C331.284 246.282 331.428 246.562 331.34 246.819C331.284 246.987 331.147 247.108 330.987 247.148L326.063 249.249L328.453 250.179H328.469H328.477V250.187H328.485V250.203H328.493V250.219L328.501 250.235H328.509V250.251H328.517L328.541 250.291L328.557 250.315V250.323V250.331V250.339C328.565 250.363 328.573 250.379 328.581 250.403V250.428V250.436V250.444C328.581 250.468 328.589 250.484 328.589 250.508V250.524V250.58V250.596V250.62V250.636V250.644V250.66V250.684V250.7V250.716V250.724V250.74V250.748V250.756V250.764V250.772V250.788V250.796V250.812V250.82V250.828V250.844V250.853V250.861V250.877V250.893V250.901H328.581L328.573 250.917H328.565L328.557 250.933H328.549H328.541L328.533 250.941H328.525H328.517H328.509L328.485 250.957H328.477L328.469 250.965H328.461H328.453H328.445H328.437H328.429H328.421H328.405L319.496 251.911H319.48C319.48 251.911 319.4 251.919 319.359 251.911H319.343H319.311H319.303H319.279V251.903C319.279 251.903 319.247 251.887 319.223 251.879C319.127 251.831 319.039 251.751 318.991 251.646L318.983 251.622C318.95 251.542 318.934 251.462 318.942 251.382V251.374V251.342V251.334L318.959 251.286C318.959 251.286 318.975 251.245 318.983 251.229C319.031 251.133 319.111 251.045 319.207 250.997L319.231 250.989L323.561 249.136L320.971 248.126C320.723 248.03 320.594 247.741 320.691 247.493C320.755 247.34 320.883 247.236 321.027 247.196L325.534 245.271L322.743 244.365C322.487 244.277 322.343 244.004 322.431 243.74C322.455 243.675 322.487 243.619 322.527 243.571C322.527 243.379 322.639 243.194 322.824 243.122L327.379 241.174L324.588 240.267L324.476 240.428ZM326.216 250.379L324.764 249.81L322.519 250.772L326.216 250.379ZM329.447 246.739L326.841 245.897L322.343 247.821L324.74 248.76L329.447 246.747V246.739ZM331.661 242.761L328.686 241.799L323.826 243.876L326.801 244.838L331.661 242.761Z" fill="white"/>
<path fill-rule="evenodd" clip-rule="evenodd" d="M428.298 94.9297C428.94 107.071 429.124 121.697 429.124 121.697C429.124 121.697 424.345 144.127 424.345 154.84C424.345 161.36 427.489 168.408 426.414 172.995C423.046 187.341 410.264 160.622 382.894 160.622H366.046C366.046 160.622 363.561 158.802 363.368 155.602C363.2 152.803 367.522 138.289 368.701 132.419C367.618 133.999 366.888 134.977 366.888 134.977C366.888 134.977 358.132 136.501 357.787 127.054C357.442 117.6 365.18 87.6965 368.011 84.1762C373.312 77.5845 378.139 74.2405 386.607 72.316C386.607 72.316 397.946 69.814 409.277 71.2093C409.654 71.2975 420.728 72.765 428.331 79.9661C428.699 83.1738 428.098 90.1744 428.331 94.9217H428.306L428.298 94.9297Z" fill="#F18F2F"/>
<path fill-rule="evenodd" clip-rule="evenodd" d="M429.092 119.468C429.116 120.879 429.124 121.697 429.124 121.697C429.124 121.697 424.345 144.127 424.345 154.84C424.345 161.36 427.489 168.408 426.414 172.995C423.615 184.904 414.337 168.521 395.613 162.611C399.823 158.377 408.403 149.026 412.95 139.011C419.141 125.402 418.724 109.316 418.106 94.6731C420.809 105.771 424.85 113.55 429.092 119.476V119.468Z" fill="#EB664C"/>
<path fill-rule="evenodd" clip-rule="evenodd" d="M373.817 110.799C375.878 92.0348 374.025 86.8785 374.025 86.8785C374.025 86.8785 369.647 114.625 365.734 123.903C361.82 133.181 360.209 129.981 361.652 129.981C363.095 129.981 374.234 132.25 374.234 129.773C374.234 127.295 373.817 110.799 373.817 110.799Z" fill="#EC6D3B" stroke="#EB664C" stroke-width="0.22" stroke-miterlimit="22.93"/>
<path fill-rule="evenodd" clip-rule="evenodd" d="M374.442 101.722C378.981 105.948 407.024 107.087 415.476 106.052L423.928 105.018L424.963 123.991C425.059 125.803 405.957 126.637 390.368 124.833C380.473 123.686 371.323 120.43 371.556 119.035L374.442 101.714V101.722Z" fill="white"/>
<path fill-rule="evenodd" clip-rule="evenodd" d="M418.435 105.691L421.458 105.322C422.348 107.584 423.303 109.669 424.297 111.593L424.971 123.991C425.011 124.729 421.843 125.306 417.032 125.611C418.211 119.099 418.507 112.347 418.443 105.691H418.435Z" fill="#DBDCDC"/>
<path fill-rule="evenodd" clip-rule="evenodd" d="M402.742 150.494C402.124 151.32 400.184 150.317 399.606 150.911C394.218 156.388 390.056 152.771 383.977 158.176C381.138 160.702 399.029 159.684 400.889 159.932L412.028 152.611L402.75 150.494H402.742Z" fill="#F4AD85"/>
<path fill-rule="evenodd" clip-rule="evenodd" d="M399.382 151.135C398.444 152.05 397.537 152.699 396.655 153.164C399.334 155.145 399.743 157.134 398.155 157.767C396.351 158.489 392.02 159.058 387.016 158.489C385.822 158.353 385.364 158.802 385.501 159.547C389.655 160.245 399.526 159.748 400.881 159.932L408.163 155.145C405.749 153.14 402.453 151.216 399.382 151.135Z" fill="#EA745D"/>
<path fill-rule="evenodd" clip-rule="evenodd" d="M411.049 71.506C412.525 71.8588 410.993 76.5981 409.422 79.5972C402.573 92.6844 387.834 88.5706 387.834 72.4843V72.0273C389.446 71.6183 389.719 71.482 390.906 71.2173C398.307 70.6881 403.824 69.7819 411.049 71.506Z" fill="white"/>
<path fill-rule="evenodd" clip-rule="evenodd" d="M399.855 50.7286C394.803 50.7286 390.665 54.8664 390.665 59.9184V72.0753C390.665 77.1274 393.047 84.0478 398.099 84.0478C403.151 84.0478 409.045 77.1274 409.045 72.0753V59.9184C409.045 54.8664 404.907 50.7286 399.855 50.7286Z" fill="#EB6B5D"/>
<path fill-rule="evenodd" clip-rule="evenodd" d="M391.716 174.832C391.716 174.832 356.793 182.61 355.213 183.131C353.633 183.661 352.182 185.898 352.583 190.509C352.976 195.12 355.221 191.391 364.972 192.049C374.723 192.706 395.942 192.273 401.603 189.659C407.273 187.045 409.51 186.026 407.401 179.571C405.292 173.116 396.856 173.637 391.716 174.824V174.832Z" fill="#020E28"/>
<path fill-rule="evenodd" clip-rule="evenodd" d="M435.877 106.301C436.294 113.181 436.767 120.47 436.093 126.493C435.564 131.296 434.04 135.37 433.094 137.278C432.092 139.307 413.199 154.936 406.567 160.173C405.773 160.798 404.746 162.049 404.763 161.568C404.915 155.41 402.75 156.107 397.85 152.434C403.576 147.094 417.737 134.199 419.774 127.744C419.774 127.744 420.632 125.851 420.119 120.013C419.606 114.167 418.708 94.2 418.78 91.1367C418.852 88.0734 419.357 82.3237 421.571 79.5571C424.097 78.3382 426.342 78.3463 428.09 79.8057C433.623 84.4167 435.476 99.8294 435.868 106.301H435.877Z" fill="#F18F2F"/>
<path fill-rule="evenodd" clip-rule="evenodd" d="M399.502 153.573C398.989 153.236 398.444 152.859 397.858 152.426C403.584 147.086 417.745 134.191 419.782 127.736C419.782 127.736 420.64 125.843 420.127 120.005C419.614 114.159 418.716 94.1919 418.788 91.1286C418.812 90.1984 418.868 89.0196 419.012 87.7526C419.774 86.9186 420.223 86.4615 420.223 86.4615C420.223 86.4615 425.38 117.808 425.171 123.173C424.971 128.313 417.2 138.746 399.502 153.581V153.573Z" fill="#F29A47"/>
<path d="M336.625 159.604H400.264C401.459 159.604 402.429 160.574 402.429 161.769C402.429 162.964 401.459 163.934 400.264 163.934H336.625C335.43 163.934 334.459 162.964 334.459 161.769C334.459 160.574 335.43 159.604 336.625 159.604Z" fill="#BB1F1F"/>
<path fill-rule="evenodd" clip-rule="evenodd" d="M336.624 163.934H400.264C401.034 163.934 401.715 163.525 402.1 162.915C401.715 162.306 401.034 161.897 400.264 161.897H336.624C335.855 161.897 335.173 162.306 334.788 162.915C335.173 163.525 335.855 163.934 336.624 163.934Z" fill="#BB1F1F"/>
<path fill-rule="evenodd" clip-rule="evenodd" d="M334.941 159.604H389.438C390.994 159.604 392.108 158.328 391.924 156.773L387.578 121.473C387.385 119.917 385.958 118.642 384.402 118.642H329.905C328.349 118.642 327.234 119.917 327.419 121.473L331.765 156.773C331.957 158.328 333.385 159.604 334.941 159.604Z" fill="#D10D49"/>
<path fill-rule="evenodd" clip-rule="evenodd" d="M334.94 159.604H387.826C389.382 159.604 390.497 158.328 390.304 156.773L385.958 121.473C385.765 119.917 384.338 118.642 382.782 118.642H329.896C328.341 118.642 327.226 119.917 327.411 121.473L331.757 156.773C331.949 158.328 333.377 159.604 334.932 159.604H334.94Z" fill="#BB1F1F"/>
<path opacity="0.5" fill-rule="evenodd" clip-rule="evenodd" d="M337.819 159.604H343.264L386.223 123.542L385.966 121.473C385.894 120.855 385.621 120.278 385.22 119.813L337.819 159.604ZM379.038 118.642L332.174 157.976C331.958 157.607 331.805 157.198 331.749 156.773L331.075 151.28L369.96 118.642H379.029H379.038Z" fill="#E84B6B"/>
<path d="M392.373 159.604H400.256C401.451 159.604 402.421 160.574 402.421 161.769C402.421 162.964 401.451 163.934 400.256 163.934H392.365C391.17 163.934 390.2 162.964 390.2 161.769C390.2 160.574 391.17 159.604 392.365 159.604H392.373Z" fill="#D10D49"/>
<path fill-rule="evenodd" clip-rule="evenodd" d="M335.542 160.686H392.237C392.83 160.686 393.319 160.197 393.319 159.604C393.319 159.01 392.83 158.521 392.237 158.521H335.542C334.949 158.521 334.459 159.01 334.459 159.604C334.459 160.197 334.949 160.686 335.542 160.686Z" fill="#D10D49"/>
<path fill-rule="evenodd" clip-rule="evenodd" d="M357.747 133.686C360.754 133.686 363.44 136.124 363.745 139.123C364.05 142.13 361.869 144.56 358.861 144.56C355.854 144.56 353.168 142.122 352.863 139.123C352.815 138.65 352.831 138.201 352.895 137.76C353.433 138.265 354.154 138.586 354.916 138.586C356.4 138.586 357.482 137.383 357.33 135.899C357.25 135.105 356.833 134.392 356.231 133.902C356.704 133.758 357.21 133.686 357.747 133.686Z" fill="#FFFDF8"/>
<path fill-rule="evenodd" clip-rule="evenodd" d="M417.93 45.6204C418.066 45.6365 418.203 45.6605 418.339 45.6926C420.833 46.2138 422.725 48.403 422.781 51.0654C422.838 54.1527 420.384 56.7108 417.296 56.7669C414.209 56.8231 411.651 54.3692 411.595 51.2819C411.563 49.4856 412.373 47.8738 413.672 46.8233C413.527 48.4752 413.792 50.5201 415.901 50.7206L415.837 47.4969C415.813 46.1898 417.032 45.5883 417.922 45.6284L417.93 45.6204Z" fill="#E8685B"/>
<path fill-rule="evenodd" clip-rule="evenodd" d="M377.554 45.6204C377.418 45.6365 377.281 45.6605 377.145 45.6926C374.651 46.2138 372.758 48.403 372.702 51.0654C372.646 54.1527 375.1 56.7108 378.187 56.7669C381.275 56.8231 383.825 54.3692 383.889 51.2819C383.921 49.4856 383.111 47.8738 381.812 46.8233C381.956 48.4752 381.692 50.5201 379.583 50.7206L379.647 47.4969C379.671 46.1898 378.452 45.5883 377.562 45.6284L377.554 45.6204Z" fill="#E8685B"/>
<path fill-rule="evenodd" clip-rule="evenodd" d="M397.746 17.682C408.283 17.682 416.896 26.3025 416.896 36.8315V54.249C416.896 64.786 408.275 73.3985 397.746 73.3985C387.217 73.3985 378.596 64.778 378.596 54.249V36.8315C378.596 26.2945 387.217 17.682 397.746 17.682Z" fill="#F4AD85"/>
<path fill-rule="evenodd" clip-rule="evenodd" d="M397.746 17.682C408.283 17.682 416.896 26.3025 416.896 36.8316V54.249C416.896 64.786 408.275 73.3985 397.746 73.3985C412.445 71.7707 412.95 58.5873 412.95 51.2418C412.95 43.8964 406.631 41.4265 405.156 41.4265H397.995C390.096 47.4889 380.617 48.347 380.617 48.347L378.604 49.5177L379.23 44.6502L392.806 39.8387C392.806 39.8387 386.158 40.0873 378.604 39.951V36.8235C378.604 26.2865 387.225 17.674 397.754 17.674L397.746 17.682Z" fill="#EF8871"/>
<path fill-rule="evenodd" clip-rule="evenodd" d="M401.9 59.4613C402.004 62.1958 399.879 64.5053 397.144 64.6096C394.41 64.7138 392.1 62.5888 391.996 59.8543H392.004C391.988 59.3811 392.357 58.9882 392.822 58.9642L401.002 58.6434C401.475 58.6273 401.868 58.9962 401.892 59.4613H401.9Z" fill="white"/>
<path fill-rule="evenodd" clip-rule="evenodd" d="M400.208 63.3907C399.382 64.1124 398.323 64.5615 397.144 64.6096C396.182 64.6497 395.276 64.4091 394.498 63.9681C394.835 62.9336 395.917 62.1317 397.257 62.0275C398.532 61.9312 399.678 62.5006 400.208 63.3907Z" fill="white"/>
<path fill-rule="evenodd" clip-rule="evenodd" d="M392.718 58.9722L400.4 58.6675C400.553 59.5095 400.2 60.3916 399.63 60.6001C398.941 60.8567 393.376 60.9289 392.967 60.5038C392.766 60.3034 392.71 59.6217 392.71 58.9722H392.718Z" fill="white"/>
<path fill-rule="evenodd" clip-rule="evenodd" d="M386.88 55.2032C388.275 55.1791 389.422 56.2858 389.446 57.6731C389.47 59.0604 388.363 60.2151 386.976 60.2392C385.589 60.2632 384.434 59.1566 384.41 57.7693C384.386 56.382 385.493 55.2273 386.88 55.2032Z" fill="#E8685B"/>
<path fill-rule="evenodd" clip-rule="evenodd" d="M408.548 54.7863C409.935 54.7622 411.09 55.8688 411.114 57.2561C411.138 58.6434 410.031 59.7982 408.644 59.8222C407.257 59.8463 406.102 58.7397 406.078 57.3524C406.054 55.9651 407.16 54.8103 408.548 54.7863Z" fill="#E8685B"/>
<path fill-rule="evenodd" clip-rule="evenodd" d="M380.609 45.8931V48.363C380.609 49.5498 379.503 50.881 378.596 50.881V48.1865C378.596 48.1865 378.211 46.1978 375.758 46.1978C368.22 37.5292 369.214 23.7765 377.257 16.6395C385.3 9.50255 402.589 9.05349 405.605 10.0559C408.62 11.0583 411.731 16.1824 411.731 16.1824C411.731 16.1824 414.289 13.897 416.671 15.0838C419.045 16.2706 425.307 29.462 425.307 33.2149C425.307 36.9679 419.75 46.1978 419.75 46.1978C417.296 46.1978 416.903 48.1865 416.903 48.1865V50.881C415.989 50.881 414.891 49.5578 414.891 48.363V45.8931C407.321 42.5331 404.923 32.4531 404.923 32.4531C404.923 32.4531 392.967 47.7054 380.617 45.8931H380.609Z" fill="#010C28"/>
<path fill-rule="evenodd" clip-rule="evenodd" d="M370.641 31.0819C370.842 26.7275 372.301 22.4854 374.932 19.1014C381.387 23.4718 394.939 29.021 408.251 11.804C409.101 12.6139 409.871 13.5442 410.472 14.338C405.677 23.3274 393.881 38.283 370.641 31.0738V31.0819Z" fill="#0F1630"/>
<path fill-rule="evenodd" clip-rule="evenodd" d="M380.609 45.8931C379.302 46.4544 379.887 54.5377 378.412 54.5377C377.995 52.4046 378.227 46.1898 375.75 46.1898C372.767 42.7576 371.123 38.5396 370.714 34.2414C379.535 43.1025 400.504 35.1155 405.677 28.5078C405.677 28.5078 414.426 37.85 425.267 33.1428C425.315 33.4234 425.339 33.672 425.339 33.8805C425.339 37.6335 419.734 46.1898 419.734 46.1898C418.235 46.1898 417.914 51.5866 416.887 54.281C415.973 54.281 414.875 49.5498 414.875 48.363V45.8931C407.305 42.5331 404.907 32.4531 404.907 32.4531C404.907 32.4531 392.95 47.7054 380.601 45.8931H380.609Z" fill="#020516"/>
<path fill-rule="evenodd" clip-rule="evenodd" d="M385.517 46.8474C385.18 47.0158 384.771 46.8794 384.603 46.5426C384.434 46.2058 384.571 45.7969 384.907 45.6285C386.712 44.6982 389.117 44.594 390.89 45.6525C391.21 45.845 391.315 46.262 391.122 46.5827C390.93 46.9035 390.513 47.0077 390.192 46.8153C388.757 45.9572 386.968 46.1497 385.517 46.8393V46.8474Z" fill="#020516"/>
<path fill-rule="evenodd" clip-rule="evenodd" d="M409.975 46.8473C408.523 46.1577 406.727 45.9652 405.3 46.8233C404.979 47.0157 404.562 46.9115 404.37 46.5907C404.177 46.27 404.281 45.853 404.602 45.6605C406.366 44.602 408.78 44.7062 410.576 45.6365C410.913 45.8049 411.049 46.2138 410.881 46.5506C410.713 46.8874 410.304 47.0238 409.975 46.8554V46.8473Z" fill="#020516"/>
<path d="M409.542 50.7927C409.542 49.8804 408.802 49.1408 407.89 49.1408C406.978 49.1408 406.238 49.8804 406.238 50.7927V52.9499C406.238 53.8622 406.978 54.6018 407.89 54.6018C408.802 54.6018 409.542 53.8622 409.542 52.9499V50.7927Z" fill="#020516"/>
<path fill-rule="evenodd" clip-rule="evenodd" d="M387.602 49.1408C386.687 49.1408 385.95 49.8866 385.95 50.7927V52.9499C385.95 53.856 386.695 54.6018 387.602 54.6018C388.508 54.6018 389.254 53.856 389.254 52.9499V50.7927C389.254 49.8866 388.508 49.1408 387.602 49.1408Z" fill="#020516"/>
<path fill-rule="evenodd" clip-rule="evenodd" d="M395.453 53.1503C395.453 53.1503 394.402 55.4197 394.282 56.1254C394.161 56.8231 394.835 57.208 396.254 56.9834C397.674 56.7589 396.415 51.763 395.453 53.1503Z" fill="#F8CAB0"/>
<path fill-rule="evenodd" clip-rule="evenodd" d="M415.781 45.9412C415.171 45.2355 414 44.3213 413.311 43.7921C413.134 43.6477 412.95 43.5114 412.757 43.3831L412.741 43.3751C411.394 42.477 409.774 41.9477 408.026 41.9477C405.677 41.9477 403.552 42.902 402.012 44.4416C401.266 45.1393 400.625 45.9011 399.967 46.6469C399.125 47.5931 398.628 47.128 397.786 47.128C396.944 47.128 396.447 47.5931 395.605 46.6469C394.939 45.9011 394.298 45.1393 393.56 44.4416C392.02 42.902 389.871 41.9477 387.521 41.9477C385.773 41.9477 384.049 42.477 382.782 43.3751C382.782 43.3751 382.806 43.3751 382.798 43.3751C382.606 43.5034 382.437 43.6397 382.261 43.7841C381.563 44.3053 380.368 45.2195 379.759 45.9332C379.462 46.278 379.037 46.5186 378.612 46.687V49.9908C378.797 50.5281 379.013 51.5144 379.31 52.5248C379.43 53.006 379.607 53.4711 379.807 53.9202C380 54.3612 380.216 54.7702 380.465 55.107C381.988 57.4085 384.595 58.9241 387.554 58.9241C390.994 58.9241 393.953 56.8792 395.292 53.9362C395.292 53.9362 395.292 53.9362 395.292 53.9282C395.292 53.9202 395.308 53.9041 395.308 53.8961C395.917 52.8616 396.535 50.0309 396.808 49.5738C397.088 49.1167 397.786 49.0847 397.786 49.0847C397.786 49.0847 398.484 49.1167 398.764 49.5738C399.045 50.0229 399.654 52.8616 400.264 53.8961C400.264 53.9041 400.28 53.9202 400.288 53.9282C400.288 53.9282 400.288 53.9282 400.288 53.9362C401.619 56.8792 404.586 58.9241 408.026 58.9241C410.993 58.9241 413.599 57.4004 415.115 55.107C415.364 54.7702 415.58 54.3612 415.765 53.9202C415.965 53.4711 416.134 53.014 416.254 52.5248C416.526 51.5866 416.727 50.6805 416.895 50.1191V46.6709C416.478 46.5025 416.077 46.27 415.781 45.9252V45.9412ZM387.538 57.7773C383.488 57.7773 380.2 54.4895 380.2 50.4399C380.2 46.3903 383.488 43.1024 387.538 43.1024C391.587 43.1024 394.875 46.3903 394.875 50.4399C394.875 54.4895 391.587 57.7773 387.538 57.7773ZM408.026 57.7773C403.977 57.7773 400.689 54.4895 400.689 50.4399C400.689 46.3903 403.977 43.1024 408.026 43.1024C412.076 43.1024 415.364 46.3903 415.364 50.4399C415.364 54.4895 412.076 57.7773 408.026 57.7773Z" fill="#020516"/>
</svg>
