<svg width="92" height="92" viewBox="0 0 92 92" fill="none" xmlns="http://www.w3.org/2000/svg">
<g clip-path="url(#clip0_1096_5244)">
<path d="M46 37.129C54.6338 37.129 61.6328 30.13 61.6328 21.4962C61.6328 12.8625 54.6338 5.8634 46 5.8634C37.3662 5.8634 30.3672 12.8625 30.3672 21.4962C30.3672 30.13 37.3662 37.129 46 37.129Z" fill="#BB1F1F"/>
<path d="M77.625 37.1289C83.0831 37.1289 87.5078 32.7042 87.5078 27.2461C87.5078 21.788 83.0831 17.3633 77.625 17.3633C72.1669 17.3633 67.7422 21.788 67.7422 27.2461C67.7422 32.7042 72.1669 37.1289 77.625 37.1289Z" fill="#BB1F1F"/>
<path d="M14.375 37.1289C19.8331 37.1289 24.2578 32.7042 24.2578 27.2461C24.2578 21.788 19.8331 17.3633 14.375 17.3633C8.91687 17.3633 4.49219 21.788 4.49219 27.2461C4.49219 32.7042 8.91687 37.1289 14.375 37.1289Z" fill="#BB1F1F"/>
<path d="M24.1123 46.0038C20.222 42.8166 16.6989 43.2385 12.2008 43.2385C5.47328 43.2385 0 48.6794 0 55.3656V74.9892C0 77.893 2.37008 80.2541 5.28461 80.2541C17.8674 80.2541 16.3516 80.4818 16.3516 79.7114C16.3516 65.8061 14.7045 55.6087 24.1123 46.0038Z" fill="#BB1F1F"/>
<path d="M50.2784 43.31C42.4217 42.6547 35.5927 43.3176 29.7024 48.1796C19.8453 56.0751 21.7422 66.7059 21.7422 79.7111C21.7422 83.152 24.5418 86.0038 28.0349 86.0038C65.9637 86.0038 67.4732 87.2273 69.7224 82.2465C70.46 80.5621 70.2579 81.0974 70.2579 64.984C70.2579 52.1855 59.176 43.31 50.2784 43.31Z" fill="#BB1F1F"/>
<path d="M79.7992 43.2383C75.2764 43.2383 71.7727 42.8207 67.8877 46.0036C77.2252 55.5371 75.6484 65.0388 75.6484 79.7112C75.6484 80.4864 74.39 80.2539 86.5267 80.2539C89.5454 80.2539 92 77.8083 92 74.8022V55.3654C92 48.6792 86.5267 43.2383 79.7992 43.2383Z" fill="#BB1F1F"/>
</g>
<defs>
<clipPath id="clip0_1096_5244">
<rect width="92" height="92" fill="white"/>
</clipPath>
</defs>
</svg>
