<svg width="92" height="92" viewBox="0 0 92 92" fill="none" xmlns="http://www.w3.org/2000/svg">
<path d="M52.1336 33.7336C48.7462 33.7336 46 30.9846 46 27.5999V9.19995H15.3336C11.9462 9.19995 9.19995 11.9425 9.19995 15.3336V76.6663C9.19995 80.051 11.9462 82.7999 15.3336 82.7999H49.0663V64.3999C49.0663 57.6232 54.5624 52.1336 61.3336 52.1336H70.5336V33.7336H52.1336ZM29.5761 55.0141L26.3239 58.2663L16.2315 48.1739C15.0328 46.9761 15.0328 45.0358 16.2315 43.837L26.3349 33.7336L29.5872 36.9858L20.5666 46.0064L29.5761 55.0141ZM48.1675 48.1629L38.064 58.2663L34.8118 55.0141L43.8324 45.9935L34.8238 36.9858L38.076 33.7336L48.1684 43.826C49.3662 45.0229 49.3662 46.9641 48.1675 48.1629Z" fill="white"/>
<path d="M52.1335 27.5999H70.5335L52.1335 9.19995V27.5999Z" fill="white"/>
<path d="M76.6663 70.5336C74.9597 70.5336 73.4177 71.2346 72.3064 72.357L64.3935 69.0625C64.3935 69.0423 64.3999 69.0202 64.3999 69C64.3999 68.9797 64.3935 68.9576 64.3935 68.9374L72.3064 65.6429C73.4177 66.7662 74.9597 67.4663 76.6663 67.4663C80.0537 67.4663 82.7999 64.721 82.7999 61.3336C82.7999 57.9462 80.0537 55.2 76.6663 55.2C73.2788 55.2 70.5335 57.9462 70.5335 61.3336C70.5335 61.3538 70.5391 61.375 70.5391 61.3962L62.6271 64.6934C61.5129 63.5664 59.9729 62.8663 58.2663 62.8663C54.8788 62.87 52.1335 65.6125 52.1335 69C52.1335 72.3874 54.8761 75.1336 58.2663 75.1336C59.9729 75.1336 61.5157 74.4326 62.6271 73.3102L70.5391 76.6038C70.5391 76.6249 70.5335 76.6461 70.5335 76.6663C70.5335 80.0538 73.2788 82.8 76.6663 82.8C80.0537 82.8 82.7999 80.0538 82.7999 76.6663C82.7999 73.2789 80.0537 70.5336 76.6663 70.5336Z" fill="white"/>
</svg>
