<svg width="234" height="527" viewBox="0 0 234 527" fill="none" xmlns="http://www.w3.org/2000/svg">
<path d="M211.459 511.834C211.353 512.229 208.272 511.807 204.533 510.884C200.793 509.961 197.87 508.905 197.949 508.536C198.055 508.14 201.136 508.563 204.875 509.486C208.588 510.409 211.538 511.464 211.459 511.834Z" fill="#777E90"/>
<path d="M233 517.11C232.894 517.506 231.025 517.374 228.813 516.82C226.601 516.266 224.863 515.527 224.968 515.131C225.073 514.736 226.943 514.868 229.155 515.422C231.367 515.975 233.105 516.714 233 517.11Z" fill="#777E90"/>
<path d="M144.096 64.5793C143.991 64.975 140.936 64.3683 137.223 63.5241C133.51 62.6536 130.508 61.8358 130.587 61.4401C130.64 61.0443 133.8 61.229 137.566 62.0996C141.331 62.9701 144.228 64.21 144.123 64.5793H144.096Z" fill="#777E90"/>
<path d="M169.588 75.5273C169.377 75.8703 166.559 74.5776 163.136 72.8629C159.739 71.1482 157 69.6709 157.158 69.2752C157.316 68.9058 160.318 69.8292 163.794 71.5703C167.244 73.3114 169.798 75.1844 169.588 75.5273Z" fill="#777E90"/>
<path d="M191.682 92.3315C191.392 92.6217 188.996 90.6432 186.099 88.1634C183.202 85.6573 180.911 83.5732 181.175 83.2303C181.412 82.9137 184.124 84.5229 187.047 87.0554C189.97 89.588 191.972 92.0414 191.682 92.3315Z" fill="#777E90"/>
<path d="M208.536 114.359C208.167 114.544 206.429 111.985 204.322 108.819C202.242 105.627 200.583 103.016 200.899 102.752C201.215 102.514 203.401 104.783 205.534 108.028C207.667 111.273 208.878 114.175 208.536 114.386V114.359Z" fill="#777E90"/>
<path d="M218.095 140.37C217.7 140.449 216.804 137.468 215.751 133.802C214.724 130.135 213.934 127.127 214.303 126.995C214.671 126.864 216.094 129.686 217.147 133.406C218.2 137.152 218.464 140.291 218.095 140.37Z" fill="#777E90"/>
<path d="M219.517 168.07C219.122 168.017 219.148 164.904 219.227 161.105C219.333 157.307 219.438 154.194 219.859 154.167C220.254 154.141 220.781 157.254 220.676 161.132C220.597 165.01 219.912 168.096 219.517 168.07Z" fill="#777E90"/>
<path d="M212.328 194.846C211.959 194.661 213.012 191.733 214.276 188.172C215.567 184.584 216.647 181.682 217.042 181.788C217.41 181.893 216.963 185.006 215.646 188.673C214.329 192.34 212.67 195.031 212.328 194.872V194.846Z" fill="#777E90"/>
<path d="M196.238 217.349C195.948 217.058 198.028 214.737 200.504 211.861C203.006 209.012 205.007 206.638 205.349 206.876C205.665 207.087 204.164 209.883 201.584 212.811C199.029 215.739 196.475 217.639 196.211 217.349H196.238Z" fill="#777E90"/>
<path d="M173.011 232.359C172.853 231.99 175.618 230.539 178.963 228.771C182.333 227.004 185.072 225.579 185.309 225.922C185.52 226.239 183.071 228.27 179.647 230.064C176.198 231.858 173.169 232.728 173.011 232.359Z" fill="#777E90"/>
<path d="M145.992 238.163C145.992 237.767 149.073 237.398 152.839 236.949C156.605 236.501 159.686 236.105 159.765 236.501C159.844 236.87 156.868 237.925 152.997 238.374C149.153 238.849 145.992 238.558 145.992 238.163Z" fill="#777E90"/>
<path d="M118.868 233.045C119.026 232.676 121.976 233.652 125.61 234.733C129.244 235.841 132.22 236.659 132.141 237.081C132.088 237.477 128.902 237.266 125.188 236.131C121.449 234.997 118.71 233.414 118.868 233.045Z" fill="#777E90"/>
<path d="M99.6443 213.946C100.039 213.814 101.251 216.636 103.41 219.697C105.543 222.783 107.65 225.052 107.36 225.368C107.123 225.659 104.49 223.785 102.225 220.514C99.934 217.27 99.2757 214.025 99.6443 213.919V213.946Z" fill="#777E90"/>
<path d="M111.337 192.34C111.442 192.762 108.466 193.685 105.491 195.822C102.462 197.959 100.882 200.597 100.513 200.412C100.145 200.307 101.303 197.036 104.648 194.661C107.966 192.287 111.31 191.997 111.337 192.34Z" fill="#777E90"/>
<path d="M135.143 202.233C134.774 202.444 133.089 199.832 130.35 197.326C127.664 194.793 124.82 193.527 124.978 193.131C125.057 192.762 128.348 193.501 131.351 196.271C134.3 199.014 135.485 202.101 135.143 202.259V202.233Z" fill="#777E90"/>
<path d="M136.038 229.167C135.669 229.009 136.644 226.08 137.328 222.361C138.039 218.668 138.224 215.581 138.619 215.555C139.014 215.528 139.488 218.747 138.75 222.625C138.013 226.502 136.38 229.325 136.038 229.141V229.167Z" fill="#777E90"/>
<path d="M117.999 249.876C117.762 249.533 120.159 247.554 123.029 245.074C125.9 242.621 128.164 240.51 128.48 240.774C128.77 241.038 126.927 243.65 123.977 246.182C121.028 248.715 118.21 250.192 117.999 249.876Z" fill="#777E90"/>
<path d="M93.377 262.697C93.219 262.327 95.9051 260.745 99.3811 259.135C102.857 257.526 105.833 256.524 106.017 256.893C106.202 257.262 103.516 258.845 100.013 260.454C96.5107 262.064 93.5613 263.066 93.4033 262.697H93.377Z" fill="#777E90"/>
<path d="M68.623 275.306C68.4123 274.963 70.9141 273.09 74.2321 271.086C77.5766 269.133 80.5786 268.131 80.7103 268.448C80.8946 268.843 78.2349 270.426 74.9432 272.352C71.6777 274.304 68.86 275.623 68.623 275.306Z" fill="#777E90"/>
<path d="M47.6348 293.43C47.3451 293.166 49.1621 290.607 51.9272 287.89C54.6923 285.173 57.2993 283.379 57.5364 283.695C57.7997 284.012 55.6403 286.254 52.9279 288.919C50.2155 291.583 47.9244 293.694 47.6084 293.43H47.6348Z" fill="#777E90"/>
<path d="M31.729 316.196C31.3866 316.011 32.5453 313.083 34.573 309.786C36.6007 306.488 38.6811 304.114 38.9971 304.351C39.3395 304.589 37.7858 307.306 35.8107 310.551C33.8093 313.796 32.0976 316.381 31.729 316.196Z" fill="#777E90"/>
<path d="M21.6167 342.049C21.2217 341.944 21.6694 338.831 22.8808 335.137C24.0658 331.444 25.5405 328.674 25.9091 328.806C26.2778 328.964 25.4351 331.945 24.2501 335.586C23.0651 339.226 22.0117 342.128 21.6167 342.049Z" fill="#777E90"/>
<path d="M17.9826 369.564C17.5876 369.564 17.2453 366.425 17.5086 362.573C17.772 358.722 18.5357 355.635 18.9307 355.714C19.3257 355.767 19.2203 358.88 18.957 362.679C18.6937 366.477 18.3777 369.564 17.9826 369.59V369.564Z" fill="#777E90"/>
<path d="M21.6167 397.105C21.2217 397.21 20.2473 394.229 19.431 390.457C18.5093 386.685 18.4829 383.519 18.8516 383.466C19.2466 383.413 19.9313 386.447 20.8267 390.167C21.643 393.887 21.9854 396.999 21.5904 397.105H21.6167Z" fill="#777E90"/>
<path d="M32.3346 422.694C31.9923 422.905 30.1226 420.346 28.4109 416.89C26.6728 413.434 25.8038 410.401 26.1725 410.242C26.5412 410.084 28.0159 412.828 29.7276 416.257C31.413 419.687 32.7033 422.509 32.361 422.72L32.3346 422.694Z" fill="#777E90"/>
<path d="M48.9777 444.933C48.688 445.197 46.2653 443.192 43.7899 440.237C41.2882 437.283 39.6818 434.565 39.9978 434.328C40.3138 434.091 42.4205 436.386 44.8959 439.287C47.345 442.189 49.2937 444.643 49.004 444.933H48.9777Z" fill="#777E90"/>
<path d="M70.3611 462.608C70.1504 462.951 67.3327 461.553 64.1989 459.257C61.0652 456.962 58.8795 454.694 59.1428 454.403C59.4062 454.087 61.9869 455.828 65.0416 458.097C68.1227 460.339 70.5718 462.265 70.3348 462.608H70.3611Z" fill="#777E90"/>
<path d="M95.3785 474.584C95.2731 474.954 92.1657 474.321 88.5843 472.87C85.0029 471.419 82.3168 469.73 82.5011 469.387C82.6855 469.018 85.5822 470.1 89.1373 471.524C92.6661 472.949 95.5101 474.189 95.3785 474.584Z" fill="#777E90"/>
<path d="M117.072 480.747C116.997 481.123 113.849 480.741 110.163 479.581C106.477 478.421 103.664 476.953 103.821 476.596C103.975 476.213 106.949 477.06 110.606 478.195C114.238 479.333 117.172 480.342 117.072 480.747Z" fill="#777E90"/>
<path d="M112.601 11.7657L86.5565 31.6038L87.8206 69.5389L63.9883 50.5977L50.8213 61.8886L0.786621 0L112.601 11.7657Z" fill="#BB1F1F"/>
<path d="M76.7867 39.7026C76.813 40.8634 87.847 69.5653 87.847 69.5653L64.0146 50.5978L76.813 39.7026H76.7867Z" fill="#BB1F1F"/>
<g opacity="0.3">
<path d="M76.7867 39.7026C76.813 40.8634 87.847 69.5653 87.847 69.5653L64.0146 50.5978L76.813 39.7026H76.7867Z" fill="black"/>
</g>
<path d="M0.786621 0L76.7866 39.7026L87.8206 69.5389L86.5565 31.6038L0.786621 0Z" fill="#BB1F1F"/>
<path opacity="0.1" d="M0.786621 0L76.7866 39.7026L87.8206 69.5389L86.5565 31.6038L0.786621 0Z" fill="black"/>
<path d="M206.558 479.378L132.5 455.015L117.366 501.182L191.423 525.545L206.558 479.378Z" fill="#BB1F1F"/>
<g opacity="0.5">
<path d="M206.534 479.412C206.534 479.412 205.402 480.045 203.243 480.916C200.82 481.866 197.712 483.079 194.026 484.53C186.204 487.537 175.355 491.6 163.215 496.032L162.714 496.216L162.399 495.794C162.003 495.267 161.582 494.713 161.161 494.159C153.076 483.475 145.834 473.767 140.647 466.67C138.198 463.294 136.17 460.471 134.563 458.255C133.141 456.25 132.404 455.116 132.483 455.037C132.562 454.984 133.457 456.013 135.011 457.912C136.697 460.049 138.882 462.792 141.463 466.064C146.861 472.975 154.235 482.604 162.32 493.288C162.741 493.842 163.162 494.396 163.557 494.924L162.741 494.686C174.881 490.255 185.783 486.35 193.71 483.607C197.475 482.34 200.609 481.259 203.085 480.415C205.297 479.702 206.534 479.333 206.587 479.439L206.534 479.412Z" fill="#BB1F1F"/>
<path d="M206.534 479.412C206.534 479.412 205.402 480.045 203.243 480.916C200.82 481.866 197.712 483.079 194.026 484.53C186.204 487.537 175.355 491.6 163.215 496.032L162.714 496.216L162.399 495.794C162.003 495.267 161.582 494.713 161.161 494.159C153.076 483.475 145.834 473.767 140.647 466.67C138.198 463.294 136.17 460.471 134.563 458.255C133.141 456.25 132.404 455.116 132.483 455.037C132.562 454.984 133.457 456.013 135.011 457.912C136.697 460.049 138.882 462.792 141.463 466.064C146.861 472.975 154.235 482.604 162.32 493.288C162.741 493.842 163.162 494.396 163.557 494.924L162.741 494.686C174.881 490.255 185.783 486.35 193.71 483.607C197.475 482.34 200.609 481.259 203.085 480.415C205.297 479.702 206.534 479.333 206.587 479.439L206.534 479.412Z" fill="white"/>
<path d="M153.866 483.316C154.051 483.686 145.992 487.959 135.906 492.892C125.821 497.826 117.499 501.545 117.315 501.176C117.13 500.807 125.162 496.533 135.274 491.6C145.36 486.667 153.682 482.947 153.866 483.316Z" fill="#BB1F1F"/>
<path d="M153.866 483.316C154.051 483.686 145.992 487.959 135.906 492.892C125.821 497.826 117.499 501.545 117.315 501.176C117.13 500.807 125.162 496.533 135.274 491.6C145.36 486.667 153.682 482.947 153.866 483.316Z" fill="white"/>
<path d="M192.735 526C192.367 526.158 188.574 518.27 184.282 508.351C179.99 498.432 176.803 490.281 177.146 490.122C177.514 489.964 181.306 497.852 185.599 507.771C189.891 517.664 193.078 525.842 192.735 526Z" fill="#BB1F1F"/>
<path d="M192.735 526C192.367 526.158 188.574 518.27 184.282 508.351C179.99 498.432 176.803 490.281 177.146 490.122C177.514 489.964 181.306 497.852 185.599 507.771C189.891 517.664 193.078 525.842 192.735 526Z" fill="white"/>
</g>
<path d="M136.244 465.977L136.242 465.978C131.303 469.613 124.376 468.552 120.774 463.606L120.773 463.605C117.143 458.656 118.203 451.715 123.14 448.107L123.141 448.106C128.081 444.47 135.008 445.531 138.61 450.477L138.611 450.478C142.241 455.427 141.18 462.368 136.244 465.977Z" fill="#BB1F1F" stroke="white"/>
<mask id="path-44-inside-1_944_8851" fill="white">
<path d="M136.986 454.905C137.092 455.089 133.616 457.253 129.218 459.732C128.586 460.075 127.954 460.418 127.348 460.761L127.006 460.946L126.821 460.629C124.846 457.121 123.477 454.456 123.635 454.377C123.793 454.272 125.426 456.804 127.48 460.26L126.953 460.128C127.559 459.785 128.164 459.442 128.796 459.073C133.194 456.593 136.828 454.747 136.934 454.931L136.986 454.905Z"/>
</mask>
<path d="M136.986 454.905C137.092 455.089 133.616 457.253 129.218 459.732C128.586 460.075 127.954 460.418 127.348 460.761L127.006 460.946L126.821 460.629C124.846 457.121 123.477 454.456 123.635 454.377C123.793 454.272 125.426 456.804 127.48 460.26L126.953 460.128C127.559 459.785 128.164 459.442 128.796 459.073C133.194 456.593 136.828 454.747 136.934 454.931L136.986 454.905Z" fill="white"/>
<path d="M136.986 454.905L137.855 454.409L137.386 453.587L136.539 454.011L136.986 454.905ZM129.218 459.732L129.695 460.611L129.702 460.607L129.709 460.603L129.218 459.732ZM127.348 460.761L127.823 461.641L127.832 461.637L127.841 461.631L127.348 460.761ZM127.006 460.946L126.142 461.449L126.629 462.285L127.48 461.826L127.006 460.946ZM126.821 460.629L125.95 461.12L125.954 461.126L125.957 461.133L126.821 460.629ZM123.635 454.377L124.083 455.271L124.139 455.243L124.19 455.209L123.635 454.377ZM127.48 460.26L127.237 461.23L129.566 461.814L128.339 459.749L127.48 460.26ZM126.953 460.128L126.46 459.258L124.284 460.49L126.71 461.098L126.953 460.128ZM128.796 459.073L128.305 458.202L128.299 458.206L128.292 458.21L128.796 459.073ZM136.934 454.931L136.065 455.427L136.534 456.249L137.381 455.825L136.934 454.931ZM136.118 455.4C135.907 455.03 136.008 454.687 136.05 454.574C136.098 454.448 136.16 454.368 136.176 454.347C136.215 454.297 136.238 454.282 136.206 454.31C136.152 454.357 136.042 454.442 135.859 454.571C135.503 454.822 134.96 455.175 134.263 455.609C132.873 456.473 130.917 457.626 128.727 458.861L129.709 460.603C131.916 459.359 133.898 458.191 135.319 457.307C136.027 456.867 136.608 456.49 137.011 456.206C137.209 456.067 137.387 455.934 137.521 455.817C137.581 455.764 137.673 455.68 137.753 455.577C137.79 455.53 137.866 455.427 137.921 455.281C137.971 455.15 138.073 454.791 137.855 454.409L136.118 455.4ZM128.741 458.853C128.11 459.196 127.47 459.543 126.855 459.891L127.841 461.631C128.437 461.294 129.061 460.955 129.695 460.611L128.741 458.853ZM126.873 459.881L126.531 460.066L127.48 461.826L127.823 461.641L126.873 459.881ZM127.87 460.443L127.686 460.126L125.957 461.133L126.142 461.449L127.87 460.443ZM127.693 460.139C126.709 458.391 125.88 456.86 125.319 455.762C125.037 455.21 124.83 454.782 124.706 454.496C124.641 454.347 124.612 454.267 124.603 454.237C124.596 454.214 124.614 454.263 124.62 454.348C124.623 454.387 124.63 454.503 124.591 454.649C124.551 454.8 124.426 455.099 124.083 455.271L123.187 453.483C122.834 453.66 122.702 453.969 122.658 454.136C122.615 454.297 122.621 454.432 122.626 454.496C122.636 454.63 122.668 454.748 122.688 454.812C122.731 454.957 122.799 455.125 122.871 455.292C123.021 455.637 123.25 456.11 123.538 456.672C124.116 457.803 124.959 459.359 125.95 461.12L127.693 460.139ZM124.19 455.209C123.892 455.408 123.589 455.386 123.429 455.349C123.278 455.314 123.177 455.252 123.141 455.229C123.064 455.18 123.027 455.137 123.043 455.153C123.062 455.173 123.116 455.236 123.213 455.366C123.401 455.615 123.669 456.008 124.008 456.529C124.682 457.564 125.596 459.049 126.62 460.771L128.339 459.749C127.309 458.016 126.38 456.506 125.684 455.438C125.339 454.907 125.041 454.47 124.814 454.166C124.704 454.019 124.589 453.875 124.48 453.762C124.432 453.713 124.342 453.623 124.223 453.547C124.165 453.51 124.046 453.439 123.88 453.401C123.703 453.36 123.387 453.34 123.08 453.546L124.19 455.209ZM127.723 459.29L127.196 459.158L126.71 461.098L127.237 461.23L127.723 459.29ZM127.446 460.998C128.051 460.656 128.662 460.31 129.301 459.936L128.292 458.21C127.667 458.575 127.067 458.915 126.46 459.258L127.446 460.998ZM129.288 459.944C131.478 458.709 133.473 457.634 134.928 456.894C135.658 456.523 136.24 456.242 136.638 456.068C136.841 455.978 136.971 455.929 137.038 455.907C137.079 455.894 137.054 455.906 136.991 455.913C136.965 455.916 136.865 455.928 136.734 455.903C136.617 455.882 136.274 455.793 136.065 455.427L137.802 454.436C137.587 454.058 137.23 453.961 137.093 453.936C136.941 453.908 136.815 453.92 136.755 453.927C136.626 453.942 136.507 453.977 136.43 454.002C136.261 454.056 136.055 454.139 135.835 454.236C135.384 454.433 134.763 454.734 134.021 455.112C132.534 455.868 130.513 456.957 128.305 458.202L129.288 459.944ZM137.381 455.825L137.434 455.799L136.539 454.011L136.486 454.037L137.381 455.825Z" fill="white" mask="url(#path-44-inside-1_944_8851)"/>
</svg>
