<svg width="92" height="92" viewBox="0 0 92 92" fill="none" xmlns="http://www.w3.org/2000/svg">
<ellipse cx="45.9999" cy="61.3334" rx="19.1667" ry="23" fill="white"/>
<path d="M65.482 27.5491C65.224 27.3786 64.918 27.2959 64.6093 27.3131C64.3006 27.3304 64.0057 27.4467 63.7684 27.6448C63.531 27.8429 63.3638 28.1123 63.2917 28.4129C63.2196 28.7136 63.2463 29.0295 63.3679 29.3137C64.3174 31.4126 64.7443 33.7103 64.612 36.0101C64.4798 38.31 63.7923 40.5436 62.6084 42.5198C57.9156 19.9739 47.5848 6.85912 47.1273 6.28628C46.9653 6.08809 46.7542 5.93584 46.515 5.84471C46.2758 5.75358 46.0169 5.72675 45.7641 5.76691C45.5113 5.80987 45.2746 5.91957 45.0784 6.08468C44.8822 6.24978 44.7337 6.46429 44.6482 6.70603C44.5934 6.86185 39.0131 22.3759 26.4494 31.915C13.7814 41.5344 14.3543 54.1733 14.3823 54.6239C14.3734 58.7822 15.1848 62.9014 16.77 66.7457C18.3551 70.59 20.6829 74.0838 23.6201 77.0273C26.5574 79.9708 30.0463 82.3061 33.8872 83.8994C37.7281 85.4928 41.8455 86.3129 46.0038 86.3129C50.1621 86.3129 54.2795 85.4928 58.1204 83.8994C61.9613 82.3061 65.4502 79.9708 68.3874 77.0273C71.3246 74.0838 73.6524 70.59 75.2376 66.7457C76.8228 62.9014 77.6341 58.7822 77.6253 54.6239V54.593C77.2164 35.5257 65.9607 27.8663 65.482 27.5491ZM46 83.3749C42.5699 83.3711 39.2814 82.0069 36.856 79.5814C34.4306 77.156 33.0663 73.8675 33.0625 70.4374C33.0625 59.8244 44.4459 47.017 44.9303 46.4765C45.0689 46.3326 45.235 46.2182 45.4188 46.14C45.6026 46.0619 45.8003 46.0216 46 46.0216C46.1997 46.0216 46.3974 46.0619 46.5811 46.14C46.7649 46.2182 46.9311 46.3326 47.0696 46.4765C47.5541 47.0164 58.9375 59.8238 58.9375 70.4374C58.9337 73.8675 57.5694 77.156 55.144 79.5814C52.7185 82.0069 49.43 83.3711 46 83.3749Z" fill="#BB1F1F"/>
</svg>
