<svg width="92" height="92" viewBox="0 0 92 92" fill="none" xmlns="http://www.w3.org/2000/svg">
<path d="M16.3516 27.1328C10.4055 27.1328 5.57031 31.968 5.57031 37.9141C5.57031 43.8601 10.4055 48.6953 16.3516 48.6953C22.2976 48.6953 27.1328 43.8601 27.1328 37.9141C27.1328 31.968 22.2976 27.1328 16.3516 27.1328Z" fill="#BB1F1F"/>
<path d="M46 16.3516C38.5694 16.3516 32.5234 22.3975 32.5234 29.8281C32.5234 37.2587 38.5694 43.3047 46 43.3047C53.4306 43.3047 59.4766 37.2587 59.4766 29.8281C59.4766 22.3975 53.4306 16.3516 46 16.3516Z" fill="#BB1F1F"/>
<path d="M75.6484 27.1328C69.7024 27.1328 64.8672 31.968 64.8672 37.9141C64.8672 43.8601 69.7024 48.6953 75.6484 48.6953C81.5945 48.6953 86.4297 43.8601 86.4297 37.9141C86.4297 31.968 81.5945 27.1328 75.6484 27.1328Z" fill="#BB1F1F"/>
<path d="M59.1623 43.3047C55.7592 46.6287 51.1207 48.6953 46 48.6953C40.8793 48.6953 36.2406 46.6287 32.8377 43.3047C29.3281 46.7331 27.1328 51.4999 27.1328 56.7812V72.9531C27.1328 74.4429 28.3383 75.6484 29.8281 75.6484H62.1719C63.6617 75.6484 64.8672 74.4429 64.8672 72.9531V56.7812C64.8672 51.4999 62.6719 46.7331 59.1623 43.3047Z" fill="#BB1F1F"/>
<path d="M87.6141 48.6953C84.6519 51.9798 80.4093 54.0859 75.6483 54.0859C73.6153 54.0859 71.688 53.6671 69.8942 52.9794C70.1077 54.2254 70.2577 55.4879 70.2577 56.7812V72.9531C70.2577 73.9026 70.0633 74.8012 69.7612 75.6484H89.3046C90.7944 75.6484 91.9999 74.4429 91.9999 72.9531V59.4766C91.9999 55.3197 90.2002 51.5629 87.6141 48.6953Z" fill="#BB1F1F"/>
<path d="M21.7422 72.9531V56.7812C21.7422 55.4879 21.8922 54.2254 22.1057 52.9794C20.3119 53.6671 18.3842 54.0859 16.3516 54.0859C11.5907 54.0859 7.34796 51.9798 4.38581 48.6953C1.79975 51.5629 0 55.3197 0 59.4766V72.9531C0 74.4429 1.20552 75.6484 2.69531 75.6484H22.2387C21.9366 74.8012 21.7422 73.9026 21.7422 72.9531Z" fill="#BB1F1F"/>
</svg>
