<svg width="92" height="92" viewBox="0 0 92 92" fill="none" xmlns="http://www.w3.org/2000/svg">
<path d="M30.6667 4.79175H15.3334C12.5382 4.79378 9.85808 5.90507 7.88157 7.88157C5.90507 9.85808 4.79378 12.5382 4.79175 15.3334V30.6667C4.79378 33.462 5.90507 36.1421 7.88157 38.1186C9.85808 40.0951 12.5382 41.2064 15.3334 41.2084H30.6667C33.462 41.2064 36.1421 40.0951 38.1186 38.1186C40.0951 36.1421 41.2064 33.462 41.2084 30.6667V15.3334C41.2064 12.5382 40.0951 9.85808 38.1186 7.88157C36.1421 5.90507 33.462 4.79378 30.6667 4.79175ZM23.0001 29.7084C21.6733 29.7084 20.3763 29.315 19.2731 28.5779C18.17 27.8407 17.3101 26.793 16.8024 25.5672C16.2947 24.3415 16.1618 22.9926 16.4206 21.6914C16.6795 20.3901 17.3184 19.1948 18.2566 18.2566C19.1948 17.3184 20.3901 16.6795 21.6914 16.4206C22.9926 16.1618 24.3415 16.2947 25.5672 16.8024C26.793 17.3101 27.8407 18.17 28.5779 19.2731C29.315 20.3763 29.7084 21.6733 29.7084 23.0001C29.7064 24.7786 28.999 26.4837 27.7413 27.7413C26.4837 28.999 24.7786 29.7064 23.0001 29.7084Z" fill="white"/>
<path d="M76.6668 4.79175H61.3334C58.5382 4.79378 55.8581 5.90507 53.8816 7.88157C51.9051 9.85808 50.7938 12.5382 50.7917 15.3334V30.6667C50.7938 33.462 51.9051 36.1421 53.8816 38.1186C55.8581 40.0951 58.5382 41.2064 61.3334 41.2084H76.6668C79.462 41.2064 82.1421 40.0951 84.1186 38.1186C86.0951 36.1421 87.2064 33.462 87.2084 30.6667V15.3334C87.2064 12.5382 86.0951 9.85808 84.1186 7.88157C82.1421 5.90507 79.462 4.79378 76.6668 4.79175ZM69.0001 29.7084C67.6733 29.7084 66.3763 29.315 65.2731 28.5779C64.17 27.8407 63.3101 26.793 62.8024 25.5672C62.2947 24.3415 62.1618 22.9926 62.4207 21.6914C62.6795 20.3901 63.3184 19.1948 64.2566 18.2566C65.1948 17.3184 66.3901 16.6795 67.6914 16.4206C68.9926 16.1618 70.3415 16.2947 71.5673 16.8024C72.793 17.3101 73.8407 18.17 74.5779 19.2731C75.315 20.3763 75.7084 21.6733 75.7084 23.0001C75.7064 24.7786 74.999 26.4837 73.7414 27.7413C72.4837 28.999 70.7786 29.7064 69.0001 29.7084Z" fill="white"/>
<path d="M58.7766 63.8864C61.5987 63.8864 63.8864 61.5987 63.8864 58.7766C63.8864 55.9545 61.5987 53.6667 58.7766 53.6667C55.9545 53.6667 53.6667 55.9545 53.6667 58.7766C53.6667 61.5987 55.9545 63.8864 58.7766 63.8864Z" fill="white"/>
<path d="M79.2236 63.8864C82.0457 63.8864 84.3334 61.5987 84.3334 58.7766C84.3334 55.9545 82.0457 53.6667 79.2236 53.6667C76.4015 53.6667 74.1138 55.9545 74.1138 58.7766C74.1138 61.5987 76.4015 63.8864 79.2236 63.8864Z" fill="white"/>
<path d="M58.7766 84.3334C61.5987 84.3334 63.8864 82.0457 63.8864 79.2236C63.8864 76.4015 61.5987 74.1138 58.7766 74.1138C55.9545 74.1138 53.6667 76.4015 53.6667 79.2236C53.6667 82.0457 55.9545 84.3334 58.7766 84.3334Z" fill="white"/>
<path d="M69 74.1098C71.8221 74.1098 74.1098 71.8221 74.1098 69C74.1098 66.1779 71.8221 63.8901 69 63.8901C66.1779 63.8901 63.8901 66.1779 63.8901 69C63.8901 71.8221 66.1779 74.1098 69 74.1098Z" fill="white"/>
<path d="M79.2236 84.3334C82.0457 84.3334 84.3334 82.0457 84.3334 79.2236C84.3334 76.4015 82.0457 74.1138 79.2236 74.1138C76.4015 74.1138 74.1138 76.4015 74.1138 79.2236C74.1138 82.0457 76.4015 84.3334 79.2236 84.3334Z" fill="white"/>
<path d="M30.6667 50.7917H15.3334C12.5382 50.7938 9.85808 51.9051 7.88157 53.8816C5.90507 55.8581 4.79378 58.5382 4.79175 61.3334V76.6668C4.79378 79.462 5.90507 82.1421 7.88157 84.1186C9.85808 86.0951 12.5382 87.2064 15.3334 87.2084H30.6667C33.462 87.2064 36.1421 86.0951 38.1186 84.1186C40.0951 82.1421 41.2064 79.462 41.2084 76.6668V61.3334C41.2064 58.5382 40.0951 55.8581 38.1186 53.8816C36.1421 51.9051 33.462 50.7938 30.6667 50.7917ZM23.0001 75.7084C21.6733 75.7084 20.3763 75.315 19.2731 74.5779C18.17 73.8407 17.3101 72.793 16.8024 71.5673C16.2947 70.3415 16.1618 68.9926 16.4206 67.6914C16.6795 66.3901 17.3184 65.1948 18.2566 64.2566C19.1948 63.3184 20.3901 62.6795 21.6914 62.4207C22.9926 62.1618 24.3415 62.2947 25.5672 62.8024C26.793 63.3101 27.8407 64.17 28.5779 65.2731C29.315 66.3763 29.7084 67.6733 29.7084 69.0001C29.7064 70.7786 28.999 72.4837 27.7413 73.7414C26.4837 74.999 24.7786 75.7064 23.0001 75.7084Z" fill="white"/>
</svg>
