<svg width="24" height="20" viewBox="0 0 24 20" fill="none" xmlns="http://www.w3.org/2000/svg">
<path d="M21.25 0H2.75C1.23 0 0 1.23 0 2.75V17.25C0 18.77 1.23 20 2.75 20H21.25C22.77 20 24 18.77 24 17.25V2.75C24 1.23 22.77 0 21.25 0ZM7.5 5H6C5.449 5 5 5.448 5 6V7.5C5 8.053 4.552 8.5 4 8.5C3.448 8.5 3 8.053 3 7.5V6C3 4.346 4.346 3 6 3H7.5C8.052 3 8.5 3.447 8.5 4C8.5 4.553 8.052 5 7.5 5ZM21 14C21 15.654 19.654 17 18 17H16.5C15.948 17 15.5 16.553 15.5 16C15.5 15.447 15.948 15 16.5 15H18C18.551 15 19 14.552 19 14V12.5C19 11.947 19.448 11.5 20 11.5C20.552 11.5 21 11.947 21 12.5V14Z" fill="white"/>
</svg>
